<svg version="1.1" viewBox="0 0 923.51 216.36" xml:space="preserve" xmlns="http://www.w3.org/2000/svg">
    
    <rect id="yang" transform="matrix(15.84 0 0 15.84 -8051.5 -12848)" x="508.29" y="814.89" width="58.301" height="6.104" clip-rule="evenodd" stroke-linejoin="round" stroke-miterlimit="2"/><path id="modificatore" transform="translate(-412.88 -637.4)" d="m874.62 637.4c59.708 0 108.18 48.475 108.18 108.18 0 59.706-48.474 108.18-108.18 108.18-59.707 0-108.18-48.475-108.18-108.18 0-59.707 48.474-108.18 108.18-108.18zm0 48.926c32.704 0 59.256 26.552 59.256 59.256 0 32.703-26.552 59.255-59.256 59.255s-59.255-26.552-59.255-59.255c0-32.704 26.551-59.256 59.255-59.256z" clip-rule="evenodd" fill-rule="evenodd" stroke-linejoin="round" stroke-miterlimit="2"/>
</svg>
