<svg xmlns="http://www.w3.org/2000/svg" width="16" height="16" viewBox="4 4 16 16"><path d="M6,9 7,9 7,10 6,10 M6,10 7,10 7,11 6,11 M5,10 6,10 6,11 5,11 M7,9 8,9 8,10 7,10 M8,9 9,9 9,10 8,10 M9,9 10,9 10,10 9,10 M10,9 11,9 11,10 10,10 M11,9 12,9 12,10 11,10 M12,9 13,9 13,10 12,10 M13,9 14,9 14,10 13,10 M14,9 15,9 15,10 14,10 M14,10 15,10 15,11 14,11 M15,10 16,10 16,11 15,11 M7,11 8,11 8,12 7,12 M8,11 9,11 9,12 8,12 M9,11 10,11 10,12 9,12 M10,11 11,11 11,12 10,12 M11,11 12,11 12,12 11,12 M12,11 13,11 13,12 12,12 M13,11 14,11 14,12 13,12 M5,11 6,11 6,12 5,12 M5,12 6,12 6,13 5,13 M5,13 6,13 6,14 5,14 M6,14 7,14 7,15 6,15 M6,15 7,15 7,16 6,16 M15,11 16,11 16,12 15,12 M15,12 16,12 16,13 15,13 M15,13 16,13 16,14 15,14 M14,14 15,14 15,15 14,15 M14,15 15,15 15,16 14,16 M7,16 8,16 8,17 7,17 M8,16 9,16 9,17 8,17 M9,16 10,16 10,17 9,17 M10,16 11,16 11,17 10,17 M11,16 12,16 12,17 11,17 M12,16 13,16 13,17 12,17 M13,16 14,16 14,17 13,17 M7,7 8,7 8,8 7,8 M7,6 8,6 8,7 7,7 M8,5 9,5 9,6 8,6 M8,4 9,4 9,5 8,5 M7,3 8,3 8,4 7,4 M10,7 11,7 11,8 10,8 M11,6 12,6 12,7 11,7 M11,5 12,5 12,6 11,6 M10,4 11,4 11,5 10,5 M10,3 11,3 11,4 10,4 M13,7 14,7 14,8 13,8 M14,6 15,6 15,7 14,7 M14,5 15,5 15,6 14,6 M13,4 14,4 14,5 13,5 M14,3 15,3 15,4 14,4 "></path></svg>