<svg xmlns="http://www.w3.org/2000/svg" version="1.1" xmlns:xlink="http://www.w3.org/1999/xlink" viewBox="2 4 14 14">
<rect width="1" height="1" x="10" y="4"></rect><rect width="1" height="1" x="11" y="4"></rect><rect width="1" height="1" x="3" y="5"></rect><rect width="1" height="1" x="4" y="5"></rect><rect width="1" height="1" x="5" y="5"></rect><rect width="1" height="1" x="6" y="5"></rect><rect width="1" height="1" x="9" y="5"></rect><rect width="1" height="1" x="2" y="6"></rect><rect width="1" height="1" x="7" y="6"></rect><rect width="1" height="1" x="9" y="6"></rect><rect width="1" height="1" x="11" y="6"></rect><rect width="1" height="1" x="12" y="6"></rect><rect width="1" height="1" x="13" y="6"></rect><rect width="1" height="1" x="4" y="7"></rect><rect width="1" height="1" x="5" y="7"></rect><rect width="1" height="1" x="6" y="7"></rect><rect width="1" height="1" x="8" y="7"></rect><rect width="1" height="1" x="9" y="7"></rect><rect width="1" height="1" x="10" y="7"></rect><rect width="1" height="1" x="14" y="7"></rect><rect width="1" height="1" x="3" y="8"></rect><rect width="1" height="1" x="6" y="8"></rect><rect width="1" height="1" x="7" y="8"></rect><rect width="1" height="1" x="8" y="8"></rect><rect width="1" height="1" x="9" y="8"></rect><rect width="1" height="1" x="10" y="8"></rect><rect width="1" height="1" x="11" y="8"></rect><rect width="1" height="1" x="12" y="8"></rect><rect width="1" height="1" x="15" y="8"></rect><rect width="1" height="1" x="2" y="9"></rect><rect width="1" height="1" x="5" y="9"></rect><rect width="1" height="1" x="8" y="9"></rect><rect width="1" height="1" x="9" y="9"></rect><rect width="1" height="1" x="13" y="9"></rect><rect width="1" height="1" x="4" y="10"></rect><rect width="1" height="1" x="9" y="10"></rect><rect width="1" height="1" x="10" y="10"></rect><rect width="1" height="1" x="14" y="10"></rect><rect width="1" height="1" x="4" y="11"></rect><rect width="1" height="1" x="9" y="11"></rect><rect width="1" height="1" x="10" y="11"></rect><rect width="1" height="1" x="14" y="11"></rect><rect width="1" height="1" x="9" y="12"></rect><rect width="1" height="1" x="10" y="12"></rect><rect width="1" height="1" x="9" y="13"></rect><rect width="1" height="1" x="10" y="13"></rect><rect width="1" height="1" x="8" y="14"></rect><rect width="1" height="1" x="9" y="14"></rect><rect width="1" height="1" x="8" y="15"></rect><rect width="1" height="1" x="9" y="15"></rect><rect width="1" height="1" x="8" y="16"></rect><rect width="1" height="1" x="9" y="16"></rect>
</svg>