<svg fill-rule="evenodd" version="1.1" viewBox="0 0 924 217" xml:space="preserve" xmlns="http://www.w3.org/2000/svg">
  <g class="vuota">
    <path transform="matrix(15.84,0,0,15.84,-8051.5,-12848)" d="m508.29 820.22v0.769h0.757l1e-3 -0.011v-0.758h-0.758zm4.534 0.769v-0.758h-0.757v0.724-0.724h-0.758v0.758h1.515zm2.273 0h1.515v-0.758h-0.757v0.724-0.724h-0.758v0.758zm5.303 0v-0.758h-0.757v0.724-0.724h-0.758v0.758h1.515zm3.788 0v-0.758h-1.515v0.758h1.515zm3.788 0v-0.758h-1.515v0.758h1.515zm3.788 0v-0.758h-0.758v0.724-0.724h-0.757v0.758h1.515zm3.788 0v-0.758h-0.758v0.747-0.747h-0.758v0.758h1.516zm3.787 0v-0.758h-1.515v0.758h1.515zm2.273 0h1.515v-0.758h-1.515v0.758zm3.788 0h1.515v-0.758h-1.515v0.758zm5.303 0v-0.758h-0.757v0.471-0.471h-0.758v0.758h1.515zm2.273 0h1.515v-0.758h-1.515v0.758zm5.303 0v-0.758h-1.515v0.758h1.515zm3.788 0v-0.758h-1.515v0.758h1.515zm2.273 0h1.515v-0.758h-0.758v0.747-0.747h-0.757v0.758zm2.251-2.294h-0.758v0.758h0.758v-0.758zm0 0v-0.758h-0.758v0.758h0.758zm-58.301-2.263v1.516h0.758v-1.516h-0.758zm58.301-1.547v0.78h-0.758v-0.758-0.022h0.758zm-44.697 0h-1.515v0.758h1.515v-0.758zm3.788 0h-1.515v0.758h1.515v-0.758zm-15.152 0h-1.515v0.758h1.515v-0.758zm3.788 0h-1.515v0.758h1.515v-0.758zm3.031 0h-0.758v0.758h0.758v-0.758zm0.757 0h-0.757v0.758h0.757v-0.758zm11.364 0h-1.515v0.758h1.515v-0.758zm3.788 0h-1.515v0.758h1.515v-0.758zm3.788 0h-1.516v0.758h1.516v-0.758zm3.787 0h-1.515v0.758h1.515v-0.758zm3.788 0h-1.515v0.758h1.515v-0.758zm3.788 0h-1.515v0.758h1.515v-0.758zm3.788 0h-1.515v0.758h1.515v-0.758zm3.788 0h-1.515v0.758h1.515v-0.758zm3.788 0h-1.515v0.758h1.515v-0.758zm3.788 0h-1.515v0.758h1.515v-0.758z"/>
  </g>
  <g class="yang statico" transform="matrix(15.84,0,0,15.84,-8051.5,-12848)">
    <rect x="508.29" y="814.89" width="58.301" height="6.104" />
  </g>
  <g class="yin statico" transform="matrix(15.84,0,0,15.84,-8051.2,-12656)">
    <path d="m530.65 802.78v6.055h-22.363v-6.055h22.363zm35.937 0v6.055h-22.363v-6.055h22.363z" />
  </g>
  <g class="modificatore yang">
    <path d="m461.74 0c59.708 0 108.18 48.475 108.18 108.18 0 59.706-48.474 108.18-108.18 108.18-59.707 0-108.18-48.475-108.18-108.18 0-59.707 48.474-108.18 108.18-108.18zm50.403 158.57c-27.81 27.811-72.966 27.811-100.78 0-27.811-27.81-27.811-72.966 0-100.78 27.81-27.811 72.966-27.811 100.78 0 27.811 27.81 27.811 72.966 0 100.78z" />
  </g>
  <g class="modificatore yin">
    <path transform="translate(.042211 -12.342)" d="m461.71 94.524-63.222-63.222-25.998 25.998 63.221 63.222-63.221 63.222 25.998 25.998 63.222-63.222 63.221 63.222 25.999-25.998-63.222-63.222 63.222-63.222-25.999-25.998-63.221 63.222z"/>
  </g>
</svg>
