<?xml version="1.0" standalone="no"?>
<!DOCTYPE svg PUBLIC "-//W3C//DTD SVG 20010904//EN" "http://www.w3.org/TR/2001/REC-SVG-20010904/DTD/svg10.dtd">
<svg version="1.0" xmlns="http://www.w3.org/2000/svg" width="512px" height="512px" viewBox="0 0 512 512">
<g transform="translate(0,512) scale(0.1,-0.1)" fill="#000000">
<path d="M1440 4640 l0 -160 480 0 480 0 0 -1920 0 -1920 -480 0 -480 0 0
-160 0 -160 480 0 480 0 0 160 0 160 160 0 160 0 0 -160 0 -160 480 0 480 0 0
160 0 160 -480 0 -480 0 0 1920 0 1920 480 0 480 0 0 160 0 160 -480 0 -480 0
0 -160 0 -160 -160 0 -160 0 0 160 0 160 -480 0 -480 0 0 -160z"/>
</g>
</svg>
