<?xml version="1.0" encoding="UTF-8" standalone="no"?>
<!-- Created with Inkscape (http://www.inkscape.org/) -->

<svg
   xmlns:dc="http://purl.org/dc/elements/1.1/"
   xmlns:cc="http://creativecommons.org/ns#"
   xmlns:rdf="http://www.w3.org/1999/02/22-rdf-syntax-ns#"
   xmlns:svg="http://www.w3.org/2000/svg"
   xmlns="http://www.w3.org/2000/svg"
   xmlns:sodipodi="http://sodipodi.sourceforge.net/DTD/sodipodi-0.dtd"
   xmlns:inkscape="http://www.inkscape.org/namespaces/inkscape"
   width="500"
   height="500"
   viewBox="0 0 132.29166 132.29167"
   version="1.1"
   id="svg4570"
   inkscape:version="0.92.4 (5da689c313, 2019-01-14)"
   sodipodi:docname="logo_bf_bak.svg">
  <defs
     id="defs4564">
    <clipPath
       clipPathUnits="userSpaceOnUse"
       id="clipPath4541">
      <g
         style="fill:#ffffff"
         id="use4543"
         inkscape:label="Clip" />
    </clipPath>
  </defs>
  <sodipodi:namedview
     id="base"
     pagecolor="#ffffff"
     bordercolor="#666666"
     borderopacity="1.0"
     inkscape:pageopacity="0.0"
     inkscape:pageshadow="2"
     inkscape:zoom="0.5"
     inkscape:cx="-451.21167"
     inkscape:cy="370.03715"
     inkscape:document-units="mm"
     inkscape:current-layer="layer1"
     showgrid="false"
     units="px"
     inkscape:window-width="1600"
     inkscape:window-height="837"
     inkscape:window-x="-8"
     inkscape:window-y="-8"
     inkscape:window-maximized="1"
     inkscape:pagecheckerboard="true"
     showguides="true"
     inkscape:guide-bbox="true">
    <sodipodi:guide
       position="70.083574,102.31624"
       orientation="0,1"
       id="guide819"
       inkscape:locked="false" />
    <sodipodi:guide
       position="32.187181,102.23046"
       orientation="1,0"
       id="guide821"
       inkscape:locked="false" />
  </sodipodi:namedview>
  <metadata
     id="metadata4567">
    <rdf:RDF>
      <cc:Work
         rdf:about="">
        <dc:format>image/svg+xml</dc:format>
        <dc:type
           rdf:resource="http://purl.org/dc/dcmitype/StillImage" />
        <dc:title />
      </cc:Work>
    </rdf:RDF>
  </metadata>
  <g
     inkscape:label="Livello 1"
     inkscape:groupmode="layer"
     id="layer1"
     transform="translate(0,-164.70832)">
    <path
       style="display:inline;fill:#003c5f;fill-opacity:1;stroke-width:0.39089426"
       d="M 129.90615,230.40052 A 63.799526,63.799526 0 0 1 66.106623,294.20004 63.799526,63.799526 0 0 1 2.3070965,230.40052 63.799526,63.799526 0 0 1 66.106623,166.60099 63.799526,63.799526 0 0 1 129.90615,230.40052 Z"
       id="path4545"
       inkscape:connector-curvature="0"
       inkscape:label="sfondo" />
    <path
       sodipodi:nodetypes="csscccccccscsscscscscsssccccccccscsscccc"
       inkscape:connector-curvature="0"
       id="path21"
       d="m 66.738628,267.34922 c 4.8872,-2.40596 8.10968,-6.49751 9.79585,-12.4377 0.42017,-1.48021 0.83269,-6.10656 0.99986,-11.21329 l 0.28458,-8.69345 h 4.71892 4.718907 v -2.01588 -2.01587 h -4.816897 -4.81689 l 0.15518,-13.98512 c 0.13689,-12.3358 0.2638,-14.20341 1.07608,-15.83606 1.08175,-2.17425 3.39906,-3.44073 6.29561,-3.44073 2.796737,0 3.618817,-0.41295 3.618817,-1.81781 v -1.206 H 61.104316 c -22.692673,0 -27.711028,0.12168 -27.924146,0.67705 -0.14289,0.37237 -0.424442,4.00095 -0.625667,8.06349 l -0.36586,7.38645 h 1.308276 c 1.121138,0 1.383085,-0.30638 1.831244,-2.14186 1.038397,-4.25284 2.59523,-6.57937 5.311518,-7.93751 2.429384,-1.21469 2.872619,-1.25992 12.347222,-1.25992 15.761935,0 15.302235,-0.54062 15.534125,18.26885 l 0.16309,13.22917 h -6.084722 -6.08471 v 2.01587 2.01588 h 6.04761 6.047622 l -0.009,9.19742 c -0.0127,13.34252 -1.33924,18.36307 -5.359082,20.28242 -3.97846,1.89959 -7.90657,0.28483 -9.256368,-3.8051 -1.106649,-3.35324 -2.270564,-4.50808 -4.543521,-4.50808 -2.882855,0 -4.170156,1.53853 -3.882723,4.64046 0.288583,3.11434 2.272736,5.69215 5.604581,7.28145 2.284911,1.08992 3.351035,1.46507 7.628285,1.31909 3.929333,-0.14494 5.007466,-0.61643 7.946308,-2.06322 z"
       style="fill:#ffffff;fill-opacity:1;stroke-width:0.50396824"
       inkscape:label="F" />
  </g>
</svg>
