<?xml version="1.0" encoding="UTF-8" standalone="no"?>
<!-- Created with Inkscape (http://www.inkscape.org/) -->

<svg
   xmlns:dc="http://purl.org/dc/elements/1.1/"
   xmlns:cc="http://creativecommons.org/ns#"
   xmlns:rdf="http://www.w3.org/1999/02/22-rdf-syntax-ns#"
   xmlns:svg="http://www.w3.org/2000/svg"
   xmlns="http://www.w3.org/2000/svg"
   xmlns:sodipodi="http://sodipodi.sourceforge.net/DTD/sodipodi-0.dtd"
   xmlns:inkscape="http://www.inkscape.org/namespaces/inkscape"
   width="500"
   height="500"
   viewBox="0 0 132.29166 132.29167"
   version="1.1"
   id="svg4570"
   inkscape:version="0.92.4 (5da689c313, 2019-01-14)"
   sodipodi:docname="logo_fm.svg">
  <defs
     id="defs4564">
    <clipPath
       clipPathUnits="userSpaceOnUse"
       id="clipPath4541">
      <g
         style="fill:#ffffff"
         id="use4543"
         inkscape:label="Clip">
        <path
           style="fill:#ffffff;fill-opacity:1;stroke-width:0.50396824"
           d="m 102.49925,124.5407 c 4.8872,-2.40596 8.10968,-6.49751 9.79585,-12.4377 0.42017,-1.48021 0.83269,-6.10656 0.99986,-11.21329 l 0.28458,-8.69345 h 4.71892 4.71891 v -2.01588 -2.01587 h -4.8169 -4.81689 l 0.15518,-13.98512 c 0.13689,-12.335799 0.2638,-14.203406 1.07608,-15.836055 1.08175,-2.174255 3.39906,-3.440729 6.29561,-3.440729 2.79674,0 3.61882,-0.412948 3.61882,-1.817808 V 51.878797 H 96.864938 c -22.692673,0 -27.711028,0.121674 -27.924146,0.677046 -0.14289,0.372376 -0.424442,4.000947 -0.625667,8.063492 l -0.36586,7.386445 h 1.308276 c 1.121138,0 1.383085,-0.30638 1.831244,-2.14186 1.038397,-4.252834 2.59523,-6.579361 5.311518,-7.937505 2.429384,-1.214692 2.872619,-1.25992 12.347222,-1.25992 15.761935,0 15.302235,-0.54062 15.534125,18.268845 l 0.16309,13.22917 h -6.084722 -6.08471 v 2.01587 2.01588 h 6.04761 6.047622 l -0.009,9.19742 c -0.0127,13.34252 -1.33924,18.36307 -5.359082,20.28242 -3.97846,1.89959 -7.90657,0.28483 -9.256368,-3.8051 -1.106649,-3.35324 -2.270564,-4.50808 -4.543521,-4.50808 -2.882855,0 -4.170156,1.53853 -3.882723,4.64046 0.288583,3.11434 2.272736,5.69215 5.604581,7.28145 2.284911,1.08992 3.351035,1.46507 7.628285,1.31909 3.929333,-0.14494 5.007466,-0.61643 7.946308,-2.06322 z"
           id="path5190"
           inkscape:connector-curvature="0"
           sodipodi:nodetypes="csscccccccscsscscscscsssccccccccscsscccc" />
      </g>
    </clipPath>
  </defs>
  <sodipodi:namedview
     id="base"
     pagecolor="#ffffff"
     bordercolor="#666666"
     borderopacity="1.0"
     inkscape:pageopacity="0.0"
     inkscape:pageshadow="2"
     inkscape:zoom="0.91618056"
     inkscape:cx="-75.723709"
     inkscape:cy="274.75954"
     inkscape:document-units="mm"
     inkscape:current-layer="layer1"
     showgrid="false"
     units="px"
     inkscape:window-width="1600"
     inkscape:window-height="837"
     inkscape:window-x="-8"
     inkscape:window-y="-8"
     inkscape:window-maximized="1"
     inkscape:pagecheckerboard="true" />
  <metadata
     id="metadata4567">
    <rdf:RDF>
      <cc:Work
         rdf:about="">
        <dc:format>image/svg+xml</dc:format>
        <dc:type
           rdf:resource="http://purl.org/dc/dcmitype/StillImage" />
        <dc:title />
      </cc:Work>
    </rdf:RDF>
  </metadata>
  <g
     inkscape:label="Livello 1"
     inkscape:groupmode="layer"
     id="layer1"
     transform="translate(0,-164.70832)">
    <path
       style="display:inline;fill:#fe0044;fill-opacity:1;stroke-width:0.39089426"
       d="M 129.94536,230.85416 A 63.799526,63.799526 0 0 1 66.145836,294.65368 63.799526,63.799526 0 0 1 2.3463097,230.85416 63.799526,63.799526 0 0 1 66.145836,167.05463 63.799526,63.799526 0 0 1 129.94536,230.85416 Z"
       id="path4545"
       inkscape:connector-curvature="0"
       inkscape:label="sfondo" />
    <path
       style="fill:#ffffff;stroke-width:0.30072612"
       d="m 43.872262,276.36844 c -0.113138,-0.11309 -0.205706,-13.02423 -0.205706,-28.69134 0,-24.34524 0.06706,-28.83914 0.461367,-30.91776 1.44255,-7.60452 5.117282,-14.39692 10.937673,-20.21733 3.46001,-3.46 6.2098,-5.4588 10.408184,-7.56563 5.672532,-2.84658 10.820432,-3.89889 18.422347,-3.76583 l 4.728984,0.0828 v 7.36779 7.36779 l -5.864164,0.18452 c -6.565244,0.20656 -7.745982,0.45633 -11.404841,2.41252 -4.115637,2.20039 -6.669196,4.57505 -9.303483,8.65163 -2.104986,3.2575 -2.797989,3.0157 8.90482,3.10701 l 10.149507,0.0792 v 7.3678 7.36778 l -11.12686,0.15036 -11.126867,0.15036 -0.150364,23.45664 -0.150362,23.45663 -7.237265,0.0804 c -3.980497,0.0442 -7.329834,-0.0122 -7.44297,-0.1253 z"
       id="path4627"
       inkscape:connector-curvature="0"
       inkscape:label="F" />
  </g>
</svg>
