<?xml version="1.0" encoding="UTF-8" standalone="no"?>
<!-- Created with Inkscape (http://www.inkscape.org/) -->

<svg
   xmlns:dc="http://purl.org/dc/elements/1.1/"
   xmlns:cc="http://creativecommons.org/ns#"
   xmlns:rdf="http://www.w3.org/1999/02/22-rdf-syntax-ns#"
   xmlns:svg="http://www.w3.org/2000/svg"
   xmlns="http://www.w3.org/2000/svg"
   xmlns:sodipodi="http://sodipodi.sourceforge.net/DTD/sodipodi-0.dtd"
   xmlns:inkscape="http://www.inkscape.org/namespaces/inkscape"
   version="1.1"
   id="svg3713"
   width="110.4"
   height="110.4"
   viewBox="0 0 110.4 110.4"
   sodipodi:docname="occhiali.svg"
   inkscape:version="0.92.4 (5da689c313, 2019-01-14)">
  <metadata
     id="metadata3719">
    <rdf:RDF>
      <cc:Work
         rdf:about="">
        <dc:format>image/svg+xml</dc:format>
        <dc:type
           rdf:resource="http://purl.org/dc/dcmitype/StillImage" />
        <dc:title></dc:title>
      </cc:Work>
    </rdf:RDF>
  </metadata>
  <defs
     id="defs3717" />
  <sodipodi:namedview
     pagecolor="#ffffff"
     bordercolor="#666666"
     borderopacity="1"
     objecttolerance="10"
     gridtolerance="10"
     guidetolerance="10"
     inkscape:pageopacity="0"
     inkscape:pageshadow="2"
     inkscape:window-width="1600"
     inkscape:window-height="837"
     id="namedview3715"
     showgrid="false"
     inkscape:zoom="3.2221652"
     inkscape:cx="1.6190884"
     inkscape:cy="31.261468"
     inkscape:window-x="-8"
     inkscape:window-y="-8"
     inkscape:window-maximized="1"
     inkscape:current-layer="svg3713" />
  <path
     style="fill:#000000;stroke-width:0.23571216"
     d="m 31.323493,91.134665 c -1.320547,-0.129553 -3.903021,-1.03335 -4.579761,-1.602791 -0.370678,-0.311903 -0.776511,-0.5671 -0.901848,-0.5671 -0.222833,0 -1.66755,-1.389948 -2.93007,-2.818989 -0.348245,-0.394182 -0.857746,-0.716693 -1.132224,-0.716693 -0.693586,0 -2.073474,-1.1331 -2.583457,-2.12141 -0.569685,-1.104006 -0.752397,-2.04027 -0.763188,-3.910771 -0.0068,-1.179287 -0.112686,-1.667526 -0.430548,-1.985392 -0.231839,-0.231839 -0.492181,-0.644138 -0.578536,-0.91622 -0.08636,-0.272083 -0.349015,-0.494694 -0.583687,-0.494694 -0.506265,0 -1.056208,-0.589732 -0.854419,-0.916236 0.07809,-0.126357 0.03419,-0.296376 -0.09756,-0.377804 -0.382661,-0.236498 -0.277094,-1.017793 0.172939,-1.279913 0.350992,-0.204433 0.313536,-0.241326 -0.251207,-0.247424 -0.848035,-0.0091 -1.575569,-0.397249 -1.575569,-0.840454 0,-0.24139 0.264002,-0.345275 0.877441,-0.345275 0.858393,0 0.866157,-0.008 0.357671,-0.364058 -0.389573,-0.272867 -0.634997,-0.30239 -0.979798,-0.117856 -0.253019,0.135417 -0.573078,0.246202 -0.711244,0.246202 -0.385896,0 -0.297916,-0.939721 0.102358,-1.09332 0.528187,-0.202685 0.427814,-0.540107 -0.235712,-0.792378 -0.564549,-0.214642 -0.865449,-1.17856 -0.367904,-1.17856 0.21041,0 1.181767,-0.776405 3.550018,-2.837534 0.583388,-0.507733 1.644093,-1.153801 2.357122,-1.435711 0.713029,-0.281908 1.764624,-0.867705 2.336877,-1.301772 0.572251,-0.434067 1.193505,-0.789212 1.380563,-0.789212 0.20037,0 0.286181,-0.140514 0.208857,-0.342018 -0.09101,-0.237176 0.260531,-0.533698 1.146778,-0.967299 0.70291,-0.343901 1.741972,-1.065074 2.309022,-1.602604 1.29635,-1.228865 4.05499,-2.980882 4.693543,-2.980882 0.265644,0 0.620811,-0.185624 0.789258,-0.412497 0.263696,-0.355155 0.376939,-0.3693 0.81463,-0.101754 0.426757,0.260858 0.57095,0.255206 0.898276,-0.03522 0.214457,-0.190279 0.929896,-0.648322 1.589869,-1.017876 0.659975,-0.369552 2.09892,-1.275659 3.19766,-2.013571 2.427085,-1.630029 6.578069,-3.775972 8.403567,-4.344411 0.737855,-0.229759 1.447625,-0.535426 1.577266,-0.67926 0.129642,-0.143829 0.626307,-0.547085 1.103699,-0.896114 0.477392,-0.349031 0.935338,-0.846813 1.017661,-1.106183 0.08232,-0.25937 0.301632,-0.471582 0.487358,-0.471582 0.185725,0 0.337684,-0.107455 0.337684,-0.238776 0,-0.339754 3.902088,-2.069034 5.951732,-2.637619 0.486156,-0.134857 0.883921,-0.325687 0.883921,-0.424052 0,-0.09837 0.763306,-0.695369 1.696236,-1.326672 l 1.696236,-1.147829 h 2.134086 c 2.432828,0 4.710689,0.500435 6.231573,1.369049 1.048527,0.598839 2.62031,1.950184 2.62031,2.252819 0,0.09116 0.344729,0.367602 0.766065,0.614325 0.421335,0.24672 1.190346,0.915939 1.708913,1.48715 1.0364,1.141618 3.149824,2.844673 4.220149,3.400723 0.394744,0.205072 0.793834,0.676575 0.942849,1.113911 0.24654,0.723574 0.603526,0.990419 2.556578,1.911026 0.65718,0.309777 0.893422,0.933121 0.353568,0.932904 -0.329673,-1.34e-4 -2.472429,-0.774602 -3.667195,-1.325449 -0.815137,-0.375825 -1.165081,-0.262006 -1.837957,0.597801 -0.416577,0.532303 -0.966101,0.137096 -1.756329,-1.263109 -0.404949,-0.717528 -1.195836,-1.791122 -1.757529,-2.385762 -0.56169,-0.594643 -1.182541,-1.421051 -1.379667,-1.836464 -0.861032,-1.814484 -1.843452,-2.301021 -4.653542,-2.304636 -2.327588,-0.0029 -3.646591,0.264317 -5.330116,1.080217 -1.15534,0.55992 -3.129955,1.143055 -3.129955,0.924326 0,-0.05438 -0.318212,0.06571 -0.707137,0.266822 -0.388925,0.201121 -0.707136,0.315328 -0.707136,0.253793 0,-0.06154 -0.375917,0.04518 -0.835369,0.237157 -0.459453,0.191971 -0.933773,0.288221 -1.054045,0.213888 -0.120273,-0.07434 -0.460335,0.01831 -0.755689,0.205899 -0.295356,0.187575 -1.226469,0.416194 -2.06914,0.508039 -1.548296,0.168754 -1.947469,0.320376 -4.714244,1.790678 -0.842671,0.447806 -2.142034,1.073723 -2.887473,1.390928 -0.74544,0.317203 -1.355345,0.65821 -1.355345,0.757793 0,0.09959 -0.218402,0.181061 -0.485336,0.181061 -0.279842,0 -0.420381,0.105098 -0.331923,0.248224 0.159336,0.257811 -2.455482,2.975278 -3.896984,4.049968 -0.453746,0.338282 -1.130756,0.691382 -1.504466,0.784666 -0.703406,0.175582 -2.393856,1.174875 -4.777813,2.824355 -2.407995,1.666113 -3.531663,2.215009 -5.493849,2.683664 -2.89629,0.69176 -3.540039,0.944797 -5.077292,1.99572 -0.77785,0.53177 -2.209801,1.353903 -3.182114,1.826968 -0.972312,0.473063 -2.375551,1.347972 -3.118306,1.944242 -1.262943,1.013865 -1.333054,1.122342 -1.081798,1.673791 0.147768,0.324313 0.345341,0.589662 0.439053,0.589662 0.283723,0 0.413453,0.850843 0.190484,1.249271 -0.183974,0.328742 0.0522,0.373918 1.975447,0.377873 1.201419,0.0025 2.343506,0.02532 2.537969,0.0508 0.194463,0.02547 0.864071,0.0296 1.488018,0.0091 1.032358,-0.03379 1.127812,-0.08486 1.060705,-0.567484 -0.05862,-0.421515 0.04719,-0.537274 0.515535,-0.564071 0.324104,-0.01855 0.960527,-0.193593 1.414273,-0.388994 2.047674,-0.881808 6.672462,-1.39827 10.437959,-1.165632 2.726286,0.168435 2.66345,0.641178 -0.08727,0.656649 -1.090594,0.0062 -2.279522,0.08895 -2.642062,0.184025 -0.362541,0.09508 -1.795692,0.322771 -3.184785,0.505983 -3.856134,0.508598 -4.069181,0.736142 -0.715616,0.764317 1.600267,0.01341 3.121722,0.0485 3.381005,0.0779 0.259283,0.0294 1.300462,-0.05776 2.313727,-0.193701 1.221904,-0.163926 2.095048,-0.169244 2.592834,-0.01579 0.412794,0.127255 2.129447,0.266684 3.814789,0.309851 3.217891,0.08243 3.88925,0.207655 3.88925,0.725488 0,0.229214 0.255517,0.284441 0.936334,0.202378 0.653903,-0.07882 1.219859,0.03179 1.876306,0.366678 1.105097,0.563779 1.616789,0.590827 2.241296,0.118475 0.25165,-0.190339 0.717532,-0.346073 1.035292,-0.346073 0.317759,0 1.278636,-0.20188 2.135285,-0.44862 0.856647,-0.246744 1.964609,-0.518471 2.462137,-0.603842 0.497527,-0.08537 1.34609,-0.387324 1.885697,-0.671011 0.798481,-0.419784 1.334626,-0.508871 2.88036,-0.478613 2.233366,0.04372 3.489703,0.219377 4.168935,0.582893 0.270433,0.144727 0.968381,0.253579 1.550995,0.241884 0.837591,-0.01681 1.345217,-0.221822 2.425403,-0.979529 0.751356,-0.527048 1.76856,-1.126426 2.260451,-1.331951 1.274642,-0.53258 4.459644,-0.943239 5.844794,-0.753604 0.648209,0.08875 1.836297,0.229573 2.640193,0.312952 0.896546,0.09299 2.035669,0.431844 2.946402,0.876468 0.816625,0.398679 1.856012,0.723763 2.309758,0.722413 1.465923,-0.0044 4.563476,-0.297066 5.816197,-0.549597 0.930135,-0.187498 1.333409,-0.174947 1.698189,0.05286 1.200938,0.749999 0.732932,-0.467501 -0.807477,-2.100626 -1.030739,-1.092779 -1.572524,-2.307747 -2.075371,-4.654135 -0.222277,-1.037133 -0.557548,-2.469084 -0.745072,-3.182114 -0.75749,-2.880308 -1.123699,-4.395698 -1.224657,-5.067811 -0.05849,-0.388925 -0.297027,-1.343559 -0.53022,-2.121409 -0.233193,-0.777851 -0.550741,-1.891591 -0.705678,-2.474978 -0.154922,-0.583388 -0.532547,-1.591057 -0.839179,-2.239266 -0.664591,-1.404904 -1.058156,-2.610213 -1.058156,-3.240541 0,-0.421961 -0.431722,-1.58351 -0.962664,-2.590085 -0.11874,-0.225115 -0.217149,-0.596362 -0.218681,-0.824992 -0.0088,-1.28689 -1.783443,-7.030754 -2.656418,-8.597 -0.310079,-0.55631 -0.52356,-1.13106 -0.4744,-1.277228 0.04921,-0.146171 -0.182942,-0.861089 -0.515753,-1.588713 -0.547117,-1.196109 -0.779735,-1.42528 -2.426073,-2.390094 -1.001511,-0.586926 -2.40432,-1.282921 -3.117349,-1.546656 -0.713029,-0.263734 -1.425709,-0.648907 -1.583734,-0.855937 -0.234215,-0.306852 -0.473814,-0.336528 -1.296417,-0.160567 l -1.0091,0.215853 1.634704,0.555354 c 2.071407,0.703713 4.031425,1.878947 3.694897,2.215476 -0.166818,0.166818 -0.375202,0.08325 -0.664876,-0.266664 -0.30971,-0.374107 -1.268115,-0.720701 -3.60402,-1.303346 -2.195844,-0.547709 -3.204016,-0.903917 -3.252778,-1.149274 -0.0779,-0.391973 -1.866282,-0.722349 -2.885501,-0.533051 -1.395367,0.259158 -5.533058,0.312516 -5.819198,0.07504 -0.164756,-0.136743 -0.299555,-0.5008 -0.299555,-0.809029 0,-0.48425 0.120139,-0.565163 0.883921,-0.595319 1.096356,-0.04328 1.275246,-0.06137 2.918154,-0.29504 1.170928,-0.166535 1.312577,-0.244282 1.203689,-0.660667 -0.175475,-0.671012 0.309349,-0.884622 2.065601,-0.910091 0.842671,-0.01223 1.373023,-0.08038 1.17856,-0.151467 -0.620634,-0.226877 -1.414273,-1.079909 -1.414273,-1.520116 0,-0.255104 0.231084,-0.483844 0.576345,-0.570499 0.848751,-0.213022 2.985882,0.314144 3.595575,0.886922 0.291364,0.273722 1.380024,0.789062 2.419243,1.1452 1.622067,0.555878 2.024482,0.613258 2.843296,0.40542 0.524595,-0.133148 1.013655,-0.182254 1.086801,-0.109105 0.266252,0.26625 -0.193331,0.636222 -0.812045,0.653715 -0.61049,0.01725 -0.604554,0.0287 0.158128,0.304705 0.435833,0.157726 0.924845,0.467865 1.086692,0.689204 0.161844,0.221336 0.574265,0.402431 0.916486,0.402431 0.342224,0 0.630945,0.132588 0.641607,0.29464 0.01061,0.162052 0.06862,0.596044 0.128802,0.964427 0.06018,0.368382 -0.0075,0.810721 -0.150498,0.982975 -0.20025,0.241287 0.04075,0.667615 1.049762,1.857022 0.720306,0.849107 1.30966,1.609578 1.30966,1.689932 0,0.08035 0.187878,0.322207 0.417491,0.53745 0.229613,0.215244 0.314469,0.311798 0.18857,0.214566 -0.79326,-0.612617 -0.658551,0.367557 0.34825,2.533906 0.361508,0.77785 0.878602,1.918109 1.149111,2.533907 0.345421,0.786342 0.629042,1.119633 0.952778,1.119633 0.293138,0 0.74186,0.429095 1.232509,1.178561 0.424356,0.648208 0.847798,1.17856 0.940993,1.17856 0.259976,0 -2.006927,-6.456072 -2.342228,-6.670581 -0.383636,-0.245433 -0.383636,-0.940935 0,-0.814025 0.332782,0.110092 0.465458,0.351973 1.907472,3.4775 0.568213,1.231596 1.265965,3.087829 1.550558,4.124962 0.284593,1.037134 0.622575,2.225839 0.751082,2.641568 0.333062,1.077505 0.458475,1.735329 0.485052,2.5441 0.01326,0.388925 0.101209,0.813207 0.196525,0.942848 0.09532,0.129642 0.403259,0.978206 0.684316,1.885698 1.037929,3.35134 1.522082,4.675607 2.178938,5.959998 0.370024,0.723526 0.672767,1.418664 0.672767,1.544754 0,0.126091 0.265176,0.576914 0.58928,1.001837 0.324104,0.424923 0.589281,0.88926 0.589281,1.031861 0,0.142606 0.281175,0.812621 0.624828,1.488927 0.343654,0.67631 0.643421,1.607697 0.666138,2.069749 0.02269,0.462052 0.09649,0.939369 0.163834,1.060705 0.06733,0.121333 0.259799,0.750963 0.427612,1.399171 0.321658,1.242601 1.638494,4.734635 2.399166,6.362216 0.358401,0.766855 -0.06143,1.769853 -0.740843,1.769853 -0.615783,0 -0.619643,0.629926 -0.0044,0.824993 0.569157,0.180641 0.632549,1.171171 0.138334,2.161236 -0.183207,0.36702 -0.514766,1.091592 -0.736807,1.610158 -0.750257,1.752254 -0.932889,2.083369 -1.197373,2.170783 -0.166501,0.05502 -0.22154,-0.133531 -0.149309,-0.511456 0.09708,-0.508104 0.02784,-0.598622 -0.457989,-0.598622 -0.923476,0 -2.384066,2.347038 -2.27365,3.653538 0.02195,0.259284 -0.157456,1.107848 -0.398589,1.885698 -0.241148,0.77785 -0.416798,1.496381 -0.390325,1.596736 0.05672,0.21491 -0.756105,1.783615 -1.187827,2.292514 -0.744128,0.877144 -3.284281,2.596592 -4.896331,3.314356 l -1.767841,0.78713 -4.478531,0.0016 c -6.292216,0.0021 -8.038416,-0.277933 -9.428492,-1.51272 -0.259283,-0.23032 -1.028294,-0.655256 -1.708913,-0.944304 -0.680619,-0.289048 -1.237489,-0.600571 -1.237489,-0.692269 0,-0.09171 -0.46937,-0.503807 -1.043047,-0.915789 -2.52377,-1.812433 -4.484939,-4.288741 -4.397485,-5.552561 0.09068,-1.310413 0.05613,-1.52307 -0.423625,-2.607639 -0.468073,-1.058159 -0.877957,-1.305532 -1.361683,-0.821806 -0.322058,0.322059 -1.422816,0.04468 -1.795648,-0.452478 -0.159029,-0.21206 -0.78232,-0.781696 -1.385091,-1.265859 -1.078882,-0.866584 -1.115597,-0.876792 -2.357122,-0.655336 -0.693645,0.123734 -1.571216,0.277508 -1.95016,0.341731 -0.378943,0.06422 -1.068401,0.423806 -1.532129,0.799073 -0.805539,0.65188 -0.845569,0.754737 -0.89758,2.306408 -0.152899,4.56145 -1.385908,7.124049 -3.952668,8.214941 -2.048465,0.870615 -4.287177,1.861978 -5.149014,2.280125 -0.498407,0.241817 -1.108313,0.439667 -1.355345,0.439667 -0.247032,0 -0.449149,0.110873 -0.449149,0.246391 0,0.27767 1.242792,0.105967 2.651761,-0.36636 0.486157,-0.162973 0.883921,-0.21149 0.883921,-0.107824 0,0.10367 -0.132588,0.242 -0.29464,0.30739 -0.235712,0.09511 -0.235712,0.122614 0,0.137494 0.611302,0.03861 0.255923,0.456318 -0.817506,0.960888 -0.955114,0.448956 -1.346173,0.500876 -2.769618,0.367703 -0.911609,-0.08528 -1.856377,-0.214144 -2.099485,-0.286352 -0.260531,-0.07739 -0.382571,-0.03511 -0.297236,0.102977 0.07963,0.128846 -7.07e-4,0.354944 -0.178378,0.502453 -0.362278,0.300665 -2.946891,0.647327 -4.032328,0.540837 z m 2.592834,-1.159951 c 0.352429,-0.106866 0.17394,-0.216982 -0.707137,-0.436282 -0.648208,-0.161339 -2.292301,-0.61851 -3.653538,-1.015937 -3.745133,-1.093428 -3.973374,-0.92783 -0.994072,0.721237 1.405174,0.777775 1.769027,0.876258 3.233337,0.875159 0.907492,-7.07e-4 1.862126,-0.06556 2.12141,-0.144182 z m 42.646999,-1.893861 c -0.117326,-0.09723 -0.276959,-0.261357 -0.354732,-0.364724 -0.07777,-0.103375 -0.277617,-0.02382 -0.444101,0.176784 -0.260873,0.314332 -0.211861,0.364724 0.354732,0.364724 0.361586,0 0.561431,-0.07955 0.444101,-0.176784 z M 36.504249,87.653727 c 0.819901,-0.153814 0.834503,-0.173476 0.370308,-0.498611 -0.952784,-0.667356 -0.59734,-0.944375 0.895039,-0.697561 1.346414,0.222673 1.411182,0.207965 2.800452,-0.635972 0.782187,-0.475153 1.673462,-0.860542 1.980606,-0.85642 0.549242,0.0074 0.550676,0.01341 0.08702,0.363833 -0.259283,0.195986 -0.683565,0.505261 -0.942848,0.687278 -0.259284,0.182017 -0.353772,0.336503 -0.20997,0.343303 0.478309,0.02263 2.447282,-1.903753 3.567253,-3.490069 0.607852,-0.860958 1.198946,-1.631221 1.313542,-1.711694 0.1146,-0.08047 0.28153,-0.504114 0.370968,-0.941426 0.19438,-0.950412 0.971938,-1.275368 0.96369,-0.402742 -0.0066,0.705778 -0.74983,2.339711 -1.253884,2.756833 -0.215008,0.177927 -0.390924,0.461495 -0.390924,0.630155 0,0.168659 -0.370547,0.792094 -0.823434,1.385409 -0.73227,0.959324 -0.771415,1.078761 -0.353569,1.078761 0.258425,0 0.469866,-0.08814 0.469866,-0.195881 0,-0.107736 0.238659,-0.324152 0.530352,-0.480927 1.436897,-0.772277 2.118696,-3.13861 2.194179,-7.615378 l 0.04642,-2.752948 -0.65533,-0.271447 c -0.382475,-0.158426 -1.327363,-0.225981 -2.269394,-0.162252 -0.887736,0.06006 -2.144419,0.01846 -2.792627,-0.09243 -0.648209,-0.110888 -1.540882,-0.262137 -1.983716,-0.33609 -0.442838,-0.07395 -0.872182,-0.175885 -0.954103,-0.226516 -0.08192,-0.05063 -0.29444,-0.0021 -0.472264,0.107764 -0.244427,0.151064 -0.269891,0.386112 -0.104362,0.963281 0.297065,1.035804 1.493864,1.470922 4.035507,1.467183 1.782725,-0.0027 1.917635,0.03023 1.710872,0.416565 -0.123454,0.230675 -0.517037,0.483007 -0.874629,0.56074 -1.136235,0.246994 -3.147343,0.204787 -3.423987,-0.07186 -0.146775,-0.146775 -0.415247,-0.266869 -0.596599,-0.266869 -0.676207,0 -1.894827,-0.758235 -2.019969,-1.256845 -0.12176,-0.485117 -0.261689,-0.516103 -2.319549,-0.513624 -1.204486,0.0014 -2.388398,-0.08749 -2.630918,-0.197668 -0.30166,-0.137037 -0.390335,-0.118416 -0.280728,0.05893 0.111344,0.180147 -0.408247,0.259229 -1.70318,0.259229 -1.858883,0 -2.97797,-0.3283 -3.576207,-1.049134 -0.15334,-0.184765 -0.504362,-0.280264 -0.790867,-0.215164 -0.283334,0.06438 -1.123681,0.155123 -1.867437,0.20166 -2.078706,0.130069 -3.951239,0.609543 -3.951239,1.011755 0,0.257197 0.178431,0.309836 0.697998,0.205922 0.383898,-0.07678 0.761405,-0.03701 0.838902,0.08839 0.07751,0.125399 0.02858,0.227993 -0.108723,0.227993 -0.376625,0 -0.304443,0.428445 0.280729,1.666254 0.291694,0.617019 0.715976,1.174057 0.942849,1.237861 0.43089,0.121186 0.580382,0.631567 0.184987,0.631567 -0.362172,0 -1.8939,-1.431677 -1.8939,-1.770191 0,-0.18699 -0.177355,-0.260705 -0.453499,-0.188491 -0.519969,0.135976 -0.486415,0.639253 0.119609,1.794077 0.217591,0.414637 0.51432,0.998378 0.659398,1.297201 0.210797,0.434193 0.397433,0.517529 0.929255,0.414936 0.53819,-0.103831 0.782162,0.01031 1.275517,0.596611 0.335521,0.398744 0.849695,0.816106 1.142607,0.92747 0.400207,0.152159 0.499148,0.330272 0.398109,0.716654 -0.08836,0.337913 -0.0012,0.588771 0.254397,0.731788 0.213869,0.119683 0.388854,0.369429 0.388854,0.55498 0,0.351338 0.94563,0.698987 1.446845,0.531914 0.158685,-0.05289 0.420344,-0.461015 0.581466,-0.906935 0.180069,-0.347493 0.310877,-0.155158 0.310877,-0.155158 0.0099,0.360585 0.176431,0.716428 0.370149,0.790765 0.193718,0.07434 0.29538,0.227118 0.225916,0.339513 -0.06946,0.112391 0.04303,0.462787 0.249993,0.778649 0.305318,0.465976 0.651715,0.605702 1.836566,0.740808 1.594502,0.181819 2.375743,0.482529 2.160099,0.831448 -0.07611,0.123145 -0.350509,0.223887 -0.609792,0.223887 -0.259283,0 -0.411673,0.09669 -0.338643,0.214844 0.07303,0.118166 0.411851,0.184212 0.752934,0.146775 0.341084,-0.03743 0.897499,0.01579 1.236475,0.118283 0.338978,0.102491 0.741375,0.148739 0.894223,0.102771 0.152846,-0.04598 0.662003,-0.155651 1.131459,-0.243722 z M 24.311056,80.08094 c -0.226873,-0.05928 -0.412496,-0.20982 -0.412496,-0.334516 0,-0.136625 0.187329,-0.12646 0.471424,0.02557 0.259284,0.138761 0.471425,0.301601 0.471425,0.361861 0,0.06025 -0.02652,0.09726 -0.05893,0.08222 -0.03241,-0.01504 -0.244552,-0.07586 -0.471425,-0.135139 z m 55.640815,7.202636 c 0.738427,-0.406094 1.448672,-0.81547 1.578314,-0.909724 0.129642,-0.09426 0.766064,-0.369356 1.414273,-0.611335 0.648208,-0.241981 1.526825,-0.787239 1.952477,-1.211686 0.793584,-0.791333 1.465349,-1.006566 1.465349,-0.469502 0,0.267223 -1.09394,1.33957 -2.474978,2.426125 -0.45952,0.361528 -0.45653,0.367559 0.117857,0.238766 0.324104,-0.07267 0.761615,-0.133575 0.972268,-0.135358 0.459565,-0.0038 3.506262,-2.963787 3.506262,-3.406398 0,-0.170769 0.147645,-0.433023 0.328097,-0.582784 0.180452,-0.149765 0.382664,-0.480964 0.449356,-0.735999 0.09576,-0.36626 0.0015,-0.463703 -0.445953,-0.463703 -0.311965,0 -0.756356,0.189139 -0.987531,0.420313 -0.437378,0.437375 -1.9556,1.229672 -2.356326,1.229672 -0.126695,0 -0.359019,0.310449 -0.51618,0.689886 -0.193814,0.467913 -0.677024,0.881598 -1.501796,1.285716 -1.257391,0.616091 -2.999702,1.151402 -3.17547,0.975635 -0.0551,-0.05513 -0.254304,0.05382 -0.442593,0.242101 -0.18829,0.18829 -0.576346,0.342344 -0.862339,0.342344 -0.285992,0 -0.771052,0.175849 -1.077901,0.390774 -0.532699,0.373115 -0.538359,0.405064 -0.125251,0.707136 0.589505,0.431052 0.653369,0.4187 2.182065,-0.421986 z m -5.320168,-1.970185 c 2.435885,-1.170205 5.718698,-2.378763 7.369906,-2.7132 0.77785,-0.157549 1.546287,-0.393544 1.707661,-0.524435 0.16136,-0.130894 0.521469,-0.178337 0.800258,-0.105437 0.651611,0.170401 2.584966,-1.070954 3.145284,-2.019515 0.225061,-0.380979 0.715754,-0.965846 1.090463,-1.299702 0.374694,-0.333856 0.681267,-0.748584 0.681267,-0.921619 0,-0.173032 0.08014,-0.314605 0.178169,-0.314605 0.320804,0 0.849035,-1.495995 0.865962,-2.452523 0.01591,-0.899466 -0.01886,-0.943668 -0.88918,-1.128357 -0.498177,-0.105717 -1.092938,-0.42337 -1.321697,-0.705883 -0.247173,-0.305235 -0.74043,-0.541489 -1.215656,-0.582241 -1.759208,-0.150871 -6.03426,-0.06853 -6.810372,0.131159 -0.453746,0.116751 -2.044806,0.530451 -3.535685,0.919333 -1.81166,0.472555 -3.591196,0.756816 -5.365525,0.857088 -1.460162,0.08251 -2.839078,0.210948 -3.064258,0.285405 -1.054893,0.348798 -2.88334,1.410317 -2.883839,1.67424 -2.36e-4,0.162052 -0.25275,0.29464 -0.560982,0.29464 -1.494165,0 -1.322434,1.396646 0.475564,3.867624 0.565238,0.776801 1.027705,1.512753 1.027705,1.635449 0,0.323385 1.514038,2.552866 2.081819,3.065562 0.456416,0.412135 2.048438,0.764864 3.748159,0.830445 0.438438,0.01693 1.48967,-0.320089 2.474977,-0.793431 z m 12.831519,-0.0405 c -0.06968,-0.0697 -0.251181,-0.04981 -0.403289,0.0442 -0.205055,0.126724 -0.193873,0.222295 0.04331,0.369617 0.314308,0.19528 0.61898,-0.154882 0.360051,-0.413813 z M 21.721991,83.720178 c -0.189797,-0.291693 -0.400017,-1.024499 -0.467151,-1.628454 -0.128109,-1.152475 -0.999409,-2.662532 -1.395153,-2.417947 -0.240425,0.14859 -0.133929,1.636751 0.195594,2.733032 0.248786,0.827701 1.146794,1.843722 1.629565,1.843722 0.341499,0 0.345457,-0.05653 0.03714,-0.530353 z m 43.175814,-1.386364 c -0.861988,-1.469054 -0.887957,-1.502048 -1.05263,-1.337372 -0.204134,0.204134 0.310942,1.331892 1.006373,2.203453 0.908233,1.13826 0.934436,0.647618 0.04626,-0.866081 z m -2.417146,-2.134586 c -0.07525,-0.188035 -0.1311,-0.13219 -0.142414,0.142414 -0.01017,0.248479 0.04548,0.387698 0.123808,0.309373 0.07833,-0.07833 0.0867,-0.281629 0.01859,-0.451782 z m -3.6967,-5.243443 c 0,-0.185727 -0.212141,-0.397868 -0.471424,-0.471425 -0.259284,-0.07356 -0.683566,-0.193921 -0.942849,-0.26748 -0.682024,-0.193484 -0.578623,0.193797 0.176784,0.662152 0.797718,0.494588 1.237489,0.521866 1.237489,0.07675 z M 64.912475,74.8087 c 0.233488,-0.01311 0.193461,-0.08431 -0.117856,-0.2098 -0.271013,-0.109238 -0.599102,-0.08791 -0.771761,0.05016 -0.454786,0.363679 -0.600339,0.04664 -0.174218,-0.379486 0.296212,-0.296211 0.489306,-0.319846 0.939042,-0.114925 0.768043,0.349941 1.468376,0.08956 1.065327,-0.396086 -0.160118,-0.192928 -0.19858,-0.352403 -0.08547,-0.354389 0.113098,-0.0019 0.04654,-0.106424 -0.147924,-0.232103 -0.60629,-0.391815 -1.963042,-0.250899 -2.946402,0.306018 -0.518567,0.293686 -0.942849,0.633272 -0.942849,0.754635 0,0.299878 1.771781,0.824349 2.357122,0.697739 0.259283,-0.05608 0.63053,-0.110873 0.824993,-0.12176 z m 8.190997,-0.985085 c 0.550978,-0.0021 1.001777,-0.07957 1.001777,-0.17227 0,-0.09271 0.609905,-0.312668 1.355345,-0.488811 l 1.355345,-0.320259 -1.178561,-0.154654 c -1.233541,-0.161865 -3.386303,0.34821 -4.596387,1.089071 -0.587532,0.35971 -0.586833,0.360322 0.235712,0.205711 0.453746,-0.08528 1.275792,-0.156742 1.826769,-0.158788 z m -5.244595,-0.415839 c 0.08013,-0.129642 0.03961,-0.235712 -0.09004,-0.235712 -0.129642,0 -0.301267,0.10607 -0.38139,0.235712 -0.08013,0.129642 -0.03961,0.235712 0.09004,0.235712 0.129642,0 0.301267,-0.10607 0.38139,-0.235712 z M 91.38724,71.902321 c 0.0878,-0.228863 -0.01031,-0.29151 -0.325695,-0.208912 -0.248132,0.06488 -0.393036,0.211985 -0.322027,0.326887 0.191752,0.310268 0.505308,0.253161 0.647722,-0.117975 z m -19.435811,-0.48656 c 0.695205,-0.185039 2.459636,-0.404208 3.920957,-0.487045 1.461323,-0.08284 3.065717,-0.291143 3.565323,-0.462899 L 80.3461,70.153533 79.183287,69.979159 c -0.639546,-0.09591 -2.448418,-0.113628 -4.019729,-0.03938 -2.477343,0.117061 -3.01147,0.217114 -4.020098,0.753109 -0.639747,0.339968 -1.263941,0.71865 -1.3871,0.841515 -0.331462,0.330664 0.720631,0.273803 2.195069,-0.118637 z m 22.309643,-5.633898 c -0.193682,-1.273418 -0.844468,-3.506595 -1.108039,-3.802286 -0.338821,-0.380093 -0.168151,1.262068 0.336259,3.235441 0.483784,1.892707 1.035012,2.297569 0.77178,0.566845 z m -2.351774,-0.21152 c -0.182662,-1.207622 -1.069676,-3.771433 -1.376927,-3.979847 -0.121245,-0.08223 -0.169713,-0.294379 -0.107691,-0.471424 0.06202,-0.177047 0.0088,-0.587077 -0.118445,-0.911181 -0.899463,-2.293071 -1.13659,-3.099568 -1.247478,-4.242819 -0.153846,-1.586041 -0.811409,-4.007106 -1.088341,-4.007106 -0.111522,0 -0.153405,0.238658 -0.09296,0.530352 0.06055,0.291694 0.178301,1.157068 0.261832,1.923055 0.08353,0.765986 0.290456,1.72062 0.459815,2.121409 0.169359,0.400789 0.650521,2.160658 1.069264,3.910821 0.870721,3.639368 1.785623,6.060214 2.312734,6.11955 0.04375,0.0049 0.01179,-0.441833 -0.07189,-0.99281 z M 30.93229,60.266819 c 0.618326,-0.356515 1.648755,-1.052889 2.289845,-1.547496 1.780926,-1.374006 4.372935,-2.989963 4.795929,-2.989963 0.469428,0 2.404465,-1.359819 3.514197,-2.469555 1.30928,-1.309279 0.431912,-0.99328 -2.929989,1.055282 -1.702042,1.037134 -3.205174,1.885697 -3.340288,1.885697 -0.135122,0 -0.281024,0.09216 -0.324239,0.204822 -0.04321,0.112656 -1.086239,0.87758 -2.317835,1.699839 -1.231596,0.822258 -2.292301,1.555791 -2.357122,1.630071 -0.06482,0.07428 -0.423854,0.370061 -0.797853,0.657284 -0.630406,0.484145 -0.64269,0.522227 -0.168434,0.522227 0.281358,0 1.017463,-0.291693 1.635789,-0.648208 z m 61.502116,-0.353568 c -0.640607,-1.953927 -1.664997,-4.419603 -1.836154,-4.419603 -0.681326,0 -0.05583,1.978709 1.359809,4.301747 0.661821,1.086041 0.805414,1.121567 0.476345,0.117856 z M 28.377091,59.500755 c 0,-0.129642 -0.106071,-0.235713 -0.235712,-0.235713 -0.129642,0 -0.235712,0.106071 -0.235712,0.235713 0,0.129641 0.10607,0.235712 0.235712,0.235712 0.129641,0 0.235712,-0.106071 0.235712,-0.235712 z m 1.33751,-1.098183 c -0.171466,-0.171465 -0.829248,0.190778 -0.958619,0.527909 -0.102196,0.266318 -0.0065,0.255901 0.460555,-0.05015 0.324246,-0.212455 0.548376,-0.427445 0.498064,-0.477759 z m 13.040931,-6.444606 c 0,-0.129642 -0.04677,-0.235713 -0.103949,-0.235713 -0.05718,0 -0.1695,0.106071 -0.249623,0.235713 -0.08013,0.129641 -0.03335,0.235712 0.103949,0.235712 0.137287,0 0.249623,-0.106071 0.249623,-0.235712 z m 44.394532,-5.803614 c -0.190294,-0.72872 -0.381957,-1.609074 -0.425903,-1.956344 -0.263482,-2.081907 -1.707823,-5.204211 -2.407402,-5.204211 -0.315412,0 -0.347808,0.179619 -0.202005,1.119633 0.09546,0.615798 0.197998,1.278738 0.227698,1.473201 0.09325,0.610555 2.836855,6.088423 2.999142,5.988126 0.085,-0.0525 -0.0012,-0.691686 -0.19153,-1.420405 z m -34.663113,0.06532 c 0.287133,-0.174296 1.264553,-0.454026 2.172045,-0.621617 0.907492,-0.167589 2.286408,-0.62297 3.064258,-1.011954 1.4441,-0.722161 3.75477,-2.380947 4.371376,-3.13813 0.31182,-0.382905 0.300177,-0.40394 -0.128551,-0.232302 -0.259283,0.103802 -0.679043,0.247856 -0.9328,0.320118 -0.253756,0.07226 -0.814911,0.371306 -1.247015,0.664536 -0.432103,0.293233 -1.285186,0.717369 -1.895745,0.942522 -0.610566,0.225155 -1.269219,0.538661 -1.463682,0.696679 -0.194462,0.158022 -1.148594,0.571433 -2.120292,0.918691 -1.693676,0.605274 -2.593951,1.153359 -2.593951,1.579189 0,0.275835 0.168129,0.250272 0.774357,-0.117723 z m 9.24341,-1.785605 c 0.77785,-0.246912 1.99766,-0.681668 2.71069,-0.966125 0.713029,-0.284458 1.667663,-0.595702 2.121409,-0.691656 0.718081,-0.151848 0.7639,-0.200345 0.353568,-0.374229 -0.259283,-0.109871 -0.611587,-0.338294 -0.782901,-0.5076 -0.171312,-0.169306 -0.509917,-0.307828 -0.75245,-0.307828 -0.493573,0 -3.545669,1.821436 -3.838812,2.290935 -0.103669,0.166046 -0.315815,0.305271 -0.471424,0.309394 -0.333843,0.0088 -1.30135,0.700479 -0.976189,0.697839 0.12201,-9.43e-4 0.858259,-0.203817 1.636109,-0.45073 z m 14.441577,-18.69908 c -0.189557,-0.291694 -0.49051,-0.765909 -0.668783,-1.05381 -0.549705,-0.887745 -1.467295,-1.122302 -3.002932,-0.767625 -1.296395,0.299421 -1.316049,0.315311 -0.5861,0.473829 0.415403,0.0902 1.118793,0.336521 1.563095,0.547354 0.992946,0.471184 2.836315,1.291309 2.953334,1.313954 0.04732,0.0091 -0.06905,-0.222008 -0.258614,-0.513702 z m 1.468993,-0.365354 c 0,-0.244911 -0.510717,-0.754279 -0.756275,-0.754279 -0.104818,0 -0.05809,0.212141 0.103846,0.471424 0.297412,0.476239 0.652429,0.630153 0.652429,0.282855 z m -6.835652,-0.754279 c 0.276545,-0.178717 0.215389,-0.229279 -0.280729,-0.232103 -0.348863,-0.0019 -0.699853,0.102461 -0.779976,0.232103 -0.186016,0.300981 0.59497,0.300981 1.060705,0 z m 0.942848,-1.333138 c 0.823411,-0.09548 1.138568,-0.205903 0.863779,-0.302662 -0.633408,-0.223035 -3.447864,0.116192 -3.769885,0.454375 -0.217099,0.227999 -0.07476,0.258783 0.666841,0.144242 0.518567,-0.0801 1.526236,-0.213273 2.239265,-0.295952 z M 69.155294,21.45846 c 0,-0.05094 -0.159106,-0.153693 -0.353568,-0.228315 -0.194463,-0.07462 -0.353569,-0.03294 -0.353569,0.09263 0,0.125576 0.159106,0.228314 0.353569,0.228314 0.194462,0 0.353568,-0.04169 0.353568,-0.09263 z M 42.048782,89.039752 c 4.71e-4,-0.269818 1.827064,-1.960675 2.117987,-1.960675 0.434488,0 0.247549,0.513256 -0.232676,0.638839 -0.259283,0.06781 -0.471424,0.209758 -0.471424,0.315452 0,0.105687 -0.318212,0.418756 -0.707137,0.695694 -0.388925,0.276938 -0.706962,0.416751 -0.70675,0.31069 z M 82.59749,30.407649 c -0.350269,-0.92125 -0.28094,-1.066303 0.13907,-0.291147 0.199412,0.367974 0.304201,0.727415 0.232869,0.798754 -0.0713,0.07133 -0.238747,-0.157084 -0.372028,-0.507607 z"
     id="path3723"
     inkscape:connector-curvature="0"
     sodipodi:nodetypes="ccscsscccsccccssccsccssccsccssccccsscccsscsccsssccccccccsccccscscccsscssccsssccccsccccccssccscscccscccsccsscccsccccccscccsccsccccccccccsccssscsccsccsccscccccsccccsccccscscccscccccssscccccscscccsccccscccssccsccccccsscsscsccscccccccsssccccccsccssscccccccccscsscsccccccccccscsccccscccsscsscssscccccccsccccccscscccccccscssccccccscccsccscscsccsccccccccccsscscccscccscssccccccccccccsccccsccccccccccsccccccccccssccccssccscccscsccccccccccssccccccccccccsccsccccscscsscsccsscsccsssssccccsscssccsccccccscsccscsscccccccscccccssccccsscsscssccccccccsscccscsscccccc" />
</svg>
