<svg class="amazon" clip-rule="evenodd" fill-rule="evenodd" stroke-linejoin="round" stroke-miterlimit="2" version="1.1" viewBox="0 0 544 231" xml:space="preserve" xmlns="http://www.w3.org/2000/svg">
    <g transform="matrix(.89583 0 0 .89583 545.92 149.58)" clip-rule="evenodd" fill-rule="nonzero" stroke-linejoin="round" stroke-miterlimit="2">
            <path class="sorriso" d="m-224.05 18.76c-11.594-0.139-25.838 2.218-36.465 9.697-3.094 2.15-2.569 5.141 0.865 4.721 11.273-1.337 36.389-4.352 40.846 1.363 4.483 5.742-4.98 29.361-9.201 39.9-1.285 3.199 1.468 4.484 4.352 2.073 18.797-15.704 23.621-48.606 19.793-53.352-1.795-2.212-9.96-4.28-20.189-4.403zm-295.89 6.314c-2.331 0.301-3.37 3.128-0.912 5.35 41.711 37.674 96.845 60.326 158.09 60.326 43.677 0 94.407-13.765 129.41-39.562 5.794-4.3 0.839-10.697-5.086-8.18-39.22 16.648-81.876 24.67-120.65 24.67-57.493 0-113.15-15.757-158.17-41.947-0.983-0.576-1.903-0.756-2.68-0.656z"/>
            <path class="scritta" d="m-562.2-90.75c-17.723 0-37.515 6.606-41.684 28.523-0.419 2.334 1.259 3.566 2.779 3.906l18.088 1.942c1.678-0.079 2.91-1.73 3.225-3.408 1.547-7.551 7.891-11.195 14.996-11.195 3.828 0 8.18 1.415 10.461 4.849 2.595 3.828 2.256 9.072 2.256 13.502v2.412c-10.801 1.233-24.933 2.018-35.053 6.475-11.666 5.034-19.873 15.338-19.873 30.465 0 19.374 12.217 29.049 27.895 29.049 13.266 0 20.502-3.12 30.727-13.555 3.408 4.902 4.51 7.289 10.697 12.428 1.389 0.734 3.172 0.654 4.404-0.447l0.053 0.052c3.723-3.303 10.486-9.2 14.287-12.373 1.52-1.258 1.259-3.277 0.053-4.955-3.409-4.719-7.026-8.547-7.026-17.277v-29.049c0-12.296 0.864-23.594-8.207-32.063-7.157-6.869-19.007-9.281-28.078-9.281zm244.37 0c-17.723 0-37.515 6.606-41.684 28.523-0.419 2.334 1.259 3.566 2.779 3.906l18.088 1.942c1.678-0.079 2.91-1.73 3.225-3.408 1.547-7.551 7.891-11.195 14.996-11.195 3.828 0 8.18 1.415 10.461 4.849 2.595 3.828 2.256 9.072 2.256 13.502v2.412c-10.801 1.233-24.933 2.018-35.053 6.475-11.666 5.034-19.873 15.338-19.873 30.465 0 19.374 12.217 29.049 27.895 29.049 13.266 0 20.502-3.12 30.727-13.555 3.408 4.902 4.51 7.289 10.697 12.428 1.389 0.734 3.172 0.654 4.404-0.447l0.053 0.052c3.723-3.303 10.486-9.2 14.287-12.373 1.52-1.258 1.258-3.277 0.053-4.955-3.409-4.719-7.026-8.547-7.026-17.277v-29.049c0-12.296 0.864-23.594-8.207-32.063-7.157-6.869-19.007-9.281-28.078-9.281zm-137.27 0.918c-11.483 0-20.004 5.637-24.539 17.723h-0.34v-12.506c-0.131-1.73-1.574-3.12-3.383-3.199h-17.381c-1.992 0-3.591 1.522-3.591 3.435v95.665c0.131 1.704 1.547 3.042 3.33 3.173h18.639c1.992 0 3.591-1.547 3.591-3.461v-50.703c0-11.064-0.523-26.375 12.873-26.375 13.239 0 11.482 15.705 11.482 26.375l0.028 50.703c0 1.836 1.468 3.33 3.355 3.461h18.613c1.993 0 3.592-1.547 3.592-3.461v-50.703c0-5.426-0.183-13.502 1.731-18.326 1.913-4.824 6.633-7.839 11.143-7.839 5.4 0 9.569 1.809 10.959 8.232 0.891 3.828 0.523 13.896 0.523 17.934v50.703c0 1.835 1.494 3.33 3.356 3.461h18.615c1.992 0 3.591-1.547 3.591-3.461l0.026-60.377c0-10.251 1.205-21.944-4.694-29.992-5.217-7.236-13.764-10.461-21.576-10.461-10.985 0-21.235 5.637-25.744 17.723-5.243-12.086-12.533-17.723-24.199-17.723zm317.25 0c-26.977 0-41.945 23.149-41.945 52.932 0 29.599 14.785 53.352 41.945 53.352 26.086 0 42.629-23.151 42.629-52.33 0-30.202-14.97-53.953-42.629-53.953zm106.49 0c-12.872 0-20.187 6.24-25.404 19.322h-0.342v-14.629c-0.367-1.494-1.703-2.597-3.328-2.676h-17.277c-1.888 0-3.434 1.365-3.592 3.121l0.026 95.692c0 1.835 1.494 3.329 3.355 3.46h18.562c1.993 0 3.618-1.547 3.645-3.46v-51.518c0-6.45 0.341-12.269 2.963-18.115 2.071-4.615 6.238-7.655 10.773-7.655 12.872 0 11.668 15.309 11.668 25.77v51.963c0.183 1.626 1.598 2.885 3.302 3.016h18.693c1.835 0 3.38-1.338 3.59-3.016v-60.221c0-9.254 1e-3 -22.126-4.875-29.781-5.243-8.258-13.397-11.273-21.76-11.273zm-224.05 1.756c-1.888 0-3.461 1.39-3.461 3.461v13.686c0 2.045 1.573 3.434 3.539 3.434h32.01l-36.781 52.748c-2.228 3.382-2.256 7.183-2.256 9.412v13.869c0 1.992 2.23 4.3 4.354 3.146 20.842-11.064 45.879-9.989 64.729-0.105 2.307 1.206 4.51-1.127 4.51-3.119v-14.604c-0.184-1.967-0.84-3.959-3.252-5.323-10.696-6.03-23.148-7.786-34.945-7.498l31.748-45.328c2.936-4.063 4.587-6.633 4.613-8.599v-11.719c0-2.045-1.573-3.461-3.539-3.461h-61.268zm117.71 17.775c5.925 0 10.094 2.595 12.191 9.254 2.438 7.655 2.777 17.304 2.777 25.379 0 12.269-0.681 32.404-15.127 32.404-14.629 0-14.445-24.96-14.445-36.652 0-11.666 0.866-30.385 14.604-30.385zm-414.38 35.025v4.037c0 7.262 0.182 13.318-3.488 19.768-2.963 5.244-7.655 8.469-12.898 8.469-7.158 0-11.326-5.453-11.326-13.502 0-15.887 14.237-18.771 27.713-18.771zm244.37 0v4.037c0 7.262 0.182 13.318-3.488 19.768-2.963 5.244-7.655 8.469-12.898 8.469-7.158 0-11.326-5.453-11.326-13.502 0-15.887 14.237-18.771 27.713-18.771z"/></g>
</svg>
