<svg class="ibsit" clip-rule="evenodd" fill-rule="evenodd" stroke-linejoin="round" stroke-miterlimit="2" version="1.1" viewBox="0 0 269 231" xml:space="preserve" xmlns="http://www.w3.org/2000/svg">
    <g transform="matrix(4.3779 0 0 4.3779 -454.32 -112.59)" clip-rule="evenodd" stroke-linejoin="round" stroke-miterlimit="2">
        <path class="ibs" d="m104.4 36.7v3.9h5.2v-3.9zm7.1 0v26h14c1.1-0.5 2.2-1.2 3.1-2.2 0.9-0.9 1.6-2.1 2.2-3.5 0.5-1.4 0.8-2.9 0.8-4.6 0-3.3-0.8-5.9-2.3-7.8-1.6-1.9-3.8-2.9-6.5-2.9-1.5 0-2.6 0.3-3.8 0.8-0.7 0.3-1.7 0.8-2.3 1.4v-7.2zm30 4.6c-1.4 0-2.8 0.2-3.9 0.5-1.2 0.4-2.2 0.9-3 1.5s-1.5 1.4-1.9 2.2-0.6 1.7-0.6 2.7c0 1.5 0.5 2.8 1.4 3.8s2.4 1.8 4.4 2.3c0.7 0.2 1.5 0.3 2.3 0.5 0.8 0.1 1.5 0.3 2 0.4 1.6 0.3 2.2 0.7 2.4 0.9 0.3 0.3 0.5 0.7 0.5 1.2 0 0.6-0.3 1.2-0.9 1.6-0.7 0.5-1.7 0.9-3.3 0.9-2.1 0-3.6-0.6-4.9-1s-3.9-1.93-3.9-1.93v4.973s1.2 0.657 1.7 0.857h12.8c0.4-0.2 0.8-0.4 1.1-0.7 1.8-1.3 2.7-3 2.7-5.1 0-1.7-0.5-3-1.6-4.1-1-1-2.4-1.7-4.3-2.1-0.6-0.1-1.3-0.3-2.1-0.4s-1.5-0.3-2.2-0.4c-1.3-0.3-2-0.6-2.3-0.9-0.4-0.3-0.5-0.7-0.5-1.3 0-0.7 0.3-1.1 0.9-1.4 0.7-0.5 1.8-0.8 2.9-0.8 1.8 0 3.3 0.5 4.5 0.9s3.7 1.5 3.7 1.5v-4.8l-0.4-0.2c-0.9-0.4-2.1-0.8-3.4-1.1-1.4-0.3-2.7-0.5-4.1-0.5zm-37.1 1.1v20.3h5.2v-20.3zm17.3 3.7c1.6 0 2.6 0.5 3.3 1.5 0.7 1.1 1.1 2.8 1.1 5 0 2.4-0.5 4.1-1.5 5.2-1 1-2.3 1.6-4 1.6-0.8 0-1.6-0.1-2.3-0.2-0.6-0.1-1.2-0.3-2-0.6v-10.6h0.2c0.8-0.5 1.6-1 2.4-1.3 0.9-0.4 1.9-0.6 2.8-0.6z" clip-rule="evenodd" fill-rule="evenodd" stroke-linejoin="round" stroke-miterlimit="2"/>
        <path class="it" d="m154.8 36.9v1.9h2v-1.9zm3.9 0v2.9h-1.2v1.8h1.2v5.7c0 1.3 0.3 2.2 0.9 2.8s1.6 0.9 2.7 0.9c0.884-0.018 2.3-0.482 2.3-0.482v-1.761s-1.1 0.443-2 0.443c-0.5 0-0.8 0-1.2-0.2-0.2-0.1-0.4-0.3-0.5-0.5-0.1-0.3-0.2-0.5-0.2-0.8v-6.1h3.9v-1.8h-3.9v-2.9zm-3.9 2.9v10.8h2v-10.8zm-3 8.8v1.9h2v-1.9zm0 3.9v1.5h12.8v-1.5z" fill-rule="nonzero"/>
    </g>
</svg>
