<svg class="lafeltrinelli" clip-rule="evenodd" fill-rule="evenodd" stroke-linejoin="round" stroke-miterlimit="2" version="1.1" viewBox="0 0 900 231" xml:space="preserve" xmlns="http://www.w3.org/2000/svg">
    <path d="m357.53 22.91-34.504 2.1133v7.7441h7.043c6.3375 0 9.1524 0.70466 9.1524 4.9297v107.04c0 6.3375-2.8157 8.4492-9.8574 8.4492h-4.9297v7.7461h47.885v-7.7461h-4.9297c-7.7459 0-9.8594-2.1117-9.8594-8.4492zm423.21 0-34.504 2.1133v7.7441h7.7461c6.3375 0 9.1543 0.70466 9.1543 4.9297v107.04c0 6.3375-2.8177 8.4492-9.8594 8.4492h-5.6328v7.7461h47.885v-7.7461h-4.9297c-7.7459 0-9.8594-2.1117-9.8594-8.4492zm49.996 0-34.504 2.1133v7.7441h7.041c6.3375 0 9.1543 0.70466 9.1543 4.9297v107.04c0 6.3375-2.8157 8.4492-9.8574 8.4492h-4.9297v7.7461h47.885v-7.7461h-4.9297c-7.7459 0-9.8594-2.1117-9.8594-8.4492zm-776 2.8164s-0.70403 0.70508-1.4082 0.70508c-6.3375 4.9292-14.084 6.3368-21.83 7.041-2.1125 0-5.6328-0.7034-5.6328 2.1133 0 1.4083 0.70495 2.1113 2.1133 2.1113h2.8164c2.8167 0 7.041 0.70467 7.041 4.9297 0 2.1125-2.8154 10.562-3.5195 11.971l-26.055 85.205c-1.4083 4.9292-3.5215 11.971-3.5215 16.9 0 4.225 0.70362 7.041 5.6328 7.041 8.45 0 19.013-10.562 23.238-16.195 0.68682-1.0302 2.5449-3.4024 4.2695-5.9688-0.0281 0.5841-0.0449 1.1667-0.0449 1.7441 0 9.8584 4.2265 19.717 14.789 19.717 22.533 0 47.883-35.913 58.445-53.518l-11.268 37.32c-0.70417 3.5208-2.1113 7.0416-2.1113 10.562s1.4088 5.6348 4.9297 5.6348c7.7459 0 17.604-9.1548 22.533-14.084 2.1125-2.1125 9.8574-11.971 9.8574-15.492 0-0.70417-0.70404-1.4082-1.4082-1.4082-1.4083 0-2.8173 2.8173-3.5215 3.5215-2.8167 3.5209-11.266 15.49-16.195 15.49-1.4083 0-2.1113-1.4081-2.1113-2.8164 0-2.1125 0.70404-4.9295 1.4082-6.3379l19.717-64.078c0-0.70417 0.70312-2.8173 0.70312-3.5215 0-2.1125-4.9296-1.4082-6.3379-1.4082-6.311 0-6.3396 1.402-7.7305 6.9766-4.0014-4.3056-8.1044-5.5684-14.098-5.5684-17.604 0-34.505 10.562-45.771 22.533-8.4751 9.0401-17.402 23.068-20.6 36.625-0.47992 0.4549-0.85625 1.0262-1.2305 1.4004-2.1125 3.5209-11.97 16.9-16.195 16.9-2.1125 0-2.8164-2.1131-2.8164-3.5215 0-2.8167 1.4072-5.6336 2.1113-7.7461l33.801-109.15c0.70417-0.70416 1.4082-3.5204 1.4082-4.2246s-0.70403-1.4082-1.4082-1.4082zm477.43 0c-6.3375 0-11.266 4.93-11.266 11.268s4.9281 11.266 11.266 11.266c6.3375 0 11.268-4.9281 11.268-11.266s-4.93-11.268-11.268-11.268zm342.23 0c-6.3375 0-11.268 4.93-11.268 11.268s4.9301 11.266 11.268 11.266c6.3375 0 11.266-4.9281 11.266-11.266s-4.9282-11.268-11.266-11.268zm-733.75 0.70508v7.7461h10.564c7.0417 0 10.562 2.1115 10.562 9.8574v99.289c0 7.7459-3.5208 9.8574-10.562 9.8574h-10.564v7.7461h64.785v-8.4512h-9.1543c-11.971 0-14.084-2.8159-14.084-8.4492v-49.291h10.562c14.788 0 21.125 10.561 21.125 27.461h8.4512v-61.262h-8.4512c-1.4083 18.308-8.4506 25.35-24.646 25.35h-7.041v-44.363c0-6.3375 2.8173-7.041 14.084-7.041 35.209 0 44.363 1.4093 51.404 40.139h7.041l-2.8164-48.588zm250.69 10.563c-1.4083 15.492-4.9297 36.617-24.646 38.025v7.7441h15.492v61.264c0 11.971 9.8581 20.422 22.533 20.422 19.717 0 28.168-13.38 28.168-36.617h-7.7461c0 9.1542-2.8162 25.35-14.787 25.35-8.45 0-11.268-4.9298-11.268-14.084v-55.629h28.166v-8.4492h-28.166v-38.025zm104.92 33.799c-16.9 0-25.349 15.493-28.166 25.352h-0.70508v-22.533l-34.504 2.1113v7.7461h8.4492c6.3375 0 9.1543 0.70466 9.1543 4.9297v55.629c0 7.0417-2.8157 9.1543-9.8574 9.1543h-6.3379v7.7461h50.699v-7.7461h-7.041c-7.7459 0-10.562-1.4078-10.562-5.6328v-19.014c0-15.492 6.337-47.178 25.35-49.291h0.70509v0.70312c-3.5209 2.1125-4.2246 4.9303-4.2246 8.4512 0 5.6334 4.225 9.8574 10.562 9.8574 7.7459 0 11.266-5.6321 11.266-12.674 0-0.72292-0.0622-1.4239-0.15232-2.1133h4.3769c6.3375 0 9.1543 0.70466 9.1543 4.9297v55.629c0 7.0417-2.8157 9.1543-9.8574 9.1543h-6.3379v7.7461h48.588v-7.7461h-4.9297c-7.7459 0-9.8575-2.1117-9.8575-8.4492v-70.418l-34.018 2.084c-2.6544-3.4538-6.8413-5.6055-11.754-5.6055zm127.46 0c-8.45 0-19.718 3.5219-28.168 19.014h-2.8164v-16.195l-32.391 2.1113v7.7461h6.336c6.3375 0 9.1543 0.70466 9.1543 4.9297v56.334c0 6.3375-2.8158 8.4492-9.8574 8.4492h-4.9297v7.7461h47.885v-7.7461h-4.9297c-7.7459 0-9.8594-2.1117-9.8594-8.4492v-31.689c0-19.717 10.563-30.279 23.238-30.279 10.563 0 17.604 7.0428 17.604 19.014v42.955c0 6.3375-2.8157 8.4492-9.8574 8.4492h-4.9297v7.7461h47.885v-7.7461h-4.9297c-7.7459 0-9.8594-2.1117-9.8594-8.4492v-40.139c0-19.013-11.266-33.801-29.574-33.801zm-338.71 0.70508c-26.758 0-43.658 17.603-43.658 49.291 0 25.35 16.901 42.955 42.955 42.955 19.013 0 30.28-9.1546 38.025-26.055l-6.3379-3.5195c-5.6334 12.675-14.085 20.42-28.168 20.42-14.788 0-26.758-11.266-26.758-33.096v-2.8164h61.264c-1.4083-27.463-15.493-47.18-37.322-47.18zm423.91 0c-26.758 0-43.66 17.603-43.66 49.291 0 25.35 16.901 42.955 42.955 42.955 19.013 0 30.279-9.1546 38.025-26.055l-6.3379-3.5195c-5.6334 12.675-14.083 20.42-28.166 20.42-14.788 0-26.76-11.266-26.76-33.096v-2.8164h61.264c-1.4083-27.463-15.491-47.18-37.32-47.18zm174.63 2.8164-34.504 2.1133v7.041h7.7461c6.3375 0 9.1544 0.70466 9.1544 4.9297v55.629c0 7.0417-2.8158 9.1543-9.8575 9.1543h-6.3379v7.7461h48.588v-7.7461h-4.9296c-7.7459 0-9.8594-2.1117-9.8594-8.4492zm-779.52 4.2246c6.3375 0 11.971 2.8177 11.971 9.8594 0 8.45-15.493 30.28-20.422 36.617-7.0417 7.7459-23.942 28.166-35.209 28.166-5.6334 0-8.4492-6.3384-8.4492-11.268 0-11.971 9.8587-30.982 16.9-40.137 7.7459-9.8584 21.126-23.238 35.209-23.238zm179.56 0.70508c11.971 0 19.717 9.8579 19.717 25.35 0 5.6334-2.1115 7.041-9.8574 7.041h-33.096c1.4084-20.421 8.4488-32.391 23.236-32.391zm423.91 0c11.971 0 19.717 9.8579 19.717 25.35 0 5.6334-2.1136 7.041-9.8594 7.041h-33.096c1.4083-20.421 8.4508-32.391 23.238-32.391z" clip-rule="evenodd" fill-rule="nonzero" stroke-linejoin="round" stroke-miterlimit="2" stroke-width="7.0417"/>
</svg>
