<svg class="pendragon" clip-rule="evenodd" fill-rule="evenodd" stroke-linejoin="round" stroke-miterlimit="2" version="1.1" viewBox="0 0 1036 231" xml:space="preserve" xmlns="http://www.w3.org/2000/svg">
    <path transform="matrix(4.1667 0 0 4.1667 -1.4804 -47.129)" d="m26.867 11.331c-2.464 2e-3 -2.5758 0.19875-1.7498 3.0787 1.289 4.495 1.078 12.186-0.36703 13.368-0.688 0.562-5.4008 1.18-10.473 1.373-11.936 0.453-13.777 1.9181-13.777 10.964 0 5.398 0.305 6.3207 2.805 8.4717 2.771 2.383 3.0608 2.4131 23.583 2.4131 11.428 0 21.062 0.28388 21.409 0.63188 0.348 0.347 0.21469 1.41-0.29531 2.362-1.89 3.533-5.897 4.0989-26.872 3.7969-20.255-0.291-20.255-0.29062-17.637 1.9594v-0.001406c2.513 2.16 3.3667 2.2501 21.312 2.2491 24.853-2e-3 28.15-1.5807 28.176-13.498 0.021-9.661-5.0939-14.207-17.116-15.215l-6.9848-0.58594 0.30984-10.685c0.31-10.685 0.30987-10.685-2.3231-10.683zm114.61 3.0361c-1.7344-0.021188-5.1611 0.029625-5.3869 0.10688-0.236 0.081-0.37009 0.75991-0.21609 1.1039 0.096 0.216 0.31488 0.27912 1.3369 0.38812 2.231 0.237 2.1623-0.012374 2.1623 7.8206 0 4.691-0.0301 5.9761-0.1411 5.9761-0.077 0-0.4189-0.22872-0.7589-0.50672-1.528-1.253-2.9302-1.7761-4.7812-1.7841-3.75-0.015-6.3977 2.058-7.5787 5.932-0.288 0.946-0.44528 1.8797-0.60328 3.5967-0.193 2.092 0.10734 6.1223 0.54234 7.2773 0.088 0.234 0.15984 0.51181 0.15984 0.61781 0 0.106 0.03791 0.23797 0.08391 0.29297s0.13487 0.26225 0.19687 0.46125c0.217 0.695 1.103 2.1186 1.702 2.7356 0.772 0.793 1.8801 1.447 2.9611 1.747v9.38e-4c1.814 0.503 4.2601 0.26044 5.6611-0.56156 0.59599-0.35 1.7271-1.3054 2.1591-1.8234 0.353-0.423 0.49796-0.13478 0.53296 1.0542l0.03282 1.1189 6.4683 0.07125v-0.67312c0-0.783 0.05075-0.75322-1.4962-0.87422-1.095-0.086-1.4387-0.27097-1.7437-0.93797-0.176-0.387-0.193-1.6609-0.21-16.711-0.01-8.961-0.05222-16.333-0.09422-16.383-0.02075-0.02475-0.41094-0.039813-0.98906-0.046875zm-85.034 3.0586-0.10688 0.33703c-0.063 0.198-0.06725 0.50403-0.01125 0.74203l0.096094 0.40406 1.1222 0.076875c0.689 0.047 1.2508 0.15922 1.4578 0.28922 1.058 0.666 1.0673 0.79182 1.0683 14.343 1e-3 11.209-0.048063 12.822-0.41906 13.779-0.265 0.682-0.91222 0.97266-2.1642 0.97266-1.01 0-1.0231 0.005312-1.1391 0.37031-0.064 0.203-0.087031 0.55569-0.052031 0.78469l0.065156 0.41531 5.37-0.004219c3.586-3e-3 5.398-0.050843 5.453-0.14484 0.121-0.205 0.104-0.85916-0.03-1.1602-0.102-0.227-0.24488-0.26091-1.0969-0.26391-1.275-4e-3 -1.8192-0.27822-2.1802-1.0992-0.253-0.574-0.25806-0.66881-0.29906-5.9278-0.028-3.619-0.002718-5.4308 0.078282-5.6128 0.115-0.257 0.27294-0.27206 3.7509-0.34406 3.08-0.063 3.7679-0.11538 4.5309-0.33938 1.096-0.322 1.6752-0.57188 2.1942-0.94687 0.216-0.157 0.49994-0.34209 0.63094-0.41109 0.46-0.245 1.5968-1.6408 2.0058-2.4628 1.721-3.462 1.4381-9.027-0.58594-11.527-0.916-1.133-1.6117-1.5938-3.0637-2.0358-0.644-0.195-1.6813-0.22328-8.7033-0.22828l-7.972-0.006094zm10.714 1.635c2.979-0.018 3.3 0.027281 4.343 0.60328 1.875 1.038 2.7207 3.7558 2.3517 7.5548-0.084 0.862-0.20203 1.6822-0.26203 1.8202-0.061 0.139-0.20381 0.52475-0.31781 0.85875-0.634 1.86-1.747 2.9619-3.592 3.5559-0.539 0.174-1.2371 0.22031-3.3281 0.22031-1.455 0-2.6787-0.041-2.7197-0.089999-0.096-0.115-0.096938-12.549-9.38e-4 -13.506 0.061-0.61 0.11669-0.74116 0.36469-0.86016 0.172-0.083 1.4672-0.14703 3.1612-0.15703zm91.409 8.4084c-1.241 0.01247-2.508 0.69187-3.2798 1.9219-0.177 0.281-0.37375 0.49-0.43875 0.465-0.064-0.026-0.14291-0.41834-0.17391-0.87234-0.031-0.454-0.11193-0.893-0.18093-0.975-0.091-0.109-0.82503-0.10669-2.737 0.010313-1.437 0.087-2.8153 0.12578-3.0633 0.085781-0.348-0.056-0.49769-0.012906-0.66469 0.18609-0.247 0.296-0.2574 0.37988-0.1064 0.85687 0.106 0.334 0.14334 0.34594 1.0673 0.34594 1.136 0 1.754 0.25028 2.115 0.85828l0.25172 0.42281v16.585l-0.27 0.43078c-0.341 0.544-0.38803 0.56425-1.567 0.65625-0.536 0.042-1.0909 0.10381-1.2319 0.13781-0.337 0.082-0.52103 0.56606-0.38203 1.0041l0.10594 0.33469 10.314-0.017813 0.10406-0.43219c0.081-0.339 0.06222-0.48462-0.08578-0.68062-0.156-0.207-0.4131-0.26222-1.4911-0.31922l-1.3022-0.068906-0.40969-0.49219-0.41015-0.49078 0.00187-6.975c2e-3 -6.398 0.02006-7.037 0.20906-7.717 0.336-1.212 0.69397-1.9289 1.193-2.3939 0.424-0.395 0.54394-0.43828 1.2309-0.43828 0.715 0 0.78634 0.029313 1.1573 0.46031 0.389 0.453 0.53906 0.93603 0.53906 1.732 0 0.728 0.24685 1.4646 0.53485 1.5956 0.363 0.166 1.2679 0.15397 1.6889-0.022031 1.181-0.493 0.73916-4.3657-0.62484-5.4717-0.6135-0.49762-1.3489-0.7303-2.0934-0.72281zm34.272 0.001875c-4.13 0-6.8439 2.3561-7.3819 6.4111-0.135 1.015-0.13712 1.3987-0.01312 2.4197 0.08 0.668 0.23897 1.4871 0.35297 1.8211 0.29 0.854 0.96537 2.0532 1.4044 2.4952 0.204 0.206 0.44094 0.49297 0.52594 0.63797 0.164 0.28 0.12309 0.54584-0.30891 1.9898-0.137 0.459-0.18134 1.1172-0.18234 2.6972-1e-3 2.021 0.00897 2.1128 0.30797 2.7928 0.17 0.387 0.31031 0.79194 0.31031 0.90094 0 0.108-0.29135 0.39503-0.64734 0.63703-0.902 0.613-1.8048 1.7618-2.3058 2.9348-0.406 0.949-0.42194 1.039-0.42094 2.355 0 0.88 0.05394 1.4922 0.15094 1.7142 0.083 0.191 0.18581 0.51184 0.22781 0.71484 0.043 0.203 0.44322 0.81309 0.88922 1.3561 1.14 1.386 2.1681 1.9602 4.4681 2.4952 1.332 0.31 2.8688 0.33781 4.3308 0.077812 1.264-0.224 2.475-0.57597 2.812-0.81797 0.124-0.089 0.35225-0.19694 0.50625-0.24094 0.452-0.127 1.7846-1.2202 2.4656-2.0222 0.761-0.897 1.2784-1.8939 1.6664-3.2119 0.385-1.309 0.41388-3.519 0.06188-4.74-0.125-0.431-0.28391-0.85303-0.35391-0.93703s-0.12797-0.21591-0.12797-0.29391c0-0.384-1.343-1.8012-2.137-2.2542-1.009-0.577-1.507-0.64284-5.287-0.69984-3.221-0.049-3.7233-0.085969-4.2183-0.30797-0.8-0.358-1.0581-0.587-1.3031-1.155-0.252-0.584-0.27971-1.9241-0.05671-2.6691 0.16399-0.549 0.43999-0.64969 0.98999-0.36469 0.924 0.479 2.0201 0.66184 3.5761 0.59484 1.802-0.077 2.5967-0.28684 3.8517-1.0148 1.3-0.754 2.4281-2.0912 2.9761-3.5302 0.43-1.127 0.63391-2.7849 0.48891-3.9769-0.191-1.567-0.40078-2.2253-1.2258-3.8433-0.436-0.854-0.42403-0.861 1.343-0.765 1.888 0.103 2.0152 0.055094 2.0152-0.7739 0-0.346-0.06712-0.65219-0.16312-0.74719-0.119-0.118-0.89994-0.15284-2.8959-0.12984-2.6 0.031-3.9672-0.085063-4.9392-0.41906-0.209-0.072-0.99813-0.13078-1.7531-0.13078zm-79.694 0.002812c-2.327-4e-3 -4.142 0.764-5.527 2.34-0.632 0.719-0.75094 0.66025-0.75094-0.37875 0-0.477-0.05178-1.0314-0.11578-1.2314l-0.11485-0.36469-1.1503 0.090938c-0.633 0.049999-2.0809 0.12103-3.2189 0.15703-1.137 0.036-2.1122 0.097875-2.1652 0.13688-0.053 0.04-0.097026 0.30522-0.097026 0.58922 0 0.637 0.079996 0.67991 1.275 0.68391 1.179 4e-3 1.7462 0.28669 2.0522 1.0247 0.206 0.498 0.21609 0.90044 0.21609 8.6184 0 7.508-0.01428 8.123-0.19828 8.46-0.343 0.626-0.66475 0.78203-1.7888 0.86203-0.601 0.043-1.1581 0.15584-1.3031 0.26484-0.243 0.181-0.32494 0.60984-0.19594 1.0148 0.047 0.146 0.99019 0.17897 5.0372 0.17297 2.739-4e-3 5.0409-0.05275 5.1169-0.10875 0.198-0.147 0.16971-0.76428-0.04829-1.0533-0.144-0.19-0.35665-0.24766-0.92765-0.25266-1.086-8e-3 -1.6813-0.18228-2.0203-0.58828l-0.29672-0.35578v-14.489l0.26672-0.66328c0.724-1.801 2.4403-2.91 4.5033-2.91 1.229 0 2.0151 0.31216 2.7281 1.0852 0.585 0.634 0.78987 1.1101 1.0669 2.4881 0.159 0.789 0.19906 1.9048 0.23906 6.7978 0.058 6.946 0.03082 7.4151-0.46218 8.0531-0.347 0.45-0.38085 0.46188-1.4798 0.54188-1.43 0.105-1.5412 0.17122-1.4972 0.88922l0.03515 0.55594 4.988 0.007969c4.566 8e-3 4.9982-0.010907 5.0902-0.21891 0.323-0.723-0.04725-1.1862-0.95625-1.1962-1.605-0.019-2.1192-0.30172-2.3372-1.2867-0.069-0.309-0.14894-3.5521-0.19594-7.8741-0.084-7.841-0.06791-7.6252-0.65391-8.9672-0.852-1.952-2.5111-2.8919-5.1131-2.8959zm126.44 0c-2.352-5e-3 -4.2238 0.80816-5.6128 2.4352-0.535 0.627-0.6661 0.53509-0.6661-0.4739 0-0.477-0.05231-1.0313-0.11531-1.2323l-0.11578-0.36375-1.1498 0.090938c-0.632 0.049999-2.0839 0.12103-3.2259 0.15703-1.461 0.047-2.1022 0.11509-2.1642 0.23109-0.157 0.297-0.10081 1.0066 0.08719 1.0936 0.098 0.045 0.57788 0.082031 1.0669 0.082031 1.124 0 1.6987 0.26038 2.0437 0.92438l0.255 0.49172v8.1633c0 7.572-0.01381 8.19-0.19781 8.527-0.343 0.626-0.66622 0.78203-1.7892 0.86203-1.204 0.086-1.5558 0.27375-1.5558 0.82875 0 0.206 0.04794 0.43203 0.10594 0.50203h9.4e-4c0.128 0.154 9.896 0.16612 10.103 0.013125 0.205-0.152 0.16834-0.82331-0.05766-1.0603-0.135-0.141-0.54797-0.22878-1.313-0.28078-0.853-0.057-1.1842-0.13581-1.4062-0.33281-0.571-0.508-0.58697-0.75313-0.54797-8.1881l0.03703-6.877 0.26297-0.65812c0.711-1.782 2.4622-2.9152 4.5042-2.9152 1.219 0 2.0147 0.31416 2.7117 1.0702 0.613 0.663 0.81028 1.1051 1.0833 2.4361 0.188 0.913 0.20766 1.6481 0.20766 7.6181 0 6.211-0.013 6.6319-0.21 7.0219-0.316 0.625-0.54091 0.73078-1.7339 0.82078-1.398 0.105-1.5088 0.17222-1.4648 0.88922l0.03375 0.55688 4.95 0.012187c2.792 6e-3 5.0102-0.042093 5.0902-0.11109 0.199-0.173 0.17406-0.76509-0.04594-1.0561-0.14-0.185-0.35588-0.24806-0.87187-0.25406-1.61-0.019-2.1491-0.33394-2.3381-1.3659-0.059-0.32-0.14484-3.8878-0.18984-7.9298-0.089-7.899-0.05028-7.3852-0.66328-8.8322-0.82-1.935-2.507-2.8919-5.108-2.8959zm-66.821 0.004688c-1.3817 0.019726-2.8461 0.24438-3.5405 0.61312-0.195 0.103-0.40656 0.18844-0.47156 0.18844-0.185 0-1.1654 0.81078-1.5174 1.2558-0.77199 0.977-1.1997 2.2179-1.1967 3.4669 3e-3 1.211 0.39681 1.7494 1.2778 1.7494 0.963 0 1.3629-0.61603 1.4489-2.227 0.094-1.752 0.50897-2.5553 1.658-3.1973 0.428-0.24 0.72303-0.28381 1.912-0.28781 1.352-4e-3 1.4342 0.01175 2.1422 0.42375 1.294 0.751 1.5678 1.5304 1.6528 4.7034 0.032 1.199 0.02412 2.397-0.01688 2.663l-0.07593 0.48375-1.5422 0.006094c-2.167 8e-3 -5.0368 0.20978-5.7028 0.40078-1.853 0.533-3.118 1.8881-3.66 3.9211-0.317 1.189-0.30684 3.2652 0.02016 4.4442 0.601 2.16 1.7219 3.3807 3.7519 4.0837 0.872 0.302 3.0909 0.28203 4.1339-0.037968 0.46899-0.144 0.9449-0.31678 1.0589-0.38578 0.766-0.46 1.0429-0.65731 1.4259-1.0153 0.495-0.462 0.63215-0.36384 0.63515 0.45516 1e-3 0.263 0.06194 0.55225 0.13594 0.64125 0.099 0.117 0.942 0.16078 3.09 0.16078 2.806 0 2.9602-0.013157 3.0712-0.26016 0.36399-0.816 0.01574-1.161-1.2862-1.275-0.876-0.077-1.0491-0.135-1.3111-0.435-0.166-0.191-0.33884-0.508-0.38484-0.705-0.046-0.197-0.11616-3.8167-0.15516-8.0437l-0.07078-7.6861-0.2939-0.75797c-0.678-1.749-1.716-2.5712-3.975-3.1472-0.58537-0.14925-1.3849-0.21105-2.2139-0.19922zm-83.09 0.002343c-1.672-0.052921-3.6928 0.28228-4.6303 0.85078-1.145 0.696-1.5198 1.01-2.1558 1.807-1.011 1.266-1.5053 2.528-1.9083 4.882-0.188 1.093-0.21394 1.7073-0.18094 4.1803 0.048 3.582 0.26228 4.971 1.0833 7.012 0.569 1.417 1.5367 2.5436 2.7867 3.2456 0.518 0.291 1.0302 0.53103 1.1372 0.53203s0.44703 0.087313 0.75703 0.19031c1.204 0.402 4.5031 0.20672 5.6241-0.33328 0.995-0.478 1.6028-0.91206 2.1858-1.5591 0.685-0.76 1.5962-2.2607 1.7512-2.8847 0.046-0.186 0.12881-0.40409 0.18281-0.48609 0.191-0.288 0.24325-1.7201 0.07125-1.9931-0.208-0.33-1.185-0.45387-1.672-0.21188-0.367 0.183-0.66328 0.79619-0.66328 1.3772 0 0.171-0.10491 0.67362-0.23391 1.1156-0.439 1.504-1.3679 2.6793-2.6339 3.3333-1.075 0.554-3.1922 0.51869-4.2192-0.070313-1.232-0.707-1.969-1.9848-2.43-4.2108-0.215-1.037-0.39981-5.1942-0.24281-5.4272 0.089-0.132 1.4808-0.16875 6.2728-0.16875 5.23 0 6.1799-0.029 6.2939-0.195 0.195-0.281-0.036656-4.1939-0.31266-5.2659-0.37-1.438-0.82709-2.3843-1.5961-3.3033-1.015-1.214-1.9341-1.7579-3.7641-2.2289-0.42675-0.10975-0.94548-0.17033-1.5028-0.18797zm124.86 0.010782c-0.21754 6.01e-4 -0.44381 0.006406-0.68156 0.016406-3.25 0.138-5.6113 1.1938-6.8953 3.0848-0.414 0.608-1.0969 2.034-1.0969 2.288 0 0.079-0.07494 0.336-0.16594 0.57-0.223 0.575-0.3849 1.7099-0.5339 3.7509-0.215 2.947 0.17681 6.5669 0.88781 8.1989 0.081 0.187 0.14812 0.383 0.14812 0.435 1e-3 0.052 0.23304 0.49316 0.51704 0.98016 0.618 1.059 1.5131 1.9651 2.4741 2.5031 0.689 0.386 0.97665 0.49212 2.3526 0.86812l9.4e-4 -0.001406c0.949 0.259 3.4952 0.25409 4.7892-0.008906 1.993-0.404 3.2398-1.0529 4.3308-2.2509 0.645-0.708 1.5103-2.165 1.5103-2.543 0-0.077 0.07185-0.33184 0.15985-0.56484 0.303-0.805 0.5069-1.9222 0.6839-3.7312 0.16-1.647 0.16-2.0037 0-3.9047-0.3-3.553-0.94709-5.5604-2.3011-7.1334-0.79-0.919-1.1929-1.2206-2.3119-1.7386-1.2714-0.588-2.3453-0.82265-3.8681-0.81844zm-125.55 1.4578c0.24941 0.007687 0.49731 0.034375 0.73406 0.080625 0.931 0.182 1.3178 0.40672 2.0508 1.1967 1.04 1.121 1.4931 2.6669 1.5281 5.2209l0.021093 1.5281-4.5281 0.036094c-2.49 0.018999-4.532-0.010969-4.538-0.067969-0.064-0.643 0.065031-2.9939 0.20203-3.6759 0.362-1.801 1.3038-3.2873 2.4778-3.9103 0.53925-0.28575 1.304-0.43134 2.0522-0.40828zm103.99 0.10219c1.296 8e-3 1.8642 0.21316 2.6302 0.95016 1.073 1.032 1.4841 2.4621 1.4841 5.1591 0 1.88-0.14503 2.8079-0.60703 3.8789-0.3 0.694-1.0322 1.4872-1.7002 1.8422-0.564 0.298-0.79778 0.34116-1.8408 0.33516-1.091-7e-3 -1.2562-0.043031-1.8942-0.41203-0.716-0.415-1.4478-1.2622-1.7808-2.0602-0.615-1.476-0.78922-4.0859-0.39422-5.8889 0.313-1.423 0.59378-2.0383 1.2408-2.7173 0.804-0.842 1.4712-1.096 2.8622-1.087zm21.091 0.040313c1.451 3e-3 2.4312 0.30797 3.2972 1.028 0.453 0.376 1.3251 1.5018 1.3261 1.7128 0 0.063 0.07278 0.30506 0.16078 0.53906 0.296 0.779 0.52693 2.16 0.64593 3.863 0.127 1.798 0.04797 6.1721-0.12703 7.0791-0.304 1.572-0.38762 1.8862-0.69562 2.5772-0.602 1.351-1.3644 2.1179-2.6264 2.6409-0.423 0.176-0.91468 0.23188-1.9697 0.22688-1.57-8e-3 -2.2181-0.20584-3.1261-0.95484-0.666-0.549-0.80813-0.72819-1.2131-1.5272-0.775-1.528-1.0528-3.0928-1.1358-6.4008-0.167-6.591 0.70869-9.287 3.3947-10.455 0.649-0.282 0.96006-0.33206 2.0691-0.32906zm-79.912 0.001875c0.88-2e-3 2.2859 0.41725 2.9559 0.88125 0.544 0.377 1.6002 1.609 1.6012 1.868 0 0.08 0.07709 0.32072 0.17109 0.53672 0.333 0.765 0.50297 2.9033 0.50297 6.3253 0 5.188-0.37194 7.2537-1.5159 8.4276-0.537 0.552-1.7753 1.1962-2.7333 1.4222v9.38e-4c-0.512 0.121-1.018 0.21022-1.125 0.19922-0.997-0.103-1.9137-0.44134-2.5317-0.93234-1.086-0.863-1.9533-2.7447-2.2303-4.8427-0.685-5.184-0.10385-10.374 1.3702-12.246 0.778-0.987 2.1778-1.6372 3.5348-1.6402zm-117.95 3.9061h7.8108v6.9998 7.0003h-8.3452c-9.46 0-11.655-1.2793-11.655-6.7903 0-5.391 3.0764-7.2098 12.189-7.2098zm12.811 5.0002h7.5459c6.678 0 7.8278 0.28184 9.9998 2.4548 1.35 1.35 2.4539 3.375 2.4539 4.5 0 1.924-0.59184 2.0452-9.9998 2.0452h-9.9998v-9zm146.18 0.80578c0.723-0.024234 0.75806 0.032625 0.85781 0.25688 0.097 0.218 0.12416 1.1893 0.09516 3.4903-0.035 2.789-0.06637 3.2456-0.24937 3.6506-0.258 0.573-1.2618 1.762-1.4878 1.762-0.092 0-0.30409 0.084031-0.47109 0.18703-0.366 0.225-2.1311 0.36728-2.8341 0.22828-1.404-0.277-2.3721-1.3902-2.7591-3.1692-0.392-1.802 0.01416-3.7299 1.0552-5.0189 0.82299-1.018 1.2771-1.1442 4.8131-1.3392 0.42175-0.023 0.73915-0.039735 0.98015-0.047813zm13.592 11.424 3.9539 0.058125c3.837 0.057 3.9732 0.067813 4.6172 0.37781 0.901 0.433 1.6398 1.3343 1.9748 2.4103 0.213 0.68 0.24918 1.0108 0.20718 1.8698-0.028 0.573-0.1034 1.164-0.1664 1.312-0.064 0.148-0.2116 0.51078-0.3286 0.80578-0.283 0.709-1.341 1.9544-1.965 2.3114-0.92399 0.528-1.2833 0.68584-2.0733 0.90984-0.517 0.146-1.2318 0.21806-2.0808 0.20906-3.065-0.034-5.2603-1.7589-5.7173-4.4939-0.32-1.922-0.00188-3.3733 1.1081-5.0573l0.47016-0.71297z" clip-rule="evenodd" fill-rule="nonzero" stroke-linejoin="round" stroke-miterlimit="2"/>
</svg>
