<?xml version="1.0" encoding="UTF-8" standalone="no"?>
<!-- Created with Inkscape (http://www.inkscape.org/) -->

<svg
   width="87.745483mm"
   height="36.945454mm"
   viewBox="0 0 87.745483 36.945454"
   version="1.1"
   id="svg1"
   xmlns="http://www.w3.org/2000/svg"
   xmlns:svg="http://www.w3.org/2000/svg">
  <defs
     id="defs1" />
  <g
     id="layer1"
     transform="translate(-59.140193,-46.856899)">
    <path
       style="font-size:50.8px;font-family:'Departure Mono';-inkscape-font-specification:'Departure Mono';stroke-width:0.264583"
       d="m 63.758374,60.711444 v 18.472727 h -4.618181 v 4.618182 H 77.61292 V 79.184171 H 68.376556 V 60.711444 H 82.231101 V 56.093262 H 68.376556 v -4.618181 h -4.618182 v 4.618181 h -4.618181 v 4.618182 z m 4.618182,-13.854545 v 4.618182 h 13.854545 v -4.618182 z m 32.327294,0 v 4.618182 h 4.61818 v -4.618182 z m 0,13.854545 v 18.472727 h -9.236368 v 4.618182 h 23.090908 v -4.618182 h -9.23636 V 56.093262 H 91.467482 v 4.618182 z m 23.09092,-4.618182 v 27.709091 h 4.61818 V 65.329626 h 4.61819 v -4.618182 h -4.61819 v -4.618182 z m 9.23637,0 v 4.618182 h 9.23636 v -4.618182 z m 9.23636,4.618182 v 23.090909 h 4.61818 V 60.711444 Z"
       id="text1"
       aria-label="fin" />
  </g>
</svg>
