<svg width="8.7745mm" height="3.6945mm" version="1.1" viewBox="0 0 87.745 36.945" xmlns="http://www.w3.org/2000/svg">
    <g transform="translate(-59.14 -46.857)">
        <path d="m63.758 60.711v18.473h-4.6182v4.6182h18.473v-4.6182h-9.2364v-18.473h13.855v-4.6182h-13.855v-4.6182h-4.6182v4.6182h-4.6182v4.6182zm4.6182-13.855v4.6182h13.855v-4.6182zm32.327 0v4.6182h4.6182v-4.6182zm0 13.855v18.473h-9.2364v4.6182h23.091v-4.6182h-9.2364v-23.091h-13.855v4.6182zm23.091-4.6182v27.709h4.6182v-18.473h4.6182v-4.6182h-4.6182v-4.6182zm9.2364 0v4.6182h9.2364v-4.6182zm9.2364 4.6182v23.091h4.6182v-23.091z" stroke-width=".26458" aria-label="fin"/>
    </g>
</svg>
