<?xml version="1.0" encoding="UTF-8" standalone="no"?>
<!DOCTYPE svg PUBLIC "-//W3C//DTD SVG 1.1//EN" "http://www.w3.org/Graphics/SVG/1.1/DTD/svg11.dtd">
<svg width="100%" height="100%" viewBox="0 0 463 565" version="1.1" xmlns="http://www.w3.org/2000/svg" xmlns:xlink="http://www.w3.org/1999/xlink" xml:space="preserve" xmlns:serif="http://www.serif.com/" style="fill-rule:evenodd;clip-rule:evenodd;stroke-linejoin:round;stroke-miterlimit:2;">
    <g transform="matrix(1,0,0,1,-137.717,-17.1811)">
        <g id="path92" transform="matrix(1.9984e-15,44.6581,-44.6581,1.9984e-15,2678.66,-2010.28)">
            <path d="M55.21,56.639C54.478,55.863 53.604,55.234 52.841,54.488C52.746,54.395 52.26,53.507 52.079,53.528C51.706,53.572 51.464,53.957 51.154,54.168C50.837,54.384 49.499,55.877 48.908,55.991C48.228,56.121 47.581,55.69 48.051,54.957C48.202,54.722 50.332,52.749 50.332,52.749L49.883,52.579C48.57,52.079 47.157,51.756 45.906,51.074C45.257,50.721 45.115,49.662 46.186,49.708C46.528,49.723 46.828,49.946 47.148,50.065C48.355,50.515 48.335,50.55 49.61,50.752C49.754,50.775 49.92,50.876 50.044,50.8C50.12,50.753 49.935,50.657 49.89,50.58C49.792,50.411 49.713,50.231 49.615,50.062C49.316,49.544 48.358,48.013 48.143,47.524C48.038,47.283 48.057,46.888 48.295,46.711C49.453,45.852 50.734,48.67 51.172,49.265C51.467,49.668 51.658,50.33 52.153,50.396C52.824,50.486 54.15,49.578 54.619,49.164C54.952,48.87 55.408,47.862 55.991,48.031C57.249,48.395 56.718,49.468 56.069,50.262C55.72,50.688 55.24,50.988 54.847,51.374C54.725,51.495 54.369,51.711 54.527,51.778C55.587,52.229 56.88,51.794 57.956,52.204C58.085,52.254 58.034,52.507 57.953,52.62C57.81,52.821 57.574,52.944 57.353,53.052C56.737,53.353 55.928,53.528 55.248,53.528L54.539,53.528L54.823,53.968C55.148,54.471 56.088,55.159 56.313,55.768C56.576,56.477 55.869,57.337 55.21,56.639L55.21,56.639Z" style="fill:white;fill-rule:nonzero;"/>
        </g>
    </g>
</svg>
