<svg width="100%" height="100%" viewBox="0 0 372 59" version="1.1" xmlns="http://www.w3.org/2000/svg" xmlns:xlink="http://www.w3.org/1999/xlink" xml:space="preserve" id="blog" class="intestazioni-liste">
    <g transform="matrix(1,0,0,1,-33.791,-144.301)">
        <g transform="matrix(0.915769,0,0,0.584439,-55.0674,43.0058)">
            <rect x="97.031" y="173.32" width="405.745" height="99.586" style="fill:none;"/>
            <g class="righe" transform="matrix(3.85059,0,0,6.03355,-1432.39,-872.462)">
                <path d="M398.485,185.121C398.485,185.121 398.281,184.943 398.282,184.87C398.286,184.379 398.465,183.545 398.676,183.253C398.904,182.939 399.412,182.877 399.685,182.794C399.949,182.714 401.706,182.448 403.345,182.529C404.434,182.582 405.544,182.596 405.813,182.56C406.081,182.524 407.13,182.47 408.144,182.44C409.158,182.409 410.285,182.356 410.649,182.321C411.303,182.257 412.284,182.238 413.173,182.257C413.883,182.273 418.46,182.279 419.197,182.248C420.057,182.213 427.545,182.198 427.672,182.196C428.059,182.191 428.876,182.296 429.111,182.41C429.257,182.481 429.504,182.864 429.483,183.013C429.447,183.27 429.39,183.284 428.245,183.304C427.585,183.316 426.478,183.394 425.785,183.476C424.521,183.627 423.159,183.658 420.925,183.588C420.265,183.568 419.131,183.606 418.405,183.674C417.679,183.741 416.545,183.801 415.885,183.807C415.225,183.813 414.131,183.853 413.453,183.895C412.775,183.937 411.182,183.994 409.913,184.021C406.927,184.084 405.249,184.295 404.765,184.283C404.5,184.276 404.254,184.281 404.037,184.294C403.459,184.329 402.135,184.77 401.998,184.798C401.154,184.969 398.763,185.173 398.485,185.121ZM473.327,183.481C472.992,183.374 472.449,182.591 472.562,182.478C472.642,182.399 472.936,182.321 473.216,182.305C473.497,182.289 474.212,182.243 474.806,182.202C475.4,182.161 476.777,182.081 477.866,182.024C481.944,181.809 483.148,181.73 483.266,181.67C483.299,181.653 483.785,181.621 484.346,181.6C484.907,181.578 485.596,181.535 485.876,181.503C485.966,181.493 486.046,181.488 486.113,181.488C486.262,181.488 488.388,181.406 488.533,181.391C489.46,181.296 495.228,181.228 496.522,181.302C496.675,181.311 497.887,181.412 498.07,181.448C498.51,181.534 500.786,182.123 500.786,182.262C500.786,182.313 499.099,182.359 497.036,182.366C492.97,182.379 490.576,182.44 489.446,182.56C487.92,182.723 485.574,182.815 485.234,182.726C485.127,182.698 483.784,182.832 483.086,182.941C482.269,183.068 479.571,183.265 476.546,183.42C475.919,183.452 475.055,183.516 474.626,183.562C474.085,183.62 473.687,183.595 473.329,183.48L473.327,183.481Z" style="fill-rule:nonzero;"/>
            </g>
            <g class="scritta" transform="matrix(3.85059,0,0,6.03355,-1432.39,-872.462)">
                <path d="M465.03,188.24L465.029,188.24C465.372,188.608 466.018,188.52 466.344,188.185C466.826,187.687 466.287,187.448 466.421,186.929C466.805,185.444 467.679,184.376 468.438,183.1C468.565,182.886 469.051,182.074 468.623,181.781C468.152,181.459 467.722,182.001 467.382,182.217C466.336,182.883 465.27,183.517 464.218,184.174C464.125,184.232 463.603,184.632 463.362,184.662C463.131,184.691 462.91,184.592 463.051,184.277C463.3,183.72 463.634,183.203 463.955,182.683C464.459,181.863 464.928,181.015 465.526,180.261C465.667,180.083 466.407,180.03 466.564,179.907C466.774,179.743 466.889,179.484 467.05,179.271C467.204,179.068 468.227,178.041 467.613,177.643C466.801,177.117 465.884,178.22 465.452,178.666C463.687,180.492 463.69,180.488 462.401,182.658C461.887,183.524 461.348,184.65 461.738,185.685C461.939,186.215 462.529,186.231 462.976,186.055C464.058,185.631 463.984,185.518 464.991,184.983C465.363,184.785 465.737,184.585 466.13,184.432C466.175,184.414 466.27,184.437 466.264,184.485C466.153,185.344 465.29,186.159 464.945,186.882C464.751,187.289 464.682,187.867 465.03,188.24ZM434.011,186.829L434.01,186.829C434.94,187.856 434.695,186.048 435.353,185.998C436.687,185.896 437.834,186.494 439.088,185.863C440.383,185.211 441.386,184.398 442.371,183.343C442.572,183.128 442.608,182.764 442.855,182.603C443.852,181.95 445.121,181.825 446.251,181.643C446.656,181.577 447.072,181.366 447.469,181.467C447.622,181.507 447.443,181.784 447.402,181.937C447.297,182.331 447.154,182.714 447.032,183.103C446.806,183.821 445.906,185.738 446.701,186.561C447.044,186.916 447.694,186.705 448.031,186.546C449.262,185.962 450.447,185.284 451.681,184.705C452.044,184.535 453.083,184.381 453.337,183.968C453.526,183.66 452.652,183.553 452.302,183.644C451.177,183.937 450.079,184.327 448.981,184.708C448.591,184.843 448.201,185.205 447.744,185.153C447.545,185.131 447.84,184.763 447.91,184.575C448.024,184.27 448.083,183.945 448.204,183.643C448.579,182.705 449.753,180.92 449.35,179.728C449.05,178.841 447.677,180.237 447.506,180.284C446.128,180.661 444.717,180.961 443.292,181.061C442.474,181.119 441.31,180.319 440.675,179.956C440.47,179.839 439.981,179.584 440.177,179.452C441.415,178.612 443.321,178.34 443.792,176.656C443.79,176.184 443.654,175.847 443.405,175.622C442.025,174.338 439.778,174.602 438.145,174.961C437.384,175.128 435.345,175.864 435.718,177.182C435.791,177.438 436.049,177.642 436.3,177.728C436.419,177.769 436.189,177.476 436.232,177.357C436.327,177.093 436.479,176.836 436.687,176.647C437.446,175.962 437.532,176.466 438.554,176.635C439.038,176.715 438.348,175.845 438.864,175.833C439.76,175.811 440.658,175.836 441.553,175.891C441.88,175.911 442.7,176.062 442.773,176.55C442.814,176.825 442.031,177.29 441.891,177.373C440.366,178.274 439.798,178.746 437.994,178.964C437.898,178.975 437.945,178.767 437.974,178.675C438.119,178.215 438.394,177.799 438.507,177.331C438.547,177.165 438.583,176.875 438.42,176.826C437.31,176.494 437.299,177.846 436.891,178.344C436.535,178.777 435.833,178.868 435.538,179.345C435.367,179.621 435.731,180.102 435.676,180.36C435.331,181.997 434.817,182.638 434.228,184.183C434.004,184.77 433.422,186.178 434.011,186.829ZM437.785,185.197L437.785,185.197C437.521,185.344 436.891,185.633 436.553,185.431C436.476,185.385 436.461,185.168 436.471,185.1C436.529,184.72 436.552,184.599 436.85,184.34C437.401,183.859 438.158,183.726 438.831,183.522C439.517,183.314 439.896,183.158 440.604,183.031L441.083,182.945L440.511,183.44C439.654,184.182 438.761,184.657 437.785,185.197ZM436.03,183.634L436.029,183.634C435.887,183.781 435.743,184.114 435.558,184.028C435.496,183.998 435.478,183.896 435.499,183.83C435.646,183.373 436.472,181.1 436.873,180.636C437.075,180.402 437.553,180.487 437.788,180.525C438.392,180.624 438.997,180.727 439.596,180.854C440.049,180.95 440.701,181.168 441.115,181.378C441.211,181.427 441.316,181.485 441.368,181.579C441.392,181.625 441.352,181.705 441.302,181.721C440.345,182.034 440.297,181.815 439.345,182.142C438.904,182.294 437.024,183.046 436.802,183.179C436.414,183.413 436.35,183.304 436.03,183.634ZM455.455,186.539L455.455,186.539C456.2,186.908 456.993,186.386 457.48,185.849C457.937,185.345 458.53,184.627 458.79,183.984C459.251,182.847 458.778,180.906 457.44,180.637C456.715,180.491 456.534,181.063 456.781,181.633C456.937,181.991 457.396,181.964 457.688,182.1C457.904,182.201 458.027,182.565 458.065,182.702C458.154,183.021 458.105,183.363 458.079,183.394C457.379,184.234 457.56,184.377 456.737,185.09C456.634,185.179 456.25,185.397 456.097,185.383C455.925,185.367 456.01,185.035 456.044,184.865C456.119,184.494 456.224,184.129 456.323,183.763C456.401,183.471 456.644,182.326 456.621,182.257C456.515,181.924 456.464,181.664 456.076,181.663C455.427,181.66 455.552,182.644 455.424,182.998C455.305,183.331 455.065,183.61 454.927,183.935C454.745,184.362 454.657,184.888 454.696,185.351C454.72,185.634 454.979,185.974 455.005,186.054C455.075,186.268 455.259,186.443 455.455,186.539Z" style="fill-rule:nonzero;"/>
            </g>
        </g>
    </g>
</svg>
