<svg width="100%" height="100%" viewBox="0 0 581 114" version="1.1" xmlns="http://www.w3.org/2000/svg" xmlns:xlink="http://www.w3.org/1999/xlink" xml:space="preserve" xmlns:serif="http://www.serif.com/" style="fill-rule:evenodd;clip-rule:evenodd;stroke-linejoin:round;stroke-miterlimit:2;">
    <g transform="matrix(1,0,0,1,-7.46458,-295.218)">
        <g id="background-splash" transform="matrix(-0.358268,-0.0214296,-0.0130479,0.21814,600.838,254.729)">
            <path d="M679.124,325.886C679.124,332.33 677.831,333.194 674.125,329.29C671.367,326.405 664.644,320.082 659.172,315.244C652.079,309.008 650.467,305.553 653.578,303.117C658.853,299.091 679.356,306.935 679.219,312.981C679.167,315.348 679.124,321.153 679.124,325.886ZM607.218,318.302C603.142,319.494 600.866,324.539 600.565,333.004C600.306,340.104 599.531,347.015 598.85,348.414C598.152,349.779 582.199,352.474 563.384,354.409C544.552,356.361 526.919,359.264 524.169,360.87C518.86,364.032 517.223,354.72 522.023,348.777C523.592,346.808 524.885,341.642 524.885,337.289C524.885,331.017 523.152,330.534 516.723,335.043C512.232,338.135 507.423,340.035 506.018,339.223C504.613,338.412 500.253,341.348 496.322,345.736C491.78,350.798 477.189,354.565 456.341,356.016C438.259,357.242 421.22,358.607 418.462,359.022C409.989,360.352 414.764,371.478 425.141,374.656C434.397,377.507 434.535,377.887 427.77,381.671C418.039,387.095 399.052,380.392 397.234,370.839C395.036,359.419 391.528,361.389 389.744,375.036C388.624,383.64 386.676,386.024 382.806,383.588C379.842,381.705 371.464,383.726 364.19,388.149C350.642,396.338 345.841,394.731 350.426,383.64C353.606,375.969 340.558,343.594 336.36,348.777C334.8,350.712 333.516,346.808 333.516,340.139C333.516,330.551 332.301,328.72 327.802,331.587C324.381,333.764 322.097,332.624 322.097,328.72C322.097,325.144 319.838,323.485 317.098,325.057C303.222,332.883 293.526,334.835 293.526,329.86C293.526,326.802 296.094,322.984 299.248,321.343C305.299,318.164 306.971,303.272 301.972,297.07C300.334,295.032 297.094,296.552 294.758,300.422C292.44,304.274 290.208,306.434 289.794,305.19C289.389,303.963 287.372,298.556 285.321,293.183C282.054,284.597 282.597,282.869 289.699,279.241C300.826,273.54 346.099,275.026 363.509,281.66C371.361,284.666 377.144,287.724 376.36,288.45C371.886,292.665 337.033,292.25 332.965,287.966C327.501,282.213 314.65,291.663 312.478,303.03C311.478,308.213 313.555,309.129 320.166,306.365C325.156,304.257 343.367,303.151 360.656,303.877C393.881,305.311 403.25,302.858 400.388,293.58C399.423,290.453 396.829,289.244 394.631,290.937C392.442,292.63 388.46,292.336 385.814,290.298C382.074,287.413 383.203,284.977 390.813,279.449C403.026,270.603 425.589,268.893 419.203,277.289C415.393,282.299 415.393,283.543 419.203,288.553C425.227,296.483 429.58,295.757 439.888,285.063C448.67,275.959 449.015,276.114 455.556,291.334C459.547,300.646 461.598,311.029 460.65,317.093C459.495,324.401 461.296,329.1 467.105,333.902C475.741,341.089 484.36,336.252 499.33,315.884C505.191,307.919 508.552,307.09 516.447,311.617C532.262,320.738 561.885,318.89 563.841,308.679C564.746,303.963 566.582,300.093 567.935,300.093C569.296,300.093 569.667,303.963 568.754,308.679C567.797,313.707 568.728,317.283 570.994,317.352C573.114,317.369 577.76,318.976 581.294,320.859C585.956,323.364 587.714,321.896 587.714,315.348C587.714,305.656 604.986,296.051 610.381,302.72C615.363,308.921 613.846,316.367 607.218,318.302ZM492.039,383.605C488.117,385.592 484.903,389.514 484.903,392.312C484.903,395.129 483.757,397.426 482.343,397.426C480.947,397.426 479.068,393.591 478.172,388.909C476.327,379.304 484.222,368.817 493.272,368.817C501.528,368.817 500.658,379.269 492.039,383.605ZM467.148,408.863C462.141,408.863 460.193,397.305 463.951,389.79C467.76,382.12 472.242,386.266 472.242,397.426C472.242,404.596 470.337,408.863 467.148,408.863ZM451.445,409.537C449.696,413.026 446.782,414.892 444.981,413.683C440.724,410.832 444.559,403.127 450.239,403.127C453.453,403.127 453.764,404.855 451.445,409.537ZM471.949,292.354C474.259,290.574 476.905,291.611 477.827,294.634C478.758,297.64 476.87,300.093 473.638,300.093C466.743,300.093 466.045,296.932 471.949,292.354ZM499.554,286.083C507.354,283.508 510.354,284.821 511.603,291.369C512.974,298.521 510.474,300.093 497.658,300.093C475.81,300.093 476.68,293.667 499.554,286.083ZM521.859,294.358C523.342,294.358 525.341,296.966 526.315,300.093C527.281,303.238 526.065,305.829 523.626,305.829C521.178,305.829 519.17,303.238 519.17,300.093C519.17,296.966 520.386,294.358 521.859,294.358ZM610.261,420.317C613.234,420.317 616.406,416.464 617.319,411.748C620.034,397.53 629.73,401.4 631.256,417.328C631.997,425.137 631.937,432.859 631.101,434.535C629.058,438.595 614.915,438.301 609.373,434.017C603.116,429.231 603.693,420.317 610.261,420.317ZM914.473,604.029C919.032,600.384 924.169,598.518 925.901,599.814C927.625,601.127 925.307,605.135 920.748,608.78C916.197,612.391 911.06,614.309 909.328,612.996C907.604,611.7 909.914,607.657 914.473,604.029ZM1006.52,622.411C1007.37,624.121 1005.39,628.406 1002.12,631.895C997.988,636.318 996.161,636.439 996.161,632.189C996.161,625.262 1004.18,617.695 1006.52,622.411ZM1030.64,597.81C1040.36,597.81 1040.81,601.317 1033.6,620.2C1030.19,629.01 1026.64,632.673 1023.65,630.375C1021.1,628.406 1019.15,624.761 1019.34,622.325C1020.82,602.388 1022.93,597.81 1030.64,597.81ZM1085.41,480.195C1092.88,479.072 1098.99,480.575 1098.99,483.564C1098.99,486.553 1091.91,489.041 1083.28,489.041C1074.63,489.041 1067.57,487.728 1067.57,486.156C1067.57,482.89 1067.27,482.977 1085.41,480.195ZM1094.09,649.984C1092.34,653.473 1089.44,655.391 1087.63,654.147C1083.37,651.314 1087.22,643.609 1092.9,643.609C1096.11,643.609 1096.43,645.302 1094.09,649.984ZM1196.1,592.99C1200.03,592.99 1201.64,594.286 1199.66,595.875C1197.71,597.447 1194.49,597.447 1192.53,595.875C1190.57,594.286 1192.17,592.99 1196.1,592.99ZM1315.2,599.952C1322.12,601.853 1327.18,601.49 1326.45,599.106C1325.73,596.756 1335.26,594.683 1347.63,594.562C1366.45,594.286 1369.6,595.547 1366.87,602.164C1365.06,606.5 1361.19,608.798 1358.26,607.26C1355.34,605.757 1348.82,607.087 1343.79,610.266C1338.75,613.445 1325.23,616.606 1313.73,617.246C1302.24,617.902 1292.25,616.52 1291.51,614.119C1288.72,605.083 1302.92,596.583 1315.2,599.952ZM263.907,297.07C262.579,290.142 258.959,288.968 246.462,291.404C218.762,296.794 228.536,288.259 259.968,279.621C273.163,275.993 273.534,276.304 273.534,290.851C273.534,307.228 266.699,311.651 263.907,297.07ZM43.786,248.559C41.33,248.559 39.322,245.985 39.322,242.858C39.322,239.714 40.529,237.122 42.011,237.122C43.493,237.122 45.493,239.714 46.467,242.858C47.441,245.985 46.226,248.559 43.786,248.559ZM1631.4,476.999C1621.36,456.026 1591.98,425.102 1586.26,429.49C1582.79,432.168 1581.69,429.404 1581.69,417.881C1581.69,408.586 1579.79,401.538 1576.69,399.517C1573.94,397.737 1567.83,392.762 1563.13,388.46C1555.57,381.636 1554.43,381.809 1553.54,390.032C1552.98,395.129 1555.53,403.887 1559.21,409.433C1562.89,415.013 1565.27,420.645 1564.52,422.01C1563.75,423.357 1553.49,425.707 1541.71,427.227C1529.93,428.765 1523.26,428.903 1526.88,427.573C1538.21,423.444 1532.83,407.896 1516.31,397.098C1507.84,391.587 1489.21,385.368 1474.9,383.294C1460.59,381.204 1441.2,378.388 1431.81,376.971C1422.42,375.607 1412.79,373.275 1410.39,371.754C1407.99,370.234 1391.26,367.815 1373.19,366.364C1355.12,364.913 1326.84,362.27 1310.35,360.49C1293.86,358.711 1267.51,355.981 1251.8,354.392C1236.09,352.802 1209.1,348.535 1191.82,344.89C1174.54,341.262 1154.62,337.772 1147.54,337.168C1140.48,336.528 1132.39,334.041 1129.57,331.657C1126.75,329.29 1119.77,328.841 1114.05,330.706C1108.32,332.555 1102.26,331.829 1100.6,329.1C1096.45,322.293 1069.25,316.506 1033.3,314.795C979.154,312.169 911.067,303.946 867.638,294.755C852.702,291.611 825.079,287.827 806.23,286.359C787.372,284.908 768.092,282.334 763.387,280.572C752.475,276.598 699.626,271.364 639.14,268.306C613.215,267.027 579.163,264.228 563.452,262.138C547.748,260.048 512.395,257.543 484.91,256.592C362.844,252.343 293.912,248.525 280.682,245.294C247.07,237.088 230.22,237.468 223.299,246.59C218.559,252.775 214.026,254.191 208.579,251.133C204.252,248.697 189.764,245.847 176.44,244.793C163.081,243.757 149.576,242.582 146.438,242.184C143.301,241.804 134.01,242.133 125.797,242.91C109.309,244.482 93.598,234.341 93.598,222.11C93.598,217.791 95.097,214.232 96.933,214.232C98.769,214.232 99.415,212.522 98.372,210.449C97.338,208.358 94.227,210.725 91.469,215.7C87.099,223.647 85.746,223.734 80.92,216.633C73.861,206.302 70.75,206.32 70.75,216.737C70.75,227.846 67.061,231.715 62.226,225.721C59.002,221.73 58.951,219.208 61.898,212.055C66.018,202.07 63.855,191.307 57.735,191.307C53.874,191.307 52.504,197.561 53.262,211.554C53.435,214.785 50.056,218.033 45.747,218.724C41.429,219.467 37.482,222.576 36.956,225.634C36.447,228.709 33.638,237.071 30.733,244.189C26.019,255.711 25.89,258.562 29.535,269.843C34.844,286.342 34.749,305.311 29.328,309.492C21.589,315.469 24.614,334.317 35.37,347.05C45.29,358.78 45.626,360.231 43.98,384.227C42.463,406.565 42.989,409.865 49.022,415.376C53.607,419.539 55.331,424.964 54.391,432.134C53.03,442.568 68.716,478.364 85.1,502.188C88.987,507.837 90.555,510.912 88.573,508.96C83.496,504.053 80.446,523.385 85.324,529.605C87.521,532.386 93.287,534.701 98.148,534.753C108.723,534.857 115.592,556.728 110.749,574.85C106.62,590.295 106.905,591.28 117.17,596.722C124.944,600.851 126.314,604.064 125.659,616.485C125.064,627.715 126.452,632.224 131.373,635.092C142.922,641.725 155.557,654.665 159.246,663.545C161.228,668.348 164.675,672.252 166.908,672.252C169.14,672.252 177.147,683.862 184.714,698.011C199.926,726.55 209.544,730.714 217.844,712.332C224.282,698.08 233.495,695.782 227.661,709.879C221.989,723.579 229.496,730.334 244.984,725.393C257.852,721.316 260.98,721.385 284.966,726.101C301.953,729.487 317.812,722.733 317.812,712.091C317.812,700.55 332.05,695.851 368.368,695.488C389.846,695.246 399.62,697.268 401.214,702.312C405.618,716.133 416.09,723.337 432.569,723.959C463.303,725.117 474.748,723.182 476.774,716.634C478.247,711.849 480.893,712.073 486.832,717.532C498.071,727.863 549.834,736.432 556.677,729.125C560.34,725.186 565.865,725.41 574.07,729.833C580.697,733.409 592.582,737.451 600.494,738.747C608.389,740.078 626.704,743.688 641.166,746.763C680.846,755.263 694.317,754.227 698.006,742.393C700.583,734.117 704.849,732.545 722.267,733.478C780.115,736.501 798.964,735.776 804.067,730.282C807.135,726.982 810.798,726.343 812.22,728.848C813.633,731.371 822.252,736.64 831.362,740.509C845.979,746.798 848.797,746.487 855.356,737.866C860.907,730.559 866.285,728.952 876.644,731.422C884.263,733.219 890.486,732.545 890.486,729.885C890.486,721.523 900.354,719.554 917.798,724.443C927.124,727.052 944.404,730.714 956.177,732.632C967.959,734.532 979.533,737.486 981.886,739.197C988.135,743.809 1065.57,755.85 1119.29,760.619C1139.25,762.381 1148.84,760.878 1154.45,755.039C1159.4,749.873 1163.89,748.802 1167,752.033C1175.74,761.12 1195.42,769.723 1199.79,766.372C1202.14,764.575 1209.26,765.871 1215.6,769.309C1230.94,777.566 1265.18,777.722 1284.65,769.568C1293.3,765.94 1304.85,762.053 1310.35,760.878C1315.86,759.72 1325.5,757.561 1331.77,756.11C1338.06,754.624 1352.19,752.844 1363.19,752.119C1384.08,750.771 1397.17,740.648 1402.23,721.886C1403.78,716.133 1406.83,712.799 1409.02,714.492C1411.21,716.168 1413.76,715.097 1414.68,712.073C1416.46,706.269 1412.62,705.526 1371.76,703.746C1357.62,703.09 1333.85,702.001 1318.92,701.276C1304,700.55 1289.22,700.827 1286.08,701.863C1276.98,704.869 1279.44,691.515 1290.85,676.036C1301.29,661.818 1316.48,655.892 1324.63,662.871C1328.56,666.275 1388.62,671.319 1456.48,674.014C1471.67,674.636 1485.06,677.072 1486.24,679.387C1490.61,688.112 1504.75,683.378 1510.84,671.146L1517.1,658.57L1510.04,654.803C1506.16,652.73 1500.07,647.426 1496.55,643.004C1492.05,637.424 1489.5,636.888 1488.06,641.259C1483.05,656.462 1473.2,654.009 1462.52,634.971C1453.95,619.664 1450.82,617.09 1446.49,621.737C1442.8,625.693 1440.16,625.555 1438.01,621.236C1435.75,616.744 1436.54,615 1440.82,615C1444.09,615 1451.21,611.268 1456.65,606.707C1465.68,599.14 1472.99,599.382 1484.59,607.606C1488.26,610.214 1502.47,612.149 1545.99,615.967C1561.24,617.332 1567.78,615.121 1565.99,609.264C1565.02,606.12 1561.16,603.528 1557.41,603.528C1553.67,603.528 1549.93,601.317 1549.1,598.657C1548.26,595.927 1539.72,590.381 1530.11,586.287C1520.49,582.21 1511.96,575.369 1511.15,571.17C1509.66,563.362 1492.82,560.304 1489.37,567.249C1486.9,572.155 1456.84,574.902 1446.6,571.119C1440.61,568.925 1439.36,566.351 1441.57,561.012C1444.28,554.465 1423.74,553.912 1374.61,559.164C1360.38,560.684 1353.19,557.332 1353.19,549.161C1353.19,539.158 1344.35,537.672 1339.75,546.881C1334.62,557.16 1310.4,556.901 1307.46,546.552C1305.39,539.21 1303.96,538.916 1299.12,544.859C1292.11,553.463 1284.65,554.188 1284.65,546.276C1284.65,543.149 1282,540.558 1278.77,540.558C1275.53,540.558 1273.6,538.225 1274.48,535.392C1275.84,530.969 1245.08,525.579 1195.4,521.623C1187.95,521.001 1181.84,519.515 1181.84,518.323C1181.81,513.987 1194.19,494.776 1197.02,494.776C1198.61,494.776 1199.17,493.256 1198.25,491.407C1197.34,489.593 1193.82,491.079 1190.42,494.742C1183.05,502.62 1146.03,508.614 1139.38,502.965C1136.8,500.771 1128.42,498.231 1120.76,497.264C1102.97,495.053 1098.46,486.795 1110.46,478.433C1125.64,467.791 1119.27,458.548 1095.98,457.425C1084.29,456.838 1069.91,454.42 1064.03,452.035C1055.24,448.459 1053.02,449.479 1051.43,457.737C1050.23,464.025 1051.27,470.365 1054.21,474.667C1056.8,478.468 1058.08,483.253 1057.06,485.309C1054.29,490.837 1038.21,489.645 1033.39,483.529C1030.78,480.247 1027.92,480.368 1025.79,483.91C1021.78,490.613 1017.64,480.973 1020.51,471.644C1022.62,464.802 1008.13,470.365 1003.05,478.33C1001.33,481.007 999.201,481.768 998.322,479.988C997.426,478.226 989.204,475.859 980.016,474.736C937.207,469.519 914.902,465.476 913.506,462.643C912.661,460.967 911.972,455.491 911.938,450.481C911.92,445.453 910.3,440.288 908.335,438.94C906.37,437.627 904.767,440.927 904.767,446.248C904.767,452.329 903.241,454.731 900.63,452.727C897.76,450.515 897.01,452.295 898.208,458.462C899.613,465.822 898.372,466.755 891.279,463.61C884.866,460.794 882.203,462.09 880.945,468.707C880.005,473.579 877.136,477.587 874.567,477.587C871.594,477.587 870.482,474.46 871.516,469.052C874.076,455.664 860.743,452.087 847.591,462.643C832.913,474.408 816.598,474.736 814.4,463.265C813.409,458.082 809.1,454.696 803.498,454.696C798.422,454.696 790.182,450.602 785.218,445.661C779.443,439.873 773.108,437.99 767.644,440.392C760.025,443.743 759.095,442.672 759.095,430.51C759.095,423.029 760.525,414.011 762.283,410.521C767.239,400.588 762.637,390.568 756.259,397.409C753.311,400.588 748.571,402.765 745.718,402.229C734.273,400.26 730.541,403.404 730.541,415.099C730.541,428.592 723.879,427.279 722.552,413.493C722.034,408.172 725.654,400.95 731.713,395.198C737.212,389.946 742.616,382.759 743.719,379.183C746.942,368.731 712.752,377.904 708.865,388.546C707.09,393.453 704.625,397.426 703.409,397.426C700.462,397.426 693.886,414.253 690.525,430.354C686.095,451.569 680.122,446.058 679.614,420.317C679.363,407.74 680.122,397.133 681.286,396.77C682.458,396.407 687.103,395.249 691.593,394.213C701.367,391.915 703.237,388.978 700.497,380.098C699.152,375.728 694.386,374.76 686.646,377.213C664.074,384.452 607.725,386.335 607.725,379.891C607.725,376.488 603.752,374.605 598.719,375.589C588.764,377.594 584.558,366.934 592.6,360.179C597.055,356.396 653.361,350.384 677.64,351.109C682.346,351.265 690.99,344.631 696.997,336.287C702.961,327.994 712.149,320.704 717.38,320.065C722.629,319.408 728.412,317.058 730.214,314.83C732.041,312.55 737.031,311.444 741.323,312.342C745.606,313.24 750.579,312.169 752.372,309.941C754.182,307.729 756.388,309.733 757.285,314.433C758.431,320.427 757.026,323.019 752.579,323.07C749.097,323.14 744.521,325.386 742.417,328.046C739.608,331.605 740.763,334.041 746.692,337.012C751.157,339.293 755.457,341.262 756.25,341.435C757.026,341.625 759.258,335.613 761.198,328.08C763.886,317.68 764.731,316.799 764.766,324.435C764.817,334.369 775.901,338.964 779.995,330.741C781.994,326.716 789.639,324.677 820.511,319.909C831.5,318.216 843.342,313.983 846.832,310.459C851.71,305.553 854.261,305.916 857.985,312.117C861.329,317.698 871.146,320.255 890.219,320.531C905.284,320.738 925.331,324.211 934.76,328.288C944.189,332.348 957.039,336.321 963.313,337.081C969.605,337.807 983.093,342.229 993.315,346.877C1003.51,351.541 1018.94,354.495 1027.58,353.476C1052.54,350.505 1068.74,351.869 1070.35,357.018C1071.18,359.661 1078.72,361.458 1087.13,361.026C1095.52,360.577 1102.99,362.149 1103.71,364.516C1105.69,370.908 1116.13,369.716 1116.13,363.082C1116.13,354.53 1125.02,356.171 1130.27,365.69C1133.64,371.806 1148.18,375.503 1184.76,379.58C1212.21,382.638 1241.21,385.005 1249.21,384.867C1257.22,384.763 1266.39,387.424 1269.59,390.861C1273.14,394.679 1296.46,397.34 1329.3,397.737C1393.91,398.463 1418.86,400.277 1424.6,404.734C1426.95,406.565 1436.27,409.709 1445.31,411.748C1454.34,413.769 1461.73,417.587 1461.73,420.23C1461.73,432.842 1404.43,433.567 1402.34,420.991C1400.8,411.713 1393.18,413.13 1393.18,422.718C1393.18,427.158 1389.32,434.241 1384.61,438.422C1368.49,452.727 1373.81,459.481 1402.94,461.762C1413.81,462.608 1423.12,465.856 1423.65,469.001C1424.97,476.999 1396,478.589 1388.4,470.918C1380.66,463.127 1367.48,469.19 1367.48,480.541C1367.48,486.622 1370.72,489.041 1378.9,489.041C1385.18,489.041 1390.32,491.477 1390.32,494.465C1390.32,497.679 1396.29,498.525 1404.61,496.538C1414.78,494.137 1418.89,495.139 1418.89,500.045C1418.89,504.865 1423.01,506.109 1432.46,504.192C1439.91,502.689 1446.34,501.22 1446.74,500.961C1449.74,498.957 1451.75,501.6 1451.8,507.647C1451.84,512.484 1455.83,514.298 1464.16,513.21C1472,512.191 1475.79,513.762 1474.64,517.511C1472,526.028 1481.89,524.629 1490.94,515.162C1498.05,507.716 1498.67,507.923 1498.07,517.356C1497.21,531.332 1530.7,577.649 1533.77,566.731C1535.82,559.371 1546.63,559.526 1586.51,567.353C1599.32,569.858 1601.81,568.614 1605.03,558.283C1607.09,551.7 1609.98,546.276 1611.43,546.276C1612.9,546.276 1618.9,541.784 1624.77,536.273C1639.35,522.573 1641.98,499.13 1631.4,476.999Z" style="fill-rule:nonzero;"/>
        </g>
        <path id="freccia" d="M539.376,363.511C538.869,363.004 539.051,362.065 539.213,361.366C539.722,359.179 541.712,356.089 543.104,354.483C545.197,352.067 548.121,350.139 550.586,348.136C552.555,346.536 554.242,344.559 556.401,343.229C557.264,342.697 564.033,339.69 564.362,339.423C565.403,338.577 563.294,336.761 562.151,336.058C561.894,335.901 543.778,325.844 542.109,324.962C542.098,324.957 534.707,322.294 536.958,320.428C540.119,317.808 545.711,320.06 548.804,321.379C557.135,324.932 566.315,328.561 571.884,336.08C572.748,337.245 573.545,338.479 574.136,339.803C575.803,343.54 573.581,343.878 570.744,345.008C567.893,346.144 565.009,347.224 562.266,348.602C559.31,350.088 556.514,351.873 553.681,353.582C549.565,356.067 548.391,357.172 544.374,360.577C542.901,361.826 540.742,364.877 539.376,363.511ZM455.773,343.088C453.084,340.398 445.972,345.998 445.344,339.773C444.896,335.333 453.698,337.009 455.881,336.811C461.37,336.312 466.808,335.261 472.312,334.959C482.386,334.406 492.482,334.144 502.57,334.249C512.264,334.351 521.968,334.705 531.623,335.579C535.705,335.949 542.486,335.992 543.08,340.048C543.18,340.73 542.084,341.223 541.394,341.248C532.833,341.565 524.261,340.998 515.695,341.06C503.056,341.152 490.416,341.332 477.782,341.71C472.598,341.865 467.426,342.297 462.253,342.657C460.093,342.807 457.304,344.617 455.773,343.087L455.773,343.088Z" style="fill-rule:nonzero;"/>
        <g id="scritta" transform="matrix(1.45094,0,0,1.45094,-129.54,-172.193)">
            <path d="M135.527,389.316C122.555,385.902 117.959,370.875 120.617,359.078C121.734,354.121 125.761,350.296 128.732,346.174C132.985,340.274 141.265,334.763 147.284,331.496C150.442,329.781 152.207,328.576 154.089,328.147C154.858,327.972 159.163,327.003 159.726,326.917C160.882,326.74 163.361,326.755 164.208,326.926C167.301,327.552 170.421,331.13 170.779,333.748C170.779,333.748 171.352,335.164 171.042,335.663C170.731,336.162 168.917,336.74 168.917,336.74C166.672,337.877 166.843,336.489 166.623,334.067C166.428,331.925 165.09,330.98 163.042,330.476C158.411,329.338 153.897,333.246 149.502,335.097C138.572,339.698 124.649,353.091 124.107,364.999L123.909,369.363L125.689,373.438C128.675,380.275 130.427,382.477 134.673,384.733L137.309,386.133L143.729,386.1C146.702,386.085 149.664,385.721 152.62,385.412C153.524,385.317 158.849,383.957 160.53,385.01C160.887,385.233 159.921,385.611 159.545,385.8C158.347,386.4 154.183,387.889 153.032,388.222C147.645,389.776 141.042,390.768 135.527,389.316L135.527,389.316ZM178.801,379.208C177.644,377.814 176.908,373.798 176.991,369.336L177.075,364.864L174.11,365.129C172.397,365.282 170.662,365.12 168.957,364.899C167.712,364.737 166.367,364.65 165.301,363.985C164.977,363.782 164.902,361.53 165.326,361.215C167.623,359.512 171.279,360.564 173.899,360.371C174.699,360.312 177.128,359.82 177.662,359.137C179.394,356.918 178.468,352.805 179.579,350.273C180.126,349.029 179.963,348.675 180.501,347.427C180.769,346.808 181.25,346.311 181.257,345.637C181.284,342.638 186.315,342.362 186.15,345.342C186.088,346.453 184.405,345.677 184.222,346.853C184.014,348.196 184.01,349.563 183.913,350.918C183.773,352.872 183.841,354.85 183.513,356.781L183.189,358.691L185.11,358.844C186.445,358.95 187.788,358.621 189.092,358.318C190.845,357.911 192.663,357.572 194.249,356.722C196.043,355.76 195.81,350.68 195.865,350.137C195.983,348.949 195.623,339.504 199.948,342.045C200.495,342.367 200.359,343.257 200.435,343.888C200.705,346.145 201.039,348.409 201.034,350.683C201.02,357.525 198.578,364.059 197.948,370.879C197.885,371.558 198.199,374.126 197.197,374.984C196.526,375.559 195.513,374.593 195.235,374.227C194.57,373.352 193.825,372.453 193.558,371.387C193.247,370.145 193.492,368.824 193.561,367.546C193.637,366.156 193.92,364.782 193.992,363.392C194.174,359.84 189.596,362.7 187.471,363.289C185.816,363.748 183.817,363.614 182.532,364.753C181.616,365.564 181.874,367.123 181.768,368.341C181.459,371.891 182.497,375.582 181.6,379.031C181.291,380.221 179.21,379.701 178.801,379.208L178.801,379.208ZM260.377,375.872C259.616,375.541 256.914,372.584 257.678,371.108C258.042,370.405 259.117,370.449 259.849,370.152C261.803,369.358 266.966,367.378 268.925,366.727C271.012,366.032 274.783,366.74 274.399,363.555C273.314,354.548 255.062,358.591 253.251,349.143C251.856,341.859 256.693,336.02 261.998,331.903C264.182,330.208 268.134,327.021 271.316,328.269C272.249,328.635 275.318,330.905 275.87,331.793C276.646,333.042 276.293,334.734 276.851,336.095C277.346,337.303 277.667,337.191 277.408,338.469C277.35,338.755 276.676,342.573 275.298,342.727C273.211,342.96 273.961,337.6 273.413,336.553C272.437,334.69 269.304,334.491 267.62,334.621C262.38,335.026 258.508,339.679 257.285,344.589C256.362,348.294 261.389,350.667 263.562,351.896C268.73,354.821 273.7,355.97 278.117,360.125C278.872,360.835 279.949,361.545 280.029,362.579C280.138,364 279.224,365.326 278.616,366.615C275.914,372.346 267.079,378.785 260.377,375.872L260.377,375.872ZM263.562,371.543C263.562,371.323 263.351,371.166 263.174,371.079C262.9,370.945 262.425,370.841 262.171,371.076C262.091,371.15 262.037,371.281 262.012,371.374C261.993,371.444 261.986,371.517 261.99,371.589C261.994,371.655 262.01,371.722 262.036,371.784C262.237,372.265 262.823,372.207 263.193,371.983C263.33,371.9 263.562,371.733 263.562,371.543ZM269.572,370.359C270.087,369.979 270.594,369.588 271.086,369.179C271.46,368.868 271.826,368.548 272.168,368.202C272.386,367.981 272.581,367.736 272.763,367.484C272.945,367.231 272.8,366.85 272.475,367.1C272.076,367.408 271.807,367.89 271.296,368.043C270.517,368.276 270.496,368.128 269.71,368.342C268.98,368.541 268.03,369.058 267.476,369.402C267.018,369.686 266.59,370.017 266.171,370.357C266.019,370.481 265.883,370.627 265.769,370.788C265.15,371.662 266.642,371.564 267.015,371.49C267.887,371.319 268.861,370.884 269.572,370.359ZM208.178,370.458C205.592,367.668 206.541,364.318 207.165,361.046C207.846,357.471 207.737,357.477 208.582,354.439C208.892,353.324 208.635,351.645 209.077,350.643C209.786,349.041 211.709,349.876 212.487,350.81C213.96,352.581 213.271,355.44 212.9,357.415C212.385,360.157 211.717,362.879 211.424,365.654C211.289,366.934 213.273,371.943 210.053,371.499C209.715,371.452 209.382,371.335 209.084,371.169C208.748,370.983 208.439,370.74 208.178,370.458L208.178,370.458ZM296.154,367.648C294.315,365.986 294.013,364.198 293.613,361.77C293.492,361.034 293.559,359.192 292.977,358.268C291.837,356.459 288.386,361.684 287.485,359.384C287.21,358.679 288.056,358.307 288.468,357.959C290.222,356.472 292.333,355.324 293.832,353.567C294.693,352.557 295.003,352.039 295.262,350.808C295.815,348.179 295.605,345.606 299.052,346.078C299.711,346.168 300.357,346.395 300.945,346.706C301.611,347.058 302.222,347.524 302.768,348.044C305.687,350.826 305.6,353.79 306.257,357.543C306.413,358.432 306.679,358.443 306.361,359.42C305.909,360.809 305.372,362.17 304.804,363.516C303.663,366.221 301.463,370.399 297.757,368.789C297.156,368.528 296.641,368.087 296.154,367.648ZM302.048,360.075C302.23,359.093 302.565,358.527 303.113,357.728C303.337,357.402 303.714,357.208 303.646,356.746C303.578,356.29 302.849,355.214 302.709,354.998C302.322,354.403 301.101,351.93 299.971,353.038C299.612,353.39 299.282,353.782 299.033,354.219C298.731,354.751 298.508,355.33 298.334,355.916C297.648,358.226 297.509,361.307 298.571,363.537C299.028,364.497 300.276,363.035 300.433,362.872C301.151,362.13 301.855,361.123 302.048,360.075ZM315.447,368.172C314.47,367.124 314.674,364.765 314.82,363.666C315.401,359.299 317.458,355.138 318.92,351.036C319.451,349.547 320.567,345.877 323.011,346.447C326.629,347.29 328.842,350.423 329.742,353.809C330.005,354.795 330.029,355.831 330.251,356.827C330.382,357.416 330.562,357.997 330.799,358.551C330.878,358.734 331.235,359.11 331.481,358.803C334.381,355.195 335.577,350.313 337.673,346.226C338.662,344.299 339.244,342.071 341.192,340.802C341.192,340.802 342.381,339.836 342.568,339.905C342.756,339.974 342.319,341.213 342.319,341.213C342.239,341.63 339.623,348.156 339.582,348.29C338.028,353.333 337.738,359.29 334.998,363.912C334.063,365.488 331.457,368.02 329.366,366.089C327.391,364.265 326.876,361.399 326.239,358.988C325.878,357.622 325.73,356.196 325.266,354.862C325.03,354.185 324.833,353.266 324.161,353.019C323.671,352.838 323.247,353.581 322.948,354.008C322.49,354.661 322.171,355.415 321.944,356.179C321.026,359.263 320.611,362.815 319.476,365.879C318.863,367.535 317.456,370.328 315.447,368.173L315.447,368.172ZM355.191,364.583C354.42,363.731 352.987,363.364 352.226,362.44C350.412,360.239 350.226,357.476 350.277,354.754C350.344,351.234 351.052,348.605 353.335,345.867C355.178,343.656 357.437,342.009 360.229,341.274C361.746,340.875 363.315,340.165 364.859,340.439C367.099,340.837 368.549,342.963 369.77,344.634C369.916,344.833 370.773,345.717 370.865,346.014C371.701,348.715 370.237,352.564 369.311,355.019C369.129,355.5 368.873,355.958 368.564,356.369C368.549,356.389 367.769,357.471 367.436,356.871C367.064,356.204 366.977,355.404 366.612,354.733C366.473,354.476 366.133,354.295 366.127,354.004C366.087,351.849 366.965,349.749 366.97,347.594C366.974,346.001 365.218,344.084 363.514,344.444C362.192,344.723 360.908,345.173 359.645,345.652C358.348,346.144 356.421,347.096 355.384,348.154C353.196,350.387 353.544,354.408 354.749,357.012C355.209,358.005 356.263,359.64 357.665,359.605C360.72,359.529 362.091,356.435 364.701,355.489C365.856,355.07 366.887,358.533 366.889,358.652C366.904,359.431 364.553,361.707 364.466,361.792C362.246,363.946 360.612,365.068 357.434,365.356C356.785,365.415 355.667,365.109 355.191,364.583L355.191,364.583Z" style="fill-rule:nonzero;"/>
        </g>
    </g>
</svg>
