<?xml version="1.0" encoding="UTF-8" standalone="no"?>
<svg
   width="100%"
   height="100%"
   viewBox="0 0 581 114"
   version="1.1"
   xml:space="preserve"
   style="fill-rule:evenodd;clip-rule:evenodd;stroke-linejoin:round;stroke-miterlimit:2;"
   id="svg11"
   sodipodi:docname="chi-sono.svg"
   xmlns:inkscape="http://www.inkscape.org/namespaces/inkscape"
   xmlns:sodipodi="http://sodipodi.sourceforge.net/DTD/sodipodi-0.dtd"
   xmlns="http://www.w3.org/2000/svg"
   xmlns:svg="http://www.w3.org/2000/svg"><defs
   id="defs15" /><sodipodi:namedview
   id="namedview13"
   pagecolor="#ffffff"
   bordercolor="#666666"
   borderopacity="1.0"
   inkscape:pageshadow="2"
   inkscape:pageopacity="0.0"
   inkscape:pagecheckerboard="0"
   showgrid="false" />
    <g
   transform="translate(-7.46458,-295.218)"
   id="g9">
        <g
   id="background-splash"
   transform="matrix(-0.358268,-0.0214296,-0.0130479,0.21814,600.838,254.729)"
   style="display:none">
            <path
   d="m 679.124,325.886 c 0,6.444 -1.293,7.308 -4.999,3.404 -2.758,-2.885 -9.481,-9.208 -14.953,-14.046 -7.093,-6.236 -8.705,-9.691 -5.594,-12.127 5.275,-4.026 25.778,3.818 25.641,9.864 -0.052,2.367 -0.095,8.172 -0.095,12.905 z m -71.906,-7.584 c -4.076,1.192 -6.352,6.237 -6.653,14.702 -0.259,7.1 -1.034,14.011 -1.715,15.41 -0.698,1.365 -16.651,4.06 -35.466,5.995 -18.832,1.952 -36.465,4.855 -39.215,6.461 -5.309,3.162 -6.946,-6.15 -2.146,-12.093 1.569,-1.969 2.862,-7.135 2.862,-11.488 0,-6.272 -1.733,-6.755 -8.162,-2.246 -4.491,3.092 -9.3,4.992 -10.705,4.18 -1.405,-0.811 -5.765,2.125 -9.696,6.513 -4.542,5.062 -19.133,8.829 -39.981,10.28 -18.082,1.226 -35.121,2.591 -37.879,3.006 -8.473,1.33 -3.698,12.456 6.679,15.634 9.256,2.851 9.394,3.231 2.629,7.015 -9.731,5.424 -28.718,-1.279 -30.536,-10.832 -2.198,-11.42 -5.706,-9.45 -7.49,4.197 -1.12,8.604 -3.068,10.988 -6.938,8.552 -2.964,-1.883 -11.342,0.138 -18.616,4.561 -13.548,8.189 -18.349,6.582 -13.764,-4.509 3.18,-7.671 -9.868,-40.046 -14.066,-34.863 -1.56,1.935 -2.844,-1.969 -2.844,-8.638 0,-9.588 -1.215,-11.419 -5.714,-8.552 -3.421,2.177 -5.705,1.037 -5.705,-2.867 0,-3.576 -2.259,-5.235 -4.999,-3.663 -13.876,7.826 -23.572,9.778 -23.572,4.803 0,-3.058 2.568,-6.876 5.722,-8.517 6.051,-3.179 7.723,-18.071 2.724,-24.273 -1.638,-2.038 -4.878,-0.518 -7.214,3.352 -2.318,3.852 -4.55,6.012 -4.964,4.768 -0.405,-1.227 -2.422,-6.634 -4.473,-12.007 -3.267,-8.586 -2.724,-10.314 4.378,-13.942 11.127,-5.701 56.4,-4.215 73.81,2.419 7.852,3.006 13.635,6.064 12.851,6.79 -4.474,4.215 -39.327,3.8 -43.395,-0.484 -5.464,-5.753 -18.315,3.697 -20.487,15.064 -1,5.183 1.077,6.099 7.688,3.335 4.99,-2.108 23.201,-3.214 40.49,-2.488 33.225,1.434 42.594,-1.019 39.732,-10.297 -0.965,-3.127 -3.559,-4.336 -5.757,-2.643 -2.189,1.693 -6.171,1.399 -8.817,-0.639 -3.74,-2.885 -2.611,-5.321 4.999,-10.849 12.213,-8.846 34.776,-10.556 28.39,-2.16 -3.81,5.01 -3.81,6.254 0,11.264 6.024,7.93 10.377,7.204 20.685,-3.49 8.782,-9.104 9.127,-8.949 15.668,6.271 3.991,9.312 6.042,19.695 5.094,25.759 -1.155,7.308 0.646,12.007 6.455,16.809 8.636,7.187 17.255,2.35 32.225,-18.018 5.861,-7.965 9.222,-8.794 17.117,-4.267 15.815,9.121 45.438,7.273 47.394,-2.938 0.905,-4.716 2.741,-8.586 4.094,-8.586 1.361,0 1.732,3.87 0.819,8.586 -0.957,5.028 -0.026,8.604 2.24,8.673 2.12,0.017 6.766,1.624 10.3,3.507 4.662,2.505 6.42,1.037 6.42,-5.511 0,-9.692 17.272,-19.297 22.667,-12.628 4.982,6.201 3.465,13.647 -3.163,15.582 z m -115.179,65.303 c -3.922,1.987 -7.136,5.909 -7.136,8.707 0,2.817 -1.146,5.114 -2.56,5.114 -1.396,0 -3.275,-3.835 -4.171,-8.517 -1.845,-9.605 6.05,-20.092 15.1,-20.092 8.256,0 7.386,10.452 -1.233,14.788 z m -24.891,25.258 c -5.007,0 -6.955,-11.558 -3.197,-19.073 3.809,-7.67 8.291,-3.524 8.291,7.636 0,7.17 -1.905,11.437 -5.094,11.437 z m -15.703,0.674 c -1.749,3.489 -4.663,5.355 -6.464,4.146 -4.257,-2.851 -0.422,-10.556 5.258,-10.556 3.214,0 3.525,1.728 1.206,6.41 z m 20.504,-117.183 c 2.31,-1.78 4.956,-0.743 5.878,2.28 0.931,3.006 -0.957,5.459 -4.189,5.459 -6.895,0 -7.593,-3.161 -1.689,-7.739 z m 27.605,-6.271 c 7.8,-2.575 10.8,-1.262 12.049,5.286 1.371,7.152 -1.129,8.724 -13.945,8.724 -21.848,0 -20.978,-6.426 1.896,-14.01 z m 22.305,8.275 c 1.483,0 3.482,2.608 4.456,5.735 0.966,3.145 -0.25,5.736 -2.689,5.736 -2.448,0 -4.456,-2.591 -4.456,-5.736 0,-3.127 1.216,-5.735 2.689,-5.735 z m 88.402,125.959 c 2.973,0 6.145,-3.853 7.058,-8.569 2.715,-14.218 12.411,-10.348 13.937,5.58 0.741,7.809 0.681,15.531 -0.155,17.207 -2.043,4.06 -16.186,3.766 -21.728,-0.518 -6.257,-4.786 -5.68,-13.7 0.888,-13.7 z m 304.212,183.712 c 4.559,-3.645 9.696,-5.511 11.428,-4.215 1.724,1.313 -0.594,5.321 -5.153,8.966 -4.551,3.611 -9.688,5.529 -11.42,4.216 -1.724,-1.296 0.586,-5.339 5.145,-8.967 z m 92.047,18.382 c 0.85,1.71 -1.13,5.995 -4.4,9.484 -4.132,4.423 -5.959,4.544 -5.959,0.294 0,-6.927 8.019,-14.494 10.359,-9.778 z m 24.12,-24.601 c 9.72,0 10.17,3.507 2.96,22.39 -3.41,8.81 -6.96,12.473 -9.95,10.175 -2.55,-1.969 -4.5,-5.614 -4.31,-8.05 1.48,-19.937 3.59,-24.515 11.3,-24.515 z m 54.77,-117.615 c 7.47,-1.123 13.58,0.38 13.58,3.369 0,2.989 -7.08,5.477 -15.71,5.477 -8.65,0 -15.71,-1.313 -15.71,-2.885 0,-3.266 -0.3,-3.179 17.84,-5.961 z m 8.68,169.789 c -1.75,3.489 -4.65,5.407 -6.46,4.163 -4.26,-2.833 -0.41,-10.538 5.27,-10.538 3.21,0 3.53,1.693 1.19,6.375 z M 1196.1,592.99 c 3.93,0 5.54,1.296 3.56,2.885 -1.95,1.572 -5.17,1.572 -7.13,0 -1.96,-1.589 -0.36,-2.885 3.57,-2.885 z m 119.1,6.962 c 6.92,1.901 11.98,1.538 11.25,-0.846 -0.72,-2.35 8.81,-4.423 21.18,-4.544 18.82,-0.276 21.97,0.985 19.24,7.602 -1.81,4.336 -5.68,6.634 -8.61,5.096 -2.92,-1.503 -9.44,-0.173 -14.47,3.006 -5.04,3.179 -18.56,6.34 -30.06,6.98 -11.49,0.656 -21.48,-0.726 -22.22,-3.127 -2.79,-9.036 11.41,-17.536 23.69,-14.167 z M 263.907,297.07 c -1.328,-6.928 -4.948,-8.102 -17.445,-5.666 -27.7,5.39 -17.926,-3.145 13.506,-11.783 13.195,-3.628 13.566,-3.317 13.566,11.23 0,16.377 -6.835,20.8 -9.627,6.219 z M 43.786,248.559 c -2.456,0 -4.464,-2.574 -4.464,-5.701 0,-3.144 1.207,-5.736 2.689,-5.736 1.482,0 3.482,2.592 4.456,5.736 0.974,3.127 -0.241,5.701 -2.681,5.701 z M 1631.4,476.999 c -10.04,-20.973 -39.42,-51.897 -45.14,-47.509 -3.47,2.678 -4.57,-0.086 -4.57,-11.609 0,-9.295 -1.9,-16.343 -5,-18.364 -2.75,-1.78 -8.86,-6.755 -13.56,-11.057 -7.56,-6.824 -8.7,-6.651 -9.59,1.572 -0.56,5.097 1.99,13.855 5.67,19.401 3.68,5.58 6.06,11.212 5.31,12.577 -0.77,1.347 -11.03,3.697 -22.81,5.217 -11.78,1.538 -18.45,1.676 -14.83,0.346 11.33,-4.129 5.95,-19.677 -10.57,-30.475 -8.47,-5.511 -27.1,-11.73 -41.41,-13.804 -14.31,-2.09 -33.7,-4.906 -43.09,-6.323 -9.39,-1.364 -19.02,-3.696 -21.42,-5.217 -2.4,-1.52 -19.13,-3.939 -37.2,-5.39 -18.07,-1.451 -46.35,-4.094 -62.84,-5.874 -16.49,-1.779 -42.84,-4.509 -58.55,-6.098 -15.71,-1.59 -42.7,-5.857 -59.98,-9.502 -17.28,-3.628 -37.2,-7.118 -44.28,-7.722 -7.06,-0.64 -15.15,-3.127 -17.97,-5.511 -2.82,-2.367 -9.8,-2.816 -15.52,-0.951 -5.73,1.849 -11.79,1.123 -13.45,-1.606 -4.15,-6.807 -31.35,-12.594 -67.3,-14.305 -54.146,-2.626 -122.233,-10.849 -165.662,-20.04 -14.936,-3.144 -42.559,-6.928 -61.408,-8.396 -18.858,-1.451 -38.138,-4.025 -42.843,-5.787 -10.912,-3.974 -63.761,-9.208 -124.247,-12.266 -25.925,-1.279 -59.977,-4.078 -75.688,-6.168 -15.704,-2.09 -51.057,-4.595 -78.542,-5.546 -122.066,-4.249 -190.998,-8.067 -204.228,-11.298 -33.612,-8.206 -50.462,-7.826 -57.383,1.296 -4.74,6.185 -9.273,7.601 -14.72,4.543 -4.327,-2.436 -18.815,-5.286 -32.139,-6.34 -13.359,-1.036 -26.864,-2.211 -30.002,-2.609 -3.137,-0.38 -12.428,-0.051 -20.641,0.726 -16.488,1.572 -32.199,-8.569 -32.199,-20.8 0,-4.319 1.499,-7.878 3.335,-7.878 1.836,0 2.482,-1.71 1.439,-3.783 -1.034,-2.091 -4.145,0.276 -6.903,5.251 -4.37,7.947 -5.723,8.034 -10.549,0.933 -7.059,-10.331 -10.17,-10.313 -10.17,0.104 0,11.109 -3.689,14.978 -8.524,8.984 -3.224,-3.991 -3.275,-6.513 -0.328,-13.666 4.12,-9.985 1.957,-20.748 -4.163,-20.748 -3.861,0 -5.231,6.254 -4.473,20.247 0.173,3.231 -3.206,6.479 -7.515,7.17 -4.318,0.743 -8.265,3.852 -8.791,6.91 -0.509,3.075 -3.318,11.437 -6.223,18.555 -4.714,11.522 -4.843,14.373 -1.198,25.654 5.309,16.499 5.214,35.468 -0.207,39.649 -7.739,5.977 -4.714,24.825 6.042,37.558 9.92,11.73 10.256,13.181 8.61,37.177 -1.517,22.338 -0.991,25.638 5.042,31.149 4.585,4.163 6.309,9.588 5.369,16.758 -1.361,10.434 14.325,46.23 30.709,70.054 3.887,5.649 5.455,8.724 3.473,6.772 -5.077,-4.907 -8.127,14.425 -3.249,20.645 2.197,2.781 7.963,5.096 12.824,5.148 10.575,0.104 17.444,21.975 12.601,40.097 -4.129,15.445 -3.844,16.43 6.421,21.872 7.774,4.129 9.144,7.342 8.489,19.763 -0.595,11.23 0.793,15.739 5.714,18.607 11.549,6.633 24.184,19.573 27.873,28.453 1.982,4.803 5.429,8.707 7.662,8.707 2.232,0 10.239,11.61 17.806,25.759 15.212,28.539 24.83,32.703 33.13,14.321 6.438,-14.252 15.651,-16.55 9.817,-2.453 -5.672,13.7 1.835,20.455 17.323,15.514 12.868,-4.077 15.996,-4.008 39.982,0.708 16.987,3.386 32.846,-3.368 32.846,-14.01 0,-11.541 14.238,-16.24 50.556,-16.603 21.478,-0.242 31.252,1.78 32.846,6.824 4.404,13.821 14.876,21.025 31.355,21.647 30.734,1.158 42.179,-0.777 44.205,-7.325 1.473,-4.785 4.119,-4.561 10.058,0.898 11.239,10.331 63.002,18.9 69.845,11.593 3.663,-3.939 9.188,-3.715 17.393,0.708 6.627,3.576 18.512,7.618 26.424,8.914 7.895,1.331 26.21,4.941 40.672,8.016 39.68,8.5 53.151,7.464 56.84,-4.37 2.577,-8.276 6.843,-9.848 24.261,-8.915 57.848,3.023 76.697,2.298 81.8,-3.196 3.068,-3.3 6.731,-3.939 8.153,-1.434 1.413,2.523 10.032,7.792 19.142,11.661 14.617,6.289 17.435,5.978 23.994,-2.643 5.551,-7.307 10.929,-8.914 21.288,-6.444 7.619,1.797 13.842,1.123 13.842,-1.537 0,-8.362 9.868,-10.331 27.312,-5.442 9.326,2.609 26.606,6.271 38.379,8.189 11.782,1.9 23.356,4.854 25.709,6.565 6.249,4.612 83.684,16.653 137.404,21.422 19.96,1.762 29.55,0.259 35.16,-5.58 4.95,-5.166 9.44,-6.237 12.55,-3.006 8.74,9.087 28.42,17.69 32.79,14.339 2.35,-1.797 9.47,-0.501 15.81,2.937 15.34,8.257 49.58,8.413 69.05,0.259 8.65,-3.628 20.2,-7.515 25.7,-8.69 5.51,-1.158 15.15,-3.317 21.42,-4.768 6.29,-1.486 20.42,-3.266 31.42,-3.991 20.89,-1.348 33.98,-11.471 39.04,-30.233 1.55,-5.753 4.6,-9.087 6.79,-7.394 2.19,1.676 4.74,0.605 5.66,-2.419 1.78,-5.804 -2.06,-6.547 -42.92,-8.327 -14.14,-0.656 -37.91,-1.745 -52.84,-2.47 -14.92,-0.726 -29.7,-0.449 -32.84,0.587 -9.1,3.006 -6.64,-10.348 4.77,-25.827 10.44,-14.218 25.63,-20.144 33.78,-13.165 3.93,3.404 63.99,8.448 131.85,11.143 15.19,0.622 28.58,3.058 29.76,5.373 4.37,8.725 18.51,3.991 24.6,-8.241 l 6.26,-12.576 -7.06,-3.767 c -3.88,-2.073 -9.97,-7.377 -13.49,-11.799 -4.5,-5.58 -7.05,-6.116 -8.49,-1.745 -5.01,15.203 -14.86,12.75 -25.54,-6.288 -8.57,-15.307 -11.7,-17.881 -16.03,-13.234 -3.69,3.956 -6.33,3.818 -8.48,-0.501 -2.26,-4.492 -1.47,-6.236 2.81,-6.236 3.27,0 10.39,-3.732 15.83,-8.293 9.03,-7.567 16.34,-7.325 27.94,0.899 3.67,2.608 17.88,4.543 61.4,8.361 15.25,1.365 21.79,-0.846 20,-6.703 -0.97,-3.144 -4.83,-5.736 -8.58,-5.736 -3.74,0 -7.48,-2.211 -8.31,-4.871 -0.84,-2.73 -9.38,-8.276 -18.99,-12.37 -9.62,-4.077 -18.15,-10.918 -18.96,-15.117 -1.49,-7.808 -18.33,-10.866 -21.78,-3.921 -2.47,4.906 -32.53,7.653 -42.77,3.87 -5.99,-2.194 -7.24,-4.768 -5.03,-10.107 2.71,-6.547 -17.83,-7.1 -66.96,-1.848 -14.23,1.52 -21.42,-1.832 -21.42,-10.003 0,-10.003 -8.84,-11.489 -13.44,-2.28 -5.13,10.279 -29.35,10.02 -32.29,-0.329 -2.07,-7.342 -3.5,-7.636 -8.34,-1.693 -7.01,8.604 -14.47,9.329 -14.47,1.417 0,-3.127 -2.65,-5.718 -5.88,-5.718 -3.24,0 -5.17,-2.333 -4.29,-5.166 1.36,-4.423 -29.4,-9.813 -79.08,-13.769 -7.45,-0.622 -13.56,-2.108 -13.56,-3.3 -0.03,-4.336 12.35,-23.547 15.18,-23.547 1.59,0 2.15,-1.52 1.23,-3.369 -0.91,-1.814 -4.43,-0.328 -7.83,3.335 -7.37,7.878 -44.39,13.872 -51.04,8.223 -2.58,-2.194 -10.96,-4.734 -18.62,-5.701 -17.79,-2.211 -22.3,-10.469 -10.3,-18.831 15.18,-10.642 8.81,-19.885 -14.48,-21.008 -11.69,-0.587 -26.07,-3.005 -31.95,-5.39 -8.79,-3.576 -11.01,-2.556 -12.6,5.702 -1.2,6.288 -0.16,12.628 2.78,16.93 2.59,3.801 3.87,8.586 2.85,10.642 -2.77,5.528 -18.85,4.336 -23.67,-1.78 -2.61,-3.282 -5.47,-3.161 -7.6,0.381 -4.01,6.703 -8.15,-2.937 -5.28,-12.266 2.11,-6.842 -12.38,-1.279 -17.46,6.686 -1.72,2.677 -3.849,3.438 -4.728,1.658 -0.896,-1.762 -9.118,-4.129 -18.306,-5.252 -42.809,-5.217 -65.114,-9.26 -66.51,-12.093 -0.845,-1.676 -1.534,-7.152 -1.568,-12.162 -0.018,-5.028 -1.638,-10.193 -3.603,-11.541 -1.965,-1.313 -3.568,1.987 -3.568,7.308 0,6.081 -1.526,8.483 -4.137,6.479 -2.87,-2.212 -3.62,-0.432 -2.422,5.735 1.405,7.36 0.164,8.293 -6.929,5.148 -6.413,-2.816 -9.076,-1.52 -10.334,5.097 -0.94,4.872 -3.809,8.88 -6.378,8.88 -2.973,0 -4.085,-3.127 -3.051,-8.535 2.56,-13.388 -10.773,-16.965 -23.925,-6.409 -14.678,11.765 -30.993,12.093 -33.191,0.622 -0.991,-5.183 -5.3,-8.569 -10.902,-8.569 -5.076,0 -13.316,-4.094 -18.28,-9.035 -5.775,-5.788 -12.11,-7.671 -17.574,-5.269 -7.619,3.351 -8.549,2.28 -8.549,-9.882 0,-7.481 1.43,-16.499 3.188,-19.989 4.956,-9.933 0.354,-19.953 -6.024,-13.112 -2.948,3.179 -7.688,5.356 -10.541,4.82 -11.445,-1.969 -15.177,1.175 -15.177,12.87 0,13.493 -6.662,12.18 -7.989,-1.606 -0.518,-5.321 3.102,-12.543 9.161,-18.295 5.499,-5.252 10.903,-12.439 12.006,-16.015 3.223,-10.452 -30.967,-1.279 -34.854,9.363 -1.775,4.907 -4.24,8.88 -5.456,8.88 -2.947,0 -9.523,16.827 -12.884,32.928 -4.43,21.215 -10.403,15.704 -10.911,-10.037 -0.251,-12.577 0.508,-23.184 1.672,-23.547 1.172,-0.363 5.817,-1.521 10.307,-2.557 9.774,-2.298 11.644,-5.235 8.904,-14.115 -1.345,-4.37 -6.111,-5.338 -13.851,-2.885 -22.572,7.239 -78.921,9.122 -78.921,2.678 0,-3.403 -3.973,-5.286 -9.006,-4.302 -9.955,2.005 -14.161,-8.655 -6.119,-15.41 4.455,-3.783 60.761,-9.795 85.04,-9.07 4.706,0.156 13.35,-6.478 19.357,-14.822 5.964,-8.293 15.152,-15.583 20.383,-16.222 5.249,-0.657 11.032,-3.007 12.834,-5.235 1.827,-2.28 6.817,-3.386 11.109,-2.488 4.283,0.898 9.256,-0.173 11.049,-2.401 1.81,-2.212 4.016,-0.208 4.913,4.492 1.146,5.994 -0.259,8.586 -4.706,8.637 -3.482,0.07 -8.058,2.316 -10.162,4.976 -2.809,3.559 -1.654,5.995 4.275,8.966 4.465,2.281 8.765,4.25 9.558,4.423 0.776,0.19 3.008,-5.822 4.948,-13.355 2.688,-10.4 3.533,-11.281 3.568,-3.645 0.051,9.934 11.135,14.529 15.229,6.306 1.999,-4.025 9.644,-6.064 40.516,-10.832 10.989,-1.693 22.831,-5.926 26.321,-9.45 4.878,-4.906 7.429,-4.543 11.153,1.658 3.344,5.581 13.161,8.138 32.234,8.414 15.065,0.207 35.112,3.68 44.541,7.757 9.429,4.06 22.279,8.033 28.553,8.793 6.292,0.726 19.78,5.148 30.002,9.796 10.195,4.664 25.625,7.618 34.265,6.599 24.96,-2.971 41.16,-1.607 42.77,3.542 0.83,2.643 8.37,4.44 16.78,4.008 8.39,-0.449 15.86,1.123 16.58,3.49 1.98,6.392 12.42,5.2 12.42,-1.434 0,-8.552 8.89,-6.911 14.14,2.608 3.37,6.116 17.91,9.813 54.49,13.89 27.45,3.058 56.45,5.425 64.45,5.287 8.01,-0.104 17.18,2.557 20.38,5.994 3.55,3.818 26.87,6.479 59.71,6.876 64.61,0.726 89.56,2.54 95.3,6.997 2.35,1.831 11.67,4.975 20.71,7.014 9.03,2.021 16.42,5.839 16.42,8.482 0,12.612 -57.3,13.337 -59.39,0.761 -1.54,-9.278 -9.16,-7.861 -9.16,1.727 0,4.44 -3.86,11.523 -8.57,15.704 -16.12,14.305 -10.8,21.059 18.33,23.34 10.87,0.846 20.18,4.094 20.71,7.239 1.32,7.998 -27.65,9.588 -35.25,1.917 -7.74,-7.791 -20.92,-1.728 -20.92,9.623 0,6.081 3.24,8.5 11.42,8.5 6.28,0 11.42,2.436 11.42,5.424 0,3.214 5.97,4.06 14.29,2.073 10.17,-2.401 14.28,-1.399 14.28,3.507 0,4.82 4.12,6.064 13.57,4.147 7.45,-1.503 13.88,-2.972 14.28,-3.231 3,-2.004 5.01,0.639 5.06,6.686 0.04,4.837 4.03,6.651 12.36,5.563 7.84,-1.019 11.63,0.552 10.48,4.301 -2.64,8.517 7.25,7.118 16.3,-2.349 7.11,-7.446 7.73,-7.239 7.13,2.194 -0.86,13.976 32.63,60.293 35.7,49.375 2.05,-7.36 12.86,-7.205 52.74,0.622 12.81,2.505 15.3,1.261 18.52,-9.07 2.06,-6.583 4.95,-12.007 6.4,-12.007 1.47,0 7.47,-4.492 13.34,-10.003 14.58,-13.7 17.21,-37.143 6.63,-59.274 z"
   style="fill-rule:nonzero"
   id="path2" />
        </g>
        <path
   id="freccia"
   d="m 539.376,363.511 c -0.507,-0.507 -0.325,-1.446 -0.163,-2.145 0.509,-2.187 2.499,-5.277 3.891,-6.883 2.093,-2.416 5.017,-4.344 7.482,-6.347 1.969,-1.6 3.656,-3.577 5.815,-4.907 0.863,-0.532 7.632,-3.539 7.961,-3.806 1.041,-0.846 -1.068,-2.662 -2.211,-3.365 -0.257,-0.157 -18.373,-10.214 -20.042,-11.096 -0.011,-0.005 -7.402,-2.668 -5.151,-4.534 3.161,-2.62 8.753,-0.368 11.846,0.951 8.331,3.553 17.511,7.182 23.08,14.701 0.864,1.165 1.661,2.399 2.252,3.723 1.667,3.737 -0.555,4.075 -3.392,5.205 -2.851,1.136 -5.735,2.216 -8.478,3.594 -2.956,1.486 -5.752,3.271 -8.585,4.98 -4.116,2.485 -5.29,3.59 -9.307,6.995 -1.473,1.249 -3.632,4.3 -4.998,2.934 z m -83.603,-20.423 c -2.689,-2.69 -9.801,2.91 -10.429,-3.315 -0.448,-4.44 8.354,-2.764 10.537,-2.962 5.489,-0.499 10.927,-1.55 16.431,-1.852 10.074,-0.553 20.17,-0.815 30.258,-0.71 9.694,0.102 19.398,0.456 29.053,1.33 4.082,0.37 10.863,0.413 11.457,4.469 0.1,0.682 -0.996,1.175 -1.686,1.2 -8.561,0.317 -17.133,-0.25 -25.699,-0.188 -12.639,0.092 -25.279,0.272 -37.913,0.65 -5.184,0.155 -10.356,0.587 -15.529,0.947 -2.16,0.15 -4.949,1.96 -6.48,0.43 z"
   style="fill-rule:nonzero" />
        <g
   id="scritta"
   transform="matrix(1.45094,0,0,1.45094,-129.54,-172.193)"
   style="display:none">
            <path
   d="m 135.527,389.316 c -12.972,-3.414 -17.568,-18.441 -14.91,-30.238 1.117,-4.957 5.144,-8.782 8.115,-12.904 4.253,-5.9 12.533,-11.411 18.552,-14.678 3.158,-1.715 4.923,-2.92 6.805,-3.349 0.769,-0.175 5.074,-1.144 5.637,-1.23 1.156,-0.177 3.635,-0.162 4.482,0.009 3.093,0.626 6.213,4.204 6.571,6.822 0,0 0.573,1.416 0.263,1.915 -0.311,0.499 -2.125,1.077 -2.125,1.077 -2.245,1.137 -2.074,-0.251 -2.294,-2.673 -0.195,-2.142 -1.533,-3.087 -3.581,-3.591 -4.631,-1.138 -9.145,2.77 -13.54,4.621 -10.93,4.601 -24.853,17.994 -25.395,29.902 l -0.198,4.364 1.78,4.075 c 2.986,6.837 4.738,9.039 8.984,11.295 l 2.636,1.4 6.42,-0.033 c 2.973,-0.015 5.935,-0.379 8.891,-0.688 0.904,-0.095 6.229,-1.455 7.91,-0.402 0.357,0.223 -0.609,0.601 -0.985,0.79 -1.198,0.6 -5.362,2.089 -6.513,2.422 -5.387,1.554 -11.99,2.546 -17.505,1.094 z m 43.274,-10.108 c -1.157,-1.394 -1.893,-5.41 -1.81,-9.872 l 0.084,-4.472 -2.965,0.265 c -1.713,0.153 -3.448,-0.009 -5.153,-0.23 -1.245,-0.162 -2.59,-0.249 -3.656,-0.914 -0.324,-0.203 -0.399,-2.455 0.025,-2.77 2.297,-1.703 5.953,-0.651 8.573,-0.844 0.8,-0.059 3.229,-0.551 3.763,-1.234 1.732,-2.219 0.806,-6.332 1.917,-8.864 0.547,-1.244 0.384,-1.598 0.922,-2.846 0.268,-0.619 0.749,-1.116 0.756,-1.79 0.027,-2.999 5.058,-3.275 4.893,-0.295 -0.062,1.111 -1.745,0.335 -1.928,1.511 -0.208,1.343 -0.212,2.71 -0.309,4.065 -0.14,1.954 -0.072,3.932 -0.4,5.863 l -0.324,1.91 1.921,0.153 c 1.335,0.106 2.678,-0.223 3.982,-0.526 1.753,-0.407 3.571,-0.746 5.157,-1.596 1.794,-0.962 1.561,-6.042 1.616,-6.585 0.118,-1.188 -0.242,-10.633 4.083,-8.092 0.547,0.322 0.411,1.212 0.487,1.843 0.27,2.257 0.604,4.521 0.599,6.795 -0.014,6.842 -2.456,13.376 -3.086,20.196 -0.063,0.679 0.251,3.247 -0.751,4.105 -0.671,0.575 -1.684,-0.391 -1.962,-0.757 -0.665,-0.875 -1.41,-1.774 -1.677,-2.84 -0.311,-1.242 -0.066,-2.563 0.003,-3.841 0.076,-1.39 0.359,-2.764 0.431,-4.154 0.182,-3.552 -4.396,-0.692 -6.521,-0.103 -1.655,0.459 -3.654,0.325 -4.939,1.464 -0.916,0.811 -0.658,2.37 -0.764,3.588 -0.309,3.55 0.729,7.241 -0.168,10.69 -0.309,1.19 -2.39,0.67 -2.799,0.177 z m 81.576,-3.336 c -0.761,-0.331 -3.463,-3.288 -2.699,-4.764 0.364,-0.703 1.439,-0.659 2.171,-0.956 1.954,-0.794 7.117,-2.774 9.076,-3.425 2.087,-0.695 5.858,0.013 5.474,-3.172 -1.085,-9.007 -19.337,-4.964 -21.148,-14.412 -1.395,-7.284 3.442,-13.123 8.747,-17.24 2.184,-1.695 6.136,-4.882 9.318,-3.634 0.933,0.366 4.002,2.636 4.554,3.524 0.776,1.249 0.423,2.941 0.981,4.302 0.495,1.208 0.816,1.096 0.557,2.374 -0.058,0.286 -0.732,4.104 -2.11,4.258 -2.087,0.233 -1.337,-5.127 -1.885,-6.174 -0.976,-1.863 -4.109,-2.062 -5.793,-1.932 -5.24,0.405 -9.112,5.058 -10.335,9.968 -0.923,3.705 4.104,6.078 6.277,7.307 5.168,2.925 10.138,4.074 14.555,8.229 0.755,0.71 1.832,1.42 1.912,2.454 0.109,1.421 -0.805,2.747 -1.413,4.036 -2.702,5.731 -11.537,12.17 -18.239,9.257 z m 3.185,-4.329 c 0,-0.22 -0.211,-0.377 -0.388,-0.464 -0.274,-0.134 -0.749,-0.238 -1.003,-0.003 -0.08,0.074 -0.134,0.205 -0.159,0.298 -0.019,0.07 -0.026,0.143 -0.022,0.215 0.004,0.066 0.02,0.133 0.046,0.195 0.201,0.481 0.787,0.423 1.157,0.199 0.137,-0.083 0.369,-0.25 0.369,-0.44 z m 6.01,-1.184 c 0.515,-0.38 1.022,-0.771 1.514,-1.18 0.374,-0.311 0.74,-0.631 1.082,-0.977 0.218,-0.221 0.413,-0.466 0.595,-0.718 0.182,-0.253 0.037,-0.634 -0.288,-0.384 -0.399,0.308 -0.668,0.79 -1.179,0.943 -0.779,0.233 -0.8,0.085 -1.586,0.299 -0.73,0.199 -1.68,0.716 -2.234,1.06 -0.458,0.284 -0.886,0.615 -1.305,0.955 -0.152,0.124 -0.288,0.27 -0.402,0.431 -0.619,0.874 0.873,0.776 1.246,0.702 0.872,-0.171 1.846,-0.606 2.557,-1.131 z m -61.394,0.099 c -2.586,-2.79 -1.637,-6.14 -1.013,-9.412 0.681,-3.575 0.572,-3.569 1.417,-6.607 0.31,-1.115 0.053,-2.794 0.495,-3.796 0.709,-1.602 2.632,-0.767 3.41,0.167 1.473,1.771 0.784,4.63 0.413,6.605 -0.515,2.742 -1.183,5.464 -1.476,8.239 -0.135,1.28 1.849,6.289 -1.371,5.845 -0.338,-0.047 -0.671,-0.164 -0.969,-0.33 -0.336,-0.186 -0.645,-0.429 -0.906,-0.711 z m 87.976,-2.81 c -1.839,-1.662 -2.141,-3.45 -2.541,-5.878 -0.121,-0.736 -0.054,-2.578 -0.636,-3.502 -1.14,-1.809 -4.591,3.416 -5.492,1.116 -0.275,-0.705 0.571,-1.077 0.983,-1.425 1.754,-1.487 3.865,-2.635 5.364,-4.392 0.861,-1.01 1.171,-1.528 1.43,-2.759 0.553,-2.629 0.343,-5.202 3.79,-4.73 0.659,0.09 1.305,0.317 1.893,0.628 0.666,0.352 1.277,0.818 1.823,1.338 2.919,2.782 2.832,5.746 3.489,9.499 0.156,0.889 0.422,0.9 0.104,1.877 -0.452,1.389 -0.989,2.75 -1.557,4.096 -1.141,2.705 -3.341,6.883 -7.047,5.273 -0.601,-0.261 -1.116,-0.702 -1.603,-1.141 z m 5.894,-7.573 c 0.182,-0.982 0.517,-1.548 1.065,-2.347 0.224,-0.326 0.601,-0.52 0.533,-0.982 -0.068,-0.456 -0.797,-1.532 -0.937,-1.748 -0.387,-0.595 -1.608,-3.068 -2.738,-1.96 -0.359,0.352 -0.689,0.744 -0.938,1.181 -0.302,0.532 -0.525,1.111 -0.699,1.697 -0.686,2.31 -0.825,5.391 0.237,7.621 0.457,0.96 1.705,-0.502 1.862,-0.665 0.718,-0.742 1.422,-1.749 1.615,-2.797 z m 13.399,8.097 c -0.977,-1.048 -0.773,-3.407 -0.627,-4.506 0.581,-4.367 2.638,-8.528 4.1,-12.63 0.531,-1.489 1.647,-5.159 4.091,-4.589 3.618,0.843 5.831,3.976 6.731,7.362 0.263,0.986 0.287,2.022 0.509,3.018 0.131,0.589 0.311,1.17 0.548,1.724 0.079,0.183 0.436,0.559 0.682,0.252 2.9,-3.608 4.096,-8.49 6.192,-12.577 0.989,-1.927 1.571,-4.155 3.519,-5.424 0,0 1.189,-0.966 1.376,-0.897 0.188,0.069 -0.249,1.308 -0.249,1.308 -0.08,0.417 -2.696,6.943 -2.737,7.077 -1.554,5.043 -1.844,11 -4.584,15.622 -0.935,1.576 -3.541,4.108 -5.632,2.177 -1.975,-1.824 -2.49,-4.69 -3.127,-7.101 -0.361,-1.366 -0.509,-2.792 -0.973,-4.126 -0.236,-0.677 -0.433,-1.596 -1.105,-1.843 -0.49,-0.181 -0.914,0.562 -1.213,0.989 -0.458,0.653 -0.777,1.407 -1.004,2.171 -0.918,3.084 -1.333,6.636 -2.468,9.7 -0.613,1.656 -2.02,4.449 -4.029,2.294 z m 39.744,-3.589 c -0.771,-0.852 -2.204,-1.219 -2.965,-2.143 -1.814,-2.201 -2,-4.964 -1.949,-7.686 0.067,-3.52 0.775,-6.149 3.058,-8.887 1.843,-2.211 4.102,-3.858 6.894,-4.593 1.517,-0.399 3.086,-1.109 4.63,-0.835 2.24,0.398 3.69,2.524 4.911,4.195 0.146,0.199 1.003,1.083 1.095,1.38 0.836,2.701 -0.628,6.55 -1.554,9.005 -0.182,0.481 -0.438,0.939 -0.747,1.35 -0.015,0.02 -0.795,1.102 -1.128,0.502 -0.372,-0.667 -0.459,-1.467 -0.824,-2.138 -0.139,-0.257 -0.479,-0.438 -0.485,-0.729 -0.04,-2.155 0.838,-4.255 0.843,-6.41 0.004,-1.593 -1.752,-3.51 -3.456,-3.15 -1.322,0.279 -2.606,0.729 -3.869,1.208 -1.297,0.492 -3.224,1.444 -4.261,2.502 -2.188,2.233 -1.84,6.254 -0.635,8.858 0.46,0.993 1.514,2.628 2.916,2.593 3.055,-0.076 4.426,-3.17 7.036,-4.116 1.155,-0.419 2.186,3.044 2.188,3.163 0.015,0.779 -2.336,3.055 -2.423,3.14 -2.22,2.154 -3.854,3.276 -7.032,3.564 -0.649,0.059 -1.767,-0.247 -2.243,-0.773 z"
   style="fill-rule:nonzero"
   id="path6" />
        </g>
    </g>
</svg>
