<svg width="100%" height="100%" viewBox="0 0 758 89" version="1.1" xmlns="http://www.w3.org/2000/svg" xmlns:xlink="http://www.w3.org/1999/xlink" xml:space="preserve" xmlns:serif="http://www.serif.com/" id="email-address">
    <g transform="matrix(1,0,0,1,-68.2245,-242.339)">
        <path id="email" d="M73.991,329.191C70.141,326.884 68.803,322.129 68.235,318.002C68.132,317.252 68.793,313.364 70.229,313.262C70.999,313.207 71.212,314.476 71.516,315.185C72.323,317.073 72.604,319.175 73.54,321.002C76.195,326.189 82.439,327.432 86.558,323.112C88.838,320.721 90.891,318.101 92.718,315.348C100.525,303.588 102.41,299.584 106.433,286.053C108.632,278.659 109.051,265.361 117.359,260.6C118.071,260.193 117.718,262.25 117.552,263.053C116.328,268.971 114.739,274.808 113.21,280.654C109.068,296.49 104.073,313.478 91.311,324.727C86.991,328.535 79.837,332.695 73.991,329.191L73.991,329.191ZM149.922,284.588L149.595,286.079L152.513,286.185C156.126,286.316 158.765,283.746 162.34,285.143C164.143,285.848 161.939,287.77 161.399,288.154C159.316,289.632 156.985,290.823 154.443,291.279L151.394,291.826L150.519,294.74C149.916,296.752 150.428,298.961 150.03,301.024C149.705,302.711 149.162,304.38 148.367,305.904C146.347,309.774 143.706,304.461 143.764,302.75C143.853,300.115 147.739,295.953 146.256,292.956C145.822,292.079 143.866,292.336 143.251,292.291C141.446,292.159 139.65,291.89 137.842,291.802C136.931,291.758 135.846,291.363 135.107,291.898C134.529,292.315 134.891,293.306 134.786,294.011C133.916,299.84 134.144,300.382 132.119,305.953C131.373,308.005 129.387,307.912 128.022,306.188C126.969,304.859 126.073,303.333 125.639,301.694C124.278,296.558 129.577,290.345 131.326,286.372C135.044,277.929 137.095,268.46 142.202,260.641C143.138,259.209 144.151,257.797 145.397,256.623C146.216,255.851 147.208,255.172 148.299,254.894C154.969,253.196 153.66,268.954 153.593,269.961C153.116,277.067 151.426,277.74 149.922,284.588ZM312.828,306.698C296.703,303.152 303.117,280.852 306.686,270.637C308.536,265.341 310.524,260.912 314.285,256.655C315.51,255.269 317.321,254.512 318.64,253.215C319.932,251.945 324.096,248.508 325.498,247.307C326.003,246.874 328.777,245.592 329.827,244.885C330.075,244.719 330.321,244.56 330.567,244.41C333.999,242.309 337.249,241.799 341.303,242.916C347.361,244.584 350.067,252.546 349.74,258.128C349.362,264.595 345.351,270.145 340.998,274.625C340.268,275.376 338.975,275.346 338.195,276.044C335.541,278.422 333.392,281.318 330.799,283.761C328.217,286.192 324.483,289.263 320.555,288.933C316.118,288.56 315.803,285.248 316.985,281.352C318.894,275.061 324.363,269.788 329.201,265.795C331.095,264.231 334.745,261.924 337.473,262.056C339.511,262.154 341.873,267.2 343.417,263.256C343.813,262.245 343.83,261.114 343.848,260.029C343.939,254.376 342.425,248.224 335.43,248.982C332.273,249.323 329.19,251.103 326.656,252.814C325.149,253.831 321.244,257.171 320.071,258.433C313.943,265.031 312.162,272.732 309.964,281.325C308.567,286.787 305.12,297.179 312.226,300.792C319.521,304.502 331.487,295.867 336.563,293.344C339.417,291.925 342.415,290.784 345.178,289.196C345.985,288.733 346.451,286.604 347.149,287.219C349.587,289.365 343.621,293.004 342.967,293.526C334.586,300.208 324.497,309.263 312.829,306.698L312.828,306.698ZM789.878,306.517C788.799,305.212 788.822,301.942 789.3,300.488C791.16,294.82 793.568,291.496 795.818,286.004C796.316,284.788 796.317,283.389 796.905,282.214C797.991,280.041 800.716,278.513 800.687,275.787C800.674,274.507 798.114,275.623 796.847,275.81C794.5,276.157 794.317,275.585 792.147,276.665C790.625,277.423 790.72,278.551 788.718,278.103C787.02,277.722 785.542,275.294 785.999,273.614C786.756,270.836 790.692,271.22 792.811,270.797C800.995,269.165 808.311,267.473 816.561,266.855C816.861,266.833 822.617,265.975 824.148,266.726C826.45,267.856 825.275,270.33 823.446,270.99C818.298,272.847 812.432,271.879 807.319,273.817C806.469,274.139 807.011,276.272 806.834,276.695C806.26,278.063 805.241,279.204 804.583,280.533C801.196,287.368 797.723,294.169 794.703,301.173C793.912,303.007 794.903,307.003 791.675,307.106C791.044,307.126 790.278,307.004 789.876,306.518L789.878,306.517ZM742.056,304.132C741.092,303.78 741.373,303.321 740.471,302.882C740.316,302.806 739.406,303.054 739.343,302.652C739.318,302.497 739.591,302.396 739.66,302.333C740.114,301.923 740.216,301.825 740.437,301.248C740.862,300.138 740.819,299.661 741.544,298.681C741.804,298.329 742.214,298.107 742.475,297.756C742.774,297.353 742.513,297.029 742.87,296.646C743.212,296.28 743.734,296.316 744.11,296.016C745.179,295.161 745.458,293.458 747.013,293.235C747.323,293.19 747.639,293.293 747.943,293.368C749.616,293.785 749.884,296.034 749.566,297.436C749.144,299.292 747.941,300.845 746.813,302.319C746.189,303.135 745.36,304.201 744.326,304.575C743.582,304.843 742.709,304.37 742.056,304.132L742.056,304.132ZM548.803,303.309C547.394,301.663 548.051,297.567 550.437,297.06C551.39,296.858 552.439,297.421 553.361,297.103C554.059,296.862 557.865,297.119 559.188,296.272C568.664,290.208 577.144,280.948 571.405,269.507C570.519,267.741 569.24,266.197 568.05,264.62C567.303,263.629 566.552,265.389 566.319,265.72C564.791,267.888 563.055,269.917 561.692,272.192C557.5,279.19 554.539,286.88 550.33,293.868C549.495,295.255 547.08,297.304 545.571,295.371C543.943,293.287 545.64,290.337 546.429,288.426C549.17,281.786 552.142,275.238 554.72,268.533C555.642,266.136 554.785,264.521 556.403,262.313C556.604,262.04 559.766,260.491 559.986,262.033C560.143,263.125 559.773,264.235 559.805,265.338C559.825,266.012 560.306,267.579 560.787,267.107C562.597,265.329 564.109,262.244 564.266,259.691C564.329,258.667 563.46,257.71 563.577,256.691C563.7,255.622 565.637,253.758 566.933,254.432C569.309,255.669 570.011,258.876 571.351,260.828C574,264.683 575.491,264.96 577.662,269.176C583.417,280.352 572.938,292.471 564.789,298.868C559.949,302.668 558.301,303.103 552.308,304.211C551.377,304.383 549.485,304.107 548.803,303.31L548.803,303.309ZM666.655,302.837C666.032,302.216 666.493,300.415 666.233,299.745C665.944,298.999 666.916,295.966 666.98,295.658C667.257,294.313 666.474,292.933 666.547,291.563C666.591,290.745 667.087,290.016 667.323,289.231C667.518,288.581 667.964,287.166 667.286,287.195C663.403,287.366 660.357,288.543 657.183,290.736C654.145,292.835 651.428,295.369 648.448,297.549C647.622,298.154 646.341,298.524 645.325,298.16C643.462,297.491 644.837,294.856 645.483,294.028C648.309,290.409 651.464,287.058 654.344,283.481C657.212,279.917 659.996,276.285 662.722,272.611C664.993,269.551 666.717,265.415 670.66,264.053C672.515,263.413 673.382,266.641 673.384,267.642C673.389,270.318 671.26,275.488 673.938,277.912C675.875,279.665 680,276.729 681.628,276.516C682.678,276.379 683.233,275.708 684.287,275.609C684.909,275.55 685.782,276.01 686.404,276.068C686.777,276.102 686.188,276.806 685.949,277.094C685.186,278.011 684.45,279.013 683.435,279.639C680.619,281.376 677.366,282.337 674.572,284.109C673.433,284.832 672.944,287.185 672.782,288.322C671.952,294.186 672.207,296.463 670.74,302.234C670.374,303.675 667.348,303.534 666.65,302.836L666.655,302.837ZM767.037,301.28C765.506,299.637 766.189,296.865 766.639,295.034C767.195,292.776 769.05,288.092 769.227,287.903C769.937,287.145 770.664,284.681 771.058,283.782C771.221,283.412 771.592,283.124 771.653,282.724C772.022,280.32 771.176,280.34 771.586,277.942C771.877,276.244 772.608,272.7 775.28,273.798C777.084,274.54 776.892,278.075 776.862,279.355C776.822,281.046 776.793,282.747 776.535,284.419C776.236,286.345 775.05,288.06 774.743,289.985C774.611,290.814 774.19,291.237 773.906,291.534C773.432,292.031 773.235,292.753 773.083,293.423C772.365,296.588 773.181,296.684 772.25,299.759C771.634,301.793 768.628,302.989 767.037,301.281L767.037,301.28ZM372.811,301.61C368.347,300.246 360.292,294.811 365.211,289.655C365.62,289.226 366.145,288.883 366.706,288.69C367.365,288.464 368.092,288.321 368.78,288.431C373.785,289.23 367.754,292.889 370.102,295.051C372.992,297.711 378.996,296.222 380.339,292.586C384.527,281.244 386.68,271.323 389.755,259.663C390.328,257.487 390.978,252.153 394.489,252.055C395.923,252.015 396.892,253.422 396.854,254.699C396.763,257.678 395.602,257.838 394.667,260.498C394.034,262.297 393.61,264.164 393.159,266.017C389.654,280.412 390.209,281.462 384.898,295.348C383.094,300.064 377.773,303.126 372.811,301.61L372.811,301.61ZM180.898,301.765C168.349,299.104 173.173,281.867 175.847,273.872C176.552,271.764 177.331,269.671 178.292,267.666C179.633,264.87 181.855,261.947 183.907,259.648C184.776,258.676 186.354,257.03 187.904,257.837C193.662,260.838 192.851,269.867 188.027,273.425C187.23,274.013 185.012,273.024 184.649,272.305C184.341,271.693 185.512,270.258 185.687,269.851C186.309,268.401 187.017,266.967 187.377,265.431C187.439,265.164 186.82,265.587 186.638,265.792C185.999,266.513 185.423,267.301 184.964,268.148C183.831,270.24 182.782,272.384 181.875,274.584C179.505,280.334 177.225,285.899 178.434,292.176C179.022,295.228 182.443,296.679 185.184,295.511C190.991,293.037 194.507,288.166 199.29,284.248C200.123,283.565 201.067,282.878 202.131,282.711C202.557,282.644 203.111,283.245 203.007,283.664C202.401,286.089 199.876,288.349 198.368,290.126C194.029,295.238 188.793,303.439 180.898,301.765L180.898,301.765ZM488.314,300.915C487.368,300.313 486.816,297.889 486.946,296.919C487.357,293.846 487.909,290.78 488.733,287.792C489.564,284.775 490.792,281.882 491.897,278.955C493.84,273.805 495.957,268.722 497.876,263.564C498.578,261.678 498.867,259.632 499.758,257.828C502.428,252.422 508.76,250.927 514.22,252.235C515.548,252.553 516.908,252.945 518.047,253.699C519.135,254.419 520.049,255.435 520.733,256.546C526.265,265.527 516.955,272.762 510.038,276.675C508.023,277.815 505.861,278.686 503.871,279.869C501.909,281.035 499.947,282.235 498.204,283.708C494.271,287.031 494.707,292.473 493.364,296.923C492.818,298.735 491.034,302.644 488.314,300.915L488.314,300.915ZM519.931,299.892C517.174,298.211 516.634,294.732 516.673,291.787C516.767,284.558 520.373,277.715 525.196,272.516C527.468,270.066 530.463,266.727 534.297,267.794C537.339,268.641 537.775,272.776 537.404,275.308C537.081,277.506 536.24,281.831 535.311,283.887C534.145,286.468 532.417,287.668 530.956,290.043C529.523,292.374 528.383,294.876 526.983,297.228C525.539,299.653 522.719,301.592 519.931,299.892L519.931,299.892ZM397.662,300.001C396.924,299.264 397.535,297.352 397.802,296.656C398.472,294.904 399.338,293.229 399.976,291.466L401.687,286.739L400.484,286.437C399.61,286.217 398.848,283.368 399.752,283.366C400.644,283.363 401.098,282.833 401.899,282.441C402.836,281.984 404.391,280.751 405.124,279.44C408.14,274.045 410.681,268.398 413.556,262.927C414.163,261.774 418.589,251.441 422.146,255.575C424.068,257.808 423.345,261.117 423.17,263.7C422.882,267.95 422.255,273.682 422.827,277.953C423.171,280.523 427.919,278.501 428.742,278.375C429.113,278.318 429.992,278.601 429.879,279.206C429.689,280.223 429.611,280.69 429.034,281.357C428.572,281.889 427.514,282.413 426.953,282.84C425.678,283.81 423.356,283.782 422.322,285.222C421.653,286.154 422.77,287.849 422.779,288.691C422.794,290.031 422.531,294.081 420.243,294.34C417.967,294.598 417.621,290.113 417.498,289.034C417.467,288.76 417.907,286.575 417.093,286.406C415.66,286.109 414.154,286.411 412.709,286.643C411.239,286.879 409.738,287.159 408.395,287.802C404.33,289.748 404.353,295.26 402.438,298.571C401.801,299.672 398.959,301.298 397.662,300.001L397.662,300.001ZM237.94,299.718C236.934,298.917 236.379,295.93 236.278,294.823C235.988,291.643 236.141,286.075 235.28,282.943C234.909,281.595 232.134,279.799 233.294,278.004C234.766,275.727 236.022,276.257 236.357,273.306C236.949,268.084 235.57,268.001 237.116,262.934C237.343,262.192 238.313,260.772 239.352,260.881C242.534,261.214 241.462,266.262 241.682,267.981C241.836,269.179 242.664,268.67 242.881,269.818C243.092,270.935 242.228,273.285 243.36,273.192C249.154,272.719 255.124,267.462 258.279,262.942C259.071,261.808 260.173,259.951 258.976,258.533C256.034,255.046 249.804,255.207 246.001,255.622C244.971,255.735 243.935,256.088 243.073,256.662C241.674,257.593 241.105,260.441 238.893,258.856C235.561,256.467 238.037,252.215 241.697,252.279C244.237,252.323 243.932,251.446 246.394,250.692C250.362,249.476 255.534,250.595 259.231,252.01C264.131,253.886 266.655,260.179 263.344,264.536C259.287,269.874 253.86,273.181 248.092,276.386C246.351,277.353 244.544,277.793 243.092,279.262C240.94,281.437 242.32,284.841 242.415,287.341C242.48,289.078 242.223,290.816 242.264,292.554C242.288,293.591 243.023,296.752 242.583,297.817C241.886,299.508 239.644,301.073 237.941,299.718L237.94,299.718ZM436.922,299.108C433.436,297.832 431.787,293.08 431.846,289.799C431.884,287.728 431.946,286.646 432.087,284.58C432.163,283.455 432.461,281.595 432.482,280.469C432.604,274.147 436.755,268.605 441.06,264.46C441.586,263.954 442.154,262.38 442.266,262.048C443.043,259.758 445.874,256.796 448.562,258.137C452.291,259.996 447.978,269.646 447.459,270.902C446.511,273.194 444.711,275.369 442.339,276.315C441.767,276.543 442.144,275.018 441.717,274.574C441.036,273.863 440.299,275.332 440.212,275.515C439.801,276.379 439.45,277.276 439.178,278.194C438.606,280.128 437.987,282.063 437.687,284.057C437.464,285.532 436.079,295.251 440.895,293.982C445.886,292.667 449.791,288.95 453.54,285.66C458.509,281.301 463.394,277.215 466.025,271.183C467.094,268.733 470.649,258.412 475.869,261.212C477.895,262.299 480.569,263.997 481.985,266.049C485.606,271.296 482.5,278.622 480.008,283.588C477.932,287.724 475.591,292.785 471.444,295.396C468.743,297.097 464.239,296.451 462.654,293.461C460.602,289.592 461.51,289.42 461.185,285.147C461.144,284.601 460.592,283.402 460.231,283.813C458.981,285.236 458.208,287.026 457.021,288.503C452.616,293.985 444.791,301.988 436.921,299.107L436.922,299.108ZM608.164,297.487C606.261,295.841 607.112,293.403 607.868,291.416C610.703,283.971 611.078,284.259 614.915,277.175C616.455,274.334 622.61,268.408 625.216,267.799C627.791,267.197 629.507,272.622 629.716,273.854C630.468,278.288 630.425,282.835 631.205,287.264C631.258,287.562 631.911,287.644 632.103,287.41C638.342,279.804 639.635,269.657 645.715,261.97C647.209,260.081 651.383,257.037 653.49,255.929C654.662,255.313 655.956,254.965 657.208,254.536C657.574,254.41 658.339,253.882 658.336,254.268C658.328,255.34 656.21,257.618 655.55,258.225C651.357,262.085 650.245,261.862 647.461,267.016C642.015,277.102 641.343,281.15 636.684,291.582C635.533,294.159 633.78,297.709 630.635,298.418C625.008,299.686 625.044,287.956 624.889,285.948C624.682,283.258 624.829,280.549 624.606,277.861C624.57,277.428 624.51,276.466 624.118,276.653C623.213,277.083 622.773,278.151 622.228,278.992C617.652,286.052 618.182,286.237 613.949,293.601C613.125,295.034 610.836,299.802 608.158,297.486L608.164,297.487ZM591.123,297.597C586.184,295.619 585.855,287.211 587.596,283.655C588.346,282.122 592.143,273.31 592.85,270.917C593.292,269.423 599.712,264.688 601.708,265.877C604.499,267.541 603.766,270.765 603.005,273.369C601.892,277.174 602.055,276.444 601.487,280.446C601.307,281.715 600.488,283.72 600.287,284.986C599.876,287.572 598.043,291.764 596.732,293.996C595.574,295.968 593.869,298.697 591.123,297.597L591.123,297.597ZM713.112,296.319C712.051,294.602 712.575,292.565 713.191,290.802C714.36,287.458 716.818,284.95 718.838,282.13C719.532,281.162 717.438,281.938 717.449,281.413C717.465,280.67 718.025,279.187 718.467,278.599C719.657,277.014 722.013,276.531 723.441,278.107C724.614,279.402 723.941,281.663 723.51,283.02C722.729,285.476 721.527,288.236 720.27,290.485C719.628,291.633 718.951,291.845 718.515,293.13C718.125,294.281 718.424,295.963 717.361,296.869C716.063,297.974 714.047,297.824 713.117,296.319L713.112,296.319ZM694.899,296.86C693.019,295.767 692.81,293.05 692.884,291.192C693.05,287.026 695.612,283.462 697.494,279.951C698.568,277.949 699.507,275.874 700.662,273.919C701.391,272.686 702.266,271.543 703.138,270.405C704.443,268.702 705.236,267.477 707.13,266.626C707.47,266.474 708.637,266.476 708.859,266.931C709.123,267.474 708.685,268.264 709.07,268.729C709.434,269.167 708.332,272.748 707.451,274.297C704.49,279.502 700.358,284.759 698.86,290.735C698.237,293.221 702.262,290.575 702.025,292.618C701.712,295.309 697.541,298.396 694.9,296.86L694.899,296.86ZM271.787,295.111C269.608,294.563 268.498,292.101 268.145,290.125C267.284,285.313 267.706,282.813 268.14,278C268.309,276.123 268.027,271.651 271.301,271.848C272.574,271.925 273.125,273.144 273.211,274.188C273.444,277.019 272.456,281.355 274.701,283.833C274.84,283.986 275.07,283.617 275.188,283.447C275.603,282.847 275.944,282.198 276.281,281.551C276.673,280.796 277.087,280.045 277.373,279.244C278.768,275.331 278.525,271.44 277.892,267.36C277.631,265.683 275.262,266.436 274.558,267.108C274.433,267.227 272.418,271.498 270.975,270.652C269.773,269.947 270.149,267.909 270.316,266.526C270.625,263.983 272.018,260.307 275.174,260.286C282.551,260.237 284.56,269.845 284.068,275.304C283.897,277.208 283.465,279.104 282.803,280.898C282.032,282.987 280.795,284.873 279.801,286.866C278.406,289.666 276.442,296.281 271.787,295.111L271.787,295.111ZM524.983,290.152C525.612,289.713 528.375,285.027 528.564,284.526C529.239,282.736 530.213,281.069 530.892,279.281C531.354,278.063 532.131,276.646 531.631,275.444C531.444,274.993 530.943,275.095 530.618,275.241C529.022,275.958 528.764,277.921 527.846,279.199C527.686,279.421 527.356,279.462 527.16,279.654C526.304,280.494 525.415,281.317 524.704,282.283C524.123,283.074 523.518,285.119 523.266,286.055C522.532,288.777 522.42,289.149 522.256,291.968C522.253,292.026 522.141,294.174 522.993,293.605C524.221,292.784 523.778,290.992 524.983,290.152L524.983,290.152ZM211.319,293.172C203.544,290.218 205.039,280.112 206.435,273.778C206.744,272.374 207.056,270.957 207.591,269.623C208.124,268.295 208.883,267.067 209.619,265.841C211.693,262.387 214.652,259.472 219.023,260.331C221.833,260.883 224.127,264.307 224.415,266.995C225.172,274.083 223.679,281.026 219.852,287.069C218.279,289.552 215.232,294.658 211.319,293.172L211.319,293.172ZM469.423,290.316C469.78,290.18 469.958,289.768 470.192,289.465C470.946,288.489 471.607,287.441 472.384,286.482C473.466,285.146 474.888,284.11 475.964,282.768C478.114,280.087 479.162,275.901 478.493,272.566C478.051,270.36 477.095,268.395 474.749,267.784C474.412,267.696 474.029,268.387 473.93,268.553C473.567,269.165 473.185,269.767 472.866,270.403C469.971,276.177 470.087,276.193 467.735,282.238C467.063,283.965 466.757,284.469 466.537,286.328C466.328,288.094 467.004,291.245 469.423,290.317L469.423,290.316ZM214.441,285.962C215.178,285.226 215.554,283.311 215.974,282.437C216.347,281.661 217.06,281.081 217.437,280.306C217.612,279.946 217.265,279.77 217.511,279.417C218.036,278.665 218.643,278.582 219.011,277.694C220.453,274.207 220.821,269.47 217.575,266.875C217.216,266.588 217.2,267.742 216.863,268.054C216.427,268.459 215.885,268.749 215.336,268.98C215.119,269.071 214.227,268.841 214.024,269.093C210.901,272.959 210.425,277.774 210.882,282.545C211.04,284.193 212.219,288.184 214.441,285.962L214.441,285.962ZM596.4,276.043C595.72,276.043 593.114,279.467 592.023,282.081C589.756,287.515 590.418,292.59 592.393,291.106C592.937,290.697 597.634,284.009 597.634,281.176C597.634,278.343 597.081,276.043 596.4,276.043ZM145.816,285.831C146.304,283.42 146.829,281.016 147.387,278.62C147.72,277.187 148.323,275.809 148.399,274.316C148.488,272.567 148.249,267.617 147.906,265.893C147.836,265.543 147.151,266.073 146.943,266.363C146.664,266.753 146.517,267.227 146.237,267.617C145.152,269.128 143.949,270.552 142.856,272.057C141.811,273.496 140.333,275.758 139.706,277.443C139.13,278.994 138.829,280.635 138.317,282.209C138.033,283.082 137.326,283.867 137.514,284.882C137.651,285.621 138.508,285.799 139.073,285.845C140.582,285.968 142.1,285.954 143.609,286.07C143.968,286.097 145.635,286.724 145.816,285.831L145.816,285.831ZM324.207,282.827C325.64,281.743 325.845,282.113 327.333,281.106C327.931,280.701 328.403,280.129 329.004,279.728C329.291,279.536 329.436,277.562 329.456,276.502C329.47,275.687 329.982,274.306 330.128,273.685C330.26,273.121 329.815,272.744 329.307,273.091C327.376,274.408 326.268,276.112 324.768,277.905C323.821,279.038 322.762,280.079 321.865,281.252C321.602,281.596 321.411,282.005 321.31,282.427C321.208,282.849 321.244,283.295 321.271,283.728C321.286,283.967 321.466,284.3 321.787,284.213C322.777,283.946 323.409,283.43 324.207,282.827L324.207,282.827ZM203.334,282.354C203.311,282.354 203.289,282.354 203.267,282.353C203.264,282.353 203.26,282.353 203.258,282.352C203.256,282.351 203.26,282.35 203.261,282.35L203.483,282.337C203.49,282.336 203.496,282.332 203.503,282.334C203.506,282.335 203.51,282.341 203.502,282.343C203.495,282.345 203.487,282.344 203.48,282.344L203.334,282.354ZM665.98,280.823C666.904,280.547 667.879,280.145 668.13,279.101C668.229,278.684 668.173,277.835 668.15,277.417C668.126,276.977 668.074,276.538 668.067,276.098C668.064,275.916 668.296,275.139 667.877,275.072C667.516,275.014 667.315,275.712 667.2,275.875C666.211,277.265 665.201,278.639 664.177,280.002C664.042,280.182 663.218,280.823 663.51,281.234C663.572,281.321 663.858,281.371 663.956,281.349C664.636,281.193 665.312,281.023 665.98,280.823L665.98,280.823ZM415.309,280.13C417.741,279.66 417.01,276.108 417.062,274.583C417.103,273.394 417.16,272.203 417.304,271.022C417.389,270.329 417.579,269.653 417.746,268.975C417.842,268.584 418.036,268.215 418.094,267.816C418.127,267.595 417.82,267.481 417.671,267.558C416.852,267.979 416.482,269.105 416.129,269.843C415.104,271.989 414.142,274.167 413.055,276.283C412.468,277.428 411.706,278.478 411.11,279.619C410.883,280.055 410.792,280.722 411.447,280.763C411.744,280.781 412.044,280.754 412.337,280.706C413.333,280.543 414.318,280.322 415.309,280.13L415.309,280.13ZM500.304,276.152C500.304,275.436 501.393,275.252 501.815,275.053C503.182,274.406 504.593,273.835 505.89,273.056C507.087,272.337 508.145,271.409 509.266,270.576C510.08,269.972 510.924,269.405 511.694,268.746C514.015,266.763 518.651,261.846 515.041,258.826C514.472,258.349 513.833,257.938 513.147,257.655C512.37,257.334 511.54,257.12 510.704,257.035C509.883,256.952 509.049,257.047 508.231,257.156C504.963,257.59 504.345,262.2 503.354,264.423C503.072,265.054 501.019,271.067 500.932,271.334C500.476,272.737 499.831,274.073 499.377,275.475C499.175,276.099 499.461,276.704 500.304,276.152L500.304,276.152ZM689.845,270.044C686.798,267.032 691.771,264.017 693.754,262.932C701.163,258.877 709.959,258.216 718.136,257.318C721.485,256.95 726.781,255.906 729.098,259.512C730.884,262.292 725.339,262.884 724.376,262.983C718.571,263.573 717.85,262.715 712.12,263.978C706.92,265.124 701.869,266.9 696.654,267.976C696.09,268.093 695.562,267.459 694.989,267.514C692.998,267.705 693.314,271.932 691.036,271.154C690.522,270.979 690.23,270.426 689.844,270.044L689.845,270.044Z" style="fill-rule:nonzero;"/>
    </g>
</svg>
