<svg width="100%" height="100%" viewBox="0 0 123 152" version="1.1" xmlns="http://www.w3.org/2000/svg" xmlns:xlink="http://www.w3.org/1999/xlink" xml:space="preserve" id="its-me-mario">
    <g id="its-me-mario" transform="matrix(0.705625,0,0,0.703341,-117.187,-139.029)">
        <rect x="166.075" y="197.669" width="174.212" height="215.032" style="fill:none;"/>
        <g id="io" transform="matrix(17.2312,0,0,17.2872,-1141.92,-688.676)">
            <path d="M81.406,63.443C81.12,63.311 81.093,62.965 81.07,62.69C81.045,62.304 81.062,61.906 81.173,61.534C81.224,61.366 81.216,61.169 81.389,61.065C81.458,60.953 81.539,61.13 81.593,61.176C81.711,61.458 81.563,61.763 81.537,62.05C81.511,62.349 81.417,62.677 81.553,62.961C81.809,63.127 81.967,62.805 82.112,62.65C82.291,62.43 82.519,62.248 82.664,62.003C82.814,61.824 82.867,61.699 82.994,61.534C83.165,61.334 83.106,60.959 83.16,60.843C83.262,60.596 83.647,60.455 83.794,60.753C83.891,61.035 84.184,60.97 84.414,60.928C84.889,60.889 84.993,60.555 85.339,60.319C85.45,60.238 85.745,59.937 85.799,60.163C85.773,60.429 85.524,60.592 85.36,60.779C85.182,60.938 84.997,61.091 84.797,61.222C84.553,61.367 84.267,61.403 83.99,61.413C83.91,61.471 84.01,61.576 83.889,62.121C83.827,62.384 83.833,62.677 83.68,62.91C83.462,63.134 83.185,62.841 83.158,62.607C83.1,62.446 83.132,61.935 82.922,62.278C82.597,62.632 82.411,63.115 81.987,63.372C81.825,63.489 81.589,63.541 81.406,63.443L81.406,63.443ZM83.69,61.465C83.65,61.397 83.582,61.272 83.512,61.309C83.374,61.384 83.418,61.758 83.574,61.777C83.643,61.789 83.66,61.757 83.68,61.698C83.697,61.644 83.744,61.521 83.69,61.465C83.69,61.465 83.69,61.465 83.69,61.465L83.69,61.465ZM80.792,59.823C80.539,59.747 80.404,59.29 80.738,59.216C80.937,59.164 81.234,59.089 81.364,59.304C81.485,59.577 81.177,59.806 80.93,59.823C80.884,59.829 80.837,59.83 80.792,59.823L80.792,59.823Z" style="fill-rule:nonzero;"/>
        </g>
        <g id="freccia" transform="matrix(17.2312,0,0,17.2872,-1141.92,-688.676)">
            <path d="M82.75,58.889C82.489,58.822 82.415,57.282 82.187,56.814C81.594,55.466 80.678,54.177 79.308,53.539C78.546,53.117 77.444,52.918 77.683,52.453C77.858,52.114 78.861,52.99 79.415,53.173C80.445,53.617 81.236,54.445 81.818,55.386C82.405,56.284 83.03,57.29 82.986,58.401C82.956,58.581 82.925,58.934 82.75,58.889ZM77.925,53.952C77.484,53.775 77.148,53.508 76.709,52.983C75.948,52.014 75.823,51.771 76.85,51.516C77.514,51.387 79.254,51.485 78.838,51.762C77.827,51.798 75.963,51.746 76.862,52.598C77.273,53.188 77.633,53.356 78.084,53.896C78.124,54.062 77.925,53.952 77.925,53.952L77.925,53.952Z" style="fill-rule:nonzero;"/>
        </g>
    </g>
</svg>
