<svg clip-rule="evenodd" fill-rule="evenodd" stroke-linejoin="round" stroke-miterlimit="2" version="1.1" viewBox="0 0 3169.3 668.39" xml:space="preserve" xmlns="http://www.w3.org/2000/svg">
    <title>Jacopo Donati</title>
    <path id="background-splash" d="m730.02 633.45c-0.0575-1.5024 2.7913-3.6664 6.3292-4.8042 3.5582-1.13 6.4828-0.82645 6.5415 0.68502 0.0575 1.5024-2.7721 3.6574-6.3292 4.7952-3.539 1.1287-6.4828 0.83423-6.5415-0.67594zm1574.5-486.25c-2.1973-0.77714 1.6211-1.6568 8.5007-1.9176 7.5943-0.31007 9.1515 0.25429 3.9785 1.4271-4.6717 1.06-10.271 1.2818-12.479 0.49042zm-393 3.1501c113.61-5.3336 216.14-7.6326 275.83-6.1587 17.332 0.43073 42.845 0.12974 56.679-0.66167 24.841-1.422 44.424 2.661 21.641 4.5266-38.92 3.1786-72.764 4.0232-89.424 2.2627-10.495-1.1119-51.581-0.69671-91.29 0.92893-39.699 1.6256-73.681 2.8672-75.451 2.7453-1.8024-0.13623-21.247 1.0327-43.208 2.5961-21.961 1.5621-41.736 1.7346-43.955 0.38014-2.2185-1.3285-22.079-0.93673-44.147 0.89649-22.057 1.841-43.325 2.4378-47.293 1.3324-3.9572-1.0976-13.077-2.3288-20.255-2.7453-7.1783-0.42555 38.195-3.1618 100.87-6.103zm374.54 408.79c388.39-22.336 723.71-42.669 745.12-45.168 40.584-4.7368 68.017-11.866 67.793-17.628-0.064-1.8488 5.2582-5.7514 11.818-8.6575 13.983-6.2275 11.861-21.897-4.2131-31.07-9.2794-5.3012-8.9061-6.1912 4.7571-11.853 8.1382-3.3693 19.604-7.0941 25.502-8.3007 12.735-2.5636 37.566-25.585 31.518-29.184-2.3359-1.3726-5.1943-6.1549-6.3676-10.596-6.5169-24.527-13.343-37.596-23.295-44.554-3.4771-2.4158-6.4316-7.499-6.5809-11.28-0.1494-3.7806-3.1891-6.6998-6.7836-6.4948-3.5518 0.2037-6.6876-2.4041-6.9329-5.7734-0.6399-8.7328-13.119-13.511-39.496-15.121-21.385-1.2987-23.262-2.3171-28.969-15.756-5.1304-11.974-4.4371-14.868 4.181-17.412 5.685-1.6736 10.293-4.2373 10.229-5.6891-0.054-1.47 7.4343-8.2514 16.639-15.098 19.465-14.431 21.631-25.648 11.178-57.04-8.2981-24.904-19.54-30.596-62.087-31.512-24.041-0.52024-41.843-9.4359-42.312-21.18-0.256-5.9512 1.8026-6.3572 37.598-7.5534l37.875-1.265 12.159-12.459c17.919-18.397 11.103-61.999-11.829-75.717-5.7809-3.442-9.9833-6.5843-9.3647-6.9839 0.6187-0.40738-7.9781-6.6998-19.06-13.99-11.093-7.2992-24.98-17.506-30.932-22.708-10.453-9.1622-11.957-9.3996-50.728-8.389-69.98 1.828-175.75 2.8659-209.48 2.0499-78.769-1.9137-465.84-3.4939-583.87-2.3911-26.921 0.25818-56.274 0.18293-65.255-0.13882-20.052-0.76416-160.61 2.5377-257.44 6.0342-39.39 1.4181-93.616 2.8322-120.5 3.1462-26.921 0.31656-59.164 1.1599-71.697 1.8773-461.71 26.298-643.57 36.645-654.1 37.198-7.1697 0.36068-71.541 5.1597-143.09 10.659-371.29 28.504-353.81 27.976-340.59 10.435 6.8348-9.0273 2.1919-28.788-7.5281-32.278-7.0438-2.5079-46.39 15.278-57.086 25.775-18.261 17.92-26.715 28.844-37.225 48.181l-11.339 20.832-37.592 10.2c-28.71 7.7973-39.744 12.598-46.727 20.317-13.684 15.152-21.757 52.26-13.238 60.822 4.2184 4.2347 4.757 8.4798 1.3514 10.512-23.738 14.222 4.756 46.135 43.041 48.238 14.301 0.78621 19.486 2.574 18.573 6.4065-0.73488 2.9218-2.2697 12.572-3.3832 21.454-1.153 8.8755-4.5843 17.362-7.6369 18.842-3.0516 1.4816-37.634 7.0669-76.852 12.389-39.219 5.3375-76.328 11.207-82.477 13.048-6.1682 1.8423-16.627 3.656-23.305 4.0388-23.174 1.3259-40.713 16.541-50.658 43.878-5.4439 14.978-0.79036 25.367 12.539 28.029 3.6702 0.7421 5.1997 3.1436 3.3555 5.3504-1.8431 2.1991-0.0907 6.2846 3.9144 9.0908 5.0792 3.5977 5.2882 7.4652 0.70076 13.039-5.4162 6.5389-4.1534 9.1298 7.0854 14.741 14.169 7.0721 18.976 20.43 7.6443 21.079-3.5742 0.20369-6.4476 2.2302-6.3612 4.4747 0.15892 4.1192-36.69 8.0971-88.79 9.5968-24.397 0.70839-27.244 2.4274-44.019 26.739v0.0155c-14.279 20.645-15.162 31.913-2.8873 36.308 4.4915 1.5958 8.2203 4.3774 8.2907 6.1756 0.0683 1.7839 4.3144 3.6911 9.4522 4.2165 5.7116 0.60848 8.0176 3.2305 5.9548 6.906-1.9145 3.4173 1.2042 7.7403 7.4428 10.244 5.9367 2.3742 8.9594 5.1961 6.7185 6.2833-3.9219 1.9046-8.0432 11.372-10.11 23.063-0.93861 5.2571 2.6057 5.3025 70.598 0.94971 39.364-2.5248 118.35-9.1207 175.55-14.642 205.01-19.819 203.25-19.71 208.19-12.987 14.172 19.349 37.552 35.549 50.219 34.825 6.7943-0.38922 14.206 0.41905 16.464 1.7956 6.2289 3.7962 35.575 1.2494 46.413-4.0206 16.733-8.0958 51.342 0.76936 72.045 18.487 5.3928 4.5967 13.796 8.1204 18.667 7.8415 4.8701-0.27893 13.121 1.8799 18.292 4.777 8.712 4.912 15.248 4.96 93.771 0.63313 46.391-2.5546 137.01-9.6993 201.35-15.854 395.45-37.919 512.22-46.155 1278.2-90.249z" />
    <g id="riga" transform="translate(192.63 58.913)">
        <g transform="matrix(.16803 0 0 .28266 824.05 -278.97)">
            <path d="m1260.3 2574.6-28.44-27.39 28.74-21.39c33.89-25.23 112.5-34.53 240.17-28.44 150.33 7.17 764.7 6.83 858.88-0.48 177.13-13.75 408.76-10.04 895 14.38 473.46 23.77 667.93 25.84 808.87 8.62 52.77-6.44 183.16-11.83 421.29-17.4 27.23-0.63 155.08 0.06 284.13 1.53 129.04 1.48 282.03 0.55 339.97-2.05 223.68-10.06 516.98-30.15 564.77-38.68 70.88-12.66 480.01-24.42 872.83-25.09 44.19-0.07 149.92-1.3 234.97-2.72s196.31-2.01 247.24-1.3c50.93 0.72 151.15-1.17 222.71-4.18 452.64-19.03 551.41-21.87 810.94-23.39 216.11-1.27 205.73-1.16 463.71-4.72 98.64-1.37 251.69-3.23 340.1-4.14 215.61-2.23 295.53-4.91 382.65-12.87 40.32-3.68 77.4-3.77 82.41-0.22 5.01 3.56 49.2 3.41 98.2-0.34 49.01-3.76 184.52-6.72 301.13-6.59 116.6 0.13 234.29-0.34 261.52-1.02 27.22-0.7 128.32 1.1 224.72 3.98 96.4 2.87 196.6 1.22 222.7-3.69s121.9-7.53 212.9-5.84c90.9 1.69 169.2 1.03 173.9-1.47s85.9-2.78 180.4-0.62c94.6 2.15 191.5 2.71 215.4 1.24 154.3-9.5 1056.5 31.5 1080.4 49.1 21.6 15.84 26.3 61.2 7.8 74.61-11.6 8.42-156.2 5.84-435.4-7.78-413.7-20.19-584.9-22.74-1005.4-14.97-119 2.2-266.9 3.43-328.6 2.73s-120.2 1.1-130 3.98c-9.9 2.89-81.7 3.45-159.7 1.25-78.1-2.21-225.4-3.27-327.37-2.36-254.27 2.27-524.35 3.83-642.84 3.71-54.37-0.05-137.99 3.14-185.82 7.1-110.73 9.17-147.3 10.5-291.09 10.63-150.76 0.13-366.37 2.55-661.62 7.44-129.28 2.14-279.52 3.68-333.88 3.41-54.35-0.26-146.25 1.93-204.21 4.86-128.88 6.54-697.01 15.92-841.22 13.89-57.72-0.81-132.83-0.29-166.9 1.16-34.08 1.46-106.43 2.3-160.77 1.88-54.35-0.42-154.57 1.44-222.71 4.13s-174.06 6.78-235.38 9.09c-138.31 5.2-379.83 19.24-551.99 32.07-71.71 5.35-174.9 10.17-229.31 10.71s-124.18 4.52-155.04 8.85c-30.86 4.32-167.27 6.84-303.12 5.59-341.46-3.15-458.84-0.35-693.1 16.5-171.24 12.31-415.54 8.79-864.23-12.47-250.71-11.88-547.73-19.47-660.05-16.87-112.31 2.6-320.86 2.87-463.45 0.59-142.58-2.27-329.04 0.34-414.35 5.8s-199.87 9.28-254.56 8.48c-86.89-1.26-103.05-4.9-127.9-28.83z"/>
        </g>
        <g transform="matrix(.16046 0 0 .28266 26.1 -278.97)">
            <path d="m1260.3 2574.6-28.44-27.39 28.74-21.39c33.89-25.23 112.5-34.53 240.17-28.44 150.33 7.17 764.7 6.83 858.88-0.48 177.13-13.75 408.76-10.04 895 14.38 473.46 23.77 667.93 25.84 808.87 8.62 52.77-6.44 183.16-11.83 421.29-17.4 27.23-0.63 155.08 0.06 284.13 1.53 129.04 1.48 282.03 0.55 339.97-2.05 223.68-10.06 141.6 84.44 87.19 84.98s-124.18 4.52-155.04 8.85c-30.86 4.32-167.27 6.84-303.12 5.59-341.46-3.15-458.84-0.35-693.1 16.5-171.24 12.31-415.54 8.79-864.23-12.47-250.71-11.88-547.73-19.47-660.05-16.87-112.31 2.6-320.86 2.87-463.45 0.59-142.58-2.27-329.04 0.34-414.35 5.8s-199.87 9.28-254.56 8.48c-86.89-1.26-103.05-4.9-127.9-28.83z"/>
        </g>
    </g>
    <g id="nome" transform="translate(192.63 58.913)">
        <g transform="translate(33.942 -3.5137)">
            <path d="m87.193 511.93c-54.999-34.538-91.963-96.998-79.898-135.01 4.157-13.097 8.302-14.183 37.812-9.902 42.413 6.148 44.23 8.329 21.057 25.206-23.084 16.816-20.347 28.071 16.894 69.477 29.675 32.994 38.924 35.023 65.252 14.314 15.074-11.857 18.712-12.613 18.712-3.884 0 24.756-16.47 47.01-34.873 47.118-14.481 0.084-26.439 4.316-44.957-7.313zm820.93-46.14c-7.776-20.266 28.21-216.53 44.537-242.89 12.714-20.529 12.315-23.329-3.321-23.329-7.189 0-16.752-8.095-21.262-17.994-6.769-14.855-6.265-18.736 2.886-22.248 6.098-2.341 14.706-0.671 19.131 3.791 12.943 12.942 16.653 9.78 25.967-22.137 5.071-17.376 26.145-52.302 42.985-73.422 16.28-20.411 25.37-27.586 32.24-33.376 22.43-18.93 40.46-32.729 57.84-18.305 16.76 13.906 8.24 65.593-16.64 100.99-11.34 16.129-37.89 41.401-59.02 56.16-33.987 23.744-39.78 31.521-50.3 67.521-12.132 41.513-35.034 176.52-34.993 206.28 0.022 13.821-14.097 29.706-24.187 29.706-6.459 0-13.599-4.832-15.866-10.741zm132.69-335.46c34.27-36.459 65.04-93.101 57.87-93.537-9.87-0.587-49.97 35.823-57.07 43.632-8.23 9.058-27.11 46.403-31.61 55.75-4.8 9.963-8.73 13.24-5.02 17.234 3.13 3.365 4.21 10.519 35.8-23.083zm-890.4 314.68c-4.479-11.671-0.21-39.531 15.309-99.888 4.013-15.609 9.183-53.944 11.489-85.192 8.493-115.06 21.789-187.58 36.423-198.65 7.561-5.721 15.51-10.5 17.665-10.624 4.569-0.252-1.171 55.607-17.487 170.21-11.66 81.893-13.065 89.967-25.958 149.13-3.83 17.576-8.626 41.275-10.659 52.664-5.941 33.294-18.545 43.807-26.782 22.34zm149.45-107.87c-6.324-6.316 12.232-47.988 34.173-76.756 15.441-20.243 17.262-26.925 10.688-39.208-9.365-17.499-4.211-28.717 13.191-28.717 8.304 0 18.004-12.564 28.798-37.283 20.835-47.716 44.87-100.54 47.073-103.47 0.94-1.25 8.161 1.762 16.056 6.694 13.205 8.245 14.018 14.015 10.222 72.595l-4.118 63.637 31.303-4.915c48.605-7.633 77.464-20.051 77.464-33.325 0-9.515 9.756-42.602 27.213-68.408 17.576-25.983 42.873-44.655 49.19-44.655 18.89 0 44.324 36.838 44.324 64.198 0 8.481-7.994 24.915-17.754 36.521-9.765 11.604-17.754 25.647-17.754 31.206 0 5.561-4.789 10.108-10.653 10.108-16.08 0-12.804-20.248 7.105-43.905 21.778-25.881 23.931-55.518 4.034-55.518-28.225 0-58.377 66.478-59.914 132.1-1.258 53.848 10.529 64.197 50.19 44.054 16.378-8.32 29.32-17.001 28.76-19.296-0.588-2.299 23.903-29.741 54.364-60.988 30.46-31.247 59.896-67.199 65.412-79.893 5.519-12.694 14.96-19.937 18.812-22.854 11.587-8.776 40.704 13.845 45.488 36.892 3.022 14.558 8.675 35.681 9.428 42.103 3.677 31.383-44.036 115.49-81.012 112.52-6.003-0.482-15.86-7.482-21.853-16.631-9.754-14.886-9.771-19.824-0.168-47.053 5.905-16.733 10.734-31.308 10.734-32.39s-20.54 19.293-45.645 45.278c-49.222 50.949-118.18 97.463-134.95 91.027-10.969-4.21-32.45-66.95-32.45-94.781 0-19.045-0.064-19.066-26.297-8.355-81.635 33.321-78.488 30.539-74.929 66.192 3.002 30.055-5.385 53.531-19.13 53.531-2.742 0-17.533-17.508-32.863-38.906-29.958-41.816-38.526-47.378-38.526-25.009 0 7.809-6.391 20.595-14.203 28.406-7.809 7.809-20.941 27.767-26.396 35.557-10.225 14.599-17.664 17.441-25.4 9.705zm135.09-63.752c-2.357-2.357-8.485-2.609-13.611-0.588-5.662 2.265-3.985 3.951 4.286 4.287 7.49 0.335 11.68-1.368 9.321-3.733zm-5.175-20.565c0-5.863-3.003-10.652-6.685-10.652-8.955 0-15.369 11.089-9.695 16.763 7.994 8.002 16.377 4.873 16.377-6.106zm388.7-57.365c16.043-28.174 19.278-52.761 10.028-76.216-3.825-9.704-9.061-1.878-21.374 31.958-8.968 24.646-18.099 52.417-20.293 61.715-6.131 25.999 12.86 15.519 31.639-17.457zm-391.24-17.8c0.587-13.342 3.347-30.65 6.199-38.461 4.756-13.025 4.244-12.937-6.241 1.065-15.664 20.922-26.819 51.941-21.672 60.268 8.482 13.723 20.728 0.839 21.716-22.874zm700.06 126.32c-4.16-2.38-16.92-12.646-22.6-28.896-6.52-18.634-5.47-44.051-0.91-56.067 4.71-12.365 12.64-19.456 21.78-19.456 16.11 0 17.41 5.301 7.6 31.107-5.24 13.764-3.88 21.4 5.9 33.491 17.03 21.019 46.38 13.845 61.29-14.973 9.89-19.138 9.88-22.833-0.17-38.215-11.35-17.324-29.71-25.342-58.43-25.516-22.86-0.168-19.72-10.691 7.1-23.853 20.96-10.285 62.34 12.641 72.85 25.128 24.95 29.647 20.69 62.89-12.27 95.796-26.65 26.602-58.57 34.946-82.1 21.461z"/>
        </g>
        <g transform="rotate(5.1067 2318.9 -2151.4)">
            <path d="m1701 441.78c-10.64-2.961-20.53-13.004-24.81-25.177-5.95-16.91-4.93-21.548 6.21-28.101 26.65-15.685 54.05-41.288 54.05-50.515 0-5.192 4.58-18.492 10.19-29.551 25.51-50.319 56.86-191.51 43.69-196.76-14.54-5.796 43.27-54.154 64.59-54.039 24.46 0.168 30.03 3.842 53.24 35.4 30.33 41.254 46.7 117.27 33.26 154.46-3.49 9.66-3.01 15.978 1.21 15.978 15.61 0 126.24-79.301 129.84-93.069 6.19-23.641 28.03-13.225 45.69 21.782 20.67 40.997 20.15 66.75-2.29 114.28-27.85 58.968-28.06 59.277-47.65 70.399-16.67 9.474-19.73 9.154-33.75-3.531-13.17-11.916-15-19.779-12.52-53.935 1.68-23.33 8.56-48.48 16.5-60.382 7.49-11.218 14.19-31.049 18.74-31.049 4.56 0 6.3-1.979 3.88-4.403-2.43-2.424-16.54 5.108-31.37 16.736-24.59 19.287-57.53 36.704-88.68 46.892-6.61 2.164-17.79 12.89-24.86 23.842-25.11 38.933-89.62 93.826-140.29 119.38-36.39 18.349-45.08 19.669-74.88 11.374zm61.59-30.945c12.91-8.789 34.9-24.709 40.41-28.534 19.2-13.328 58.32-50.523 82.21-79.66 21.44-26.15 37.15-69.975 32.59-90.936-1.88-8.63-4.82-26.039-6.53-38.685-3.1-22.819-29.6-72.79-38.7-72.977-2.61-0.07-11.61-1.937-20-4.185-13.43-3.607-15.82-0.42-20.06 26.727-2.65 16.951-12.65 57.156-22.24 89.344-9.59 32.189-17.63 60.951-17.87 63.915-0.25 2.961-4.94 16.167-10.44 29.338-5.51 13.171-10.01 25.59-10.01 27.596 0 2.004 14.54 1.652 32.32-0.755 38.84-5.326 36.5 5.435-3.81 17.511-19.58 5.863-30.81 14.699-38.26 30.09-3.46 7.128-6.06 14.259-7.25 19.432-0.81 3.525-16.61 2.064-27.34 4.88-4.63 1.211-7.77 1.675-9.66 1.217-2.87-0.697-2.83-3.53-0.68-9.118 2.49-6.484 1.43-11.794-2.35-11.794-7.73 0-9.47 30.556-2.15 37.875 8.77 8.767 26.2 4.831 49.82-11.244zm318.28-101.68c3.91-11.888 12.79-30.258 19.74-40.82 10.26-15.58 11.08-22.121 4.38-34.645-7.98-14.914-8.75-14.49-22.67 12.5-7.93 15.367-18.6 41.738-23.72 58.605-8.5 28.044-8.25 30.465 2.94 28.32 6.73-1.292 15.43-12.072 19.33-23.96zm133.16 48.673c-13.94-5.05-10.57-29.97 11.8-87.414 44.12-113.31 62.44-141.87 90.98-141.87 7.48 0 10.03 3.994 8.62 8.439-1.35 4.221-7.64 35.146-5.56 45.695 0.85 4.31 1.38 8.988 1.54 13.862 0.51 15.332 12.48 49.255 13.42 65.583 1.99 34.588 15.5 39.464 28.35 10.23 4.72-10.742 20.42-53.168 23.08-63.169 8.48-31.972 23.98-74.999 36.92-100.58 19.94-39.424 65.59-86.584 83.81-86.584 16.88 0 12.56 9.117-14.56 30.758-29.67 23.668-68.23 101.32-81.72 164.54-13.59 63.734-49.52 131.38-69.78 131.38-12.69 0-43.46-84.819-43.46-119.78 0-21.825-13.15-18.67-18.24 4.37-17.96 81.319-44.51 132.03-65.2 124.54zm251.65-42.146c-6.09-6.09 1.91-37.987 13.95-55.563 13.77-20.116 11.83-26.75-5.17-17.652-8.12 4.345-19.86 5.947-26.08 3.548-9.64-3.699-18.8-12.924-5.57-22.188 8.55-5.989 26.4-15.724 37.06-14.977 17.37 1.216 22-3.909 44.55-49.286 13.84-27.854 33.68-61.409 44.08-74.567 15.95-20.173 20.96-22.672 31.96-15.949 9.04 5.528 13.04 16.421 13.04 35.508 0 34.173-10.26 62.398-16.16 70.558-0.53 0.73 21.17-4.878 51.73-14.855 71.03-23.188 91.22-17.617 40.71 11.231-20.19 11.533-74.53 35.647-85.41 40.465-14.8 6.551-20.39 14.594-22.17 31.915-1.31 12.736-3.18 31.146-4.15 40.911-0.97 9.764-2.19 20.15-2.69 23.079-1.33 7.7-27.73 6.56-32.65-1.409-2.29-3.707-0.51-21.405 4.04-39.331 4.51-17.926 6.3-34.499 3.98-36.828-6.28-6.282-47.75 12.509-43.34 19.642 6.55 10.603-10.72 61.601-22.38 66.075-13.79 5.293-13.71 5.293-19.33-0.335zm102.83-139.2c4.84-8.788 8.91-20.224 13.82-29.873 3.52-6.902 12.19-25.06 2.76-23.684-7.81 1.141-18.48 11.659-23.72 23.377-5.23 11.717-12.45 26.897-16.04 33.732-10.12 19.303 12.54 15.834 23.19-3.548zm288.11 104.08c-10.29-10.287 16.05-120.07 38.54-160.65 4.93-8.906 8.29-18.588 7.46-21.518-1.79-6.324 3.82-6.559 24.43-1.031l15.29 4.101-17.39 37.986c-9.56 20.892-18.76 45.133-20.45 53.869-1.68 8.736-6.33 19.152-10.32 23.15-4 4.001-7.27 15.955-7.27 26.572 0 34.275-14.98 52.828-30.29 37.515zm-120.61-25.967c-9.4-14.348-8.88-22.68 4.96-79.893 16.77-69.307 28.67-93.719 48.81-100.11 19.47-6.182 20.12-1.485 5.13 36.75-20.74 52.9-24.05 62.462-25.63 74.053-0.84 5.863-3.76 19.441-6.6 30.181-5.5 20.881 7.08 27.309 22.76 11.63 4.34-4.345 11.52-6.693 15.94-5.225 9.73 3.246-33.08 48.629-45.88 48.629-4.95 0-13.72-7.205-19.49-16.018zm-76.35-163.96c0-12.236 11.83-23.715 27.94-29.39 6.68-2.352 119.5-35.953 206.41-50.305 77.45-12.79 78.12-12.76 78.12 3.565 0 17.983-7.62 22.101-48.1 25.996-18.46 1.778-48.37 6.559-66.45 10.636-18.09 4.076-37.27 6.668-42.61 5.762-5.35-0.906-18.72 2.063-29.72 6.593-10.99 4.529-25.38 8.279-31.96 8.329-6.58 0.071-25.87 8.035-42.87 17.754-38.67 22.11-50.76 22.361-50.76 1.057z"/>
        </g>
    </g>
</svg>
