<svg width="100%" height="100%" viewBox="0 0 442 55" version="1.1" xmlns="http://www.w3.org/2000/svg" xmlns:xlink="http://www.w3.org/1999/xlink" xml:space="preserve" id="racconti" class="intestazioni-liste">
    <g transform="matrix(1.13982,0,0,0.725198,82.7587,105.306)">
        <rect x="-72.607" y="-145.211" width="387.512" height="74.876" style="fill:none;"/>
        <g class="righe" transform="matrix(3.09369,0,0,4.86246,-1271.75,-789.029)">
            <path d="M389.392,145.958C388.425,145.479 389.786,144.941 389.88,144.907C390.303,144.754 390.877,144.945 391.328,144.858C392.654,144.602 393.809,144.473 395.166,144.379C399.924,144.05 404.666,143.827 409.425,143.42C411.054,143.281 413.537,142.128 414.328,143.559C414.814,144.439 413.428,144.369 413.163,144.394C410.669,144.623 408.079,144.83 405.562,144.972C401.823,145.182 398.069,145.361 394.342,145.744C393.348,145.846 390.035,146.276 389.392,145.958L389.392,145.958ZM487.552,143.061C487.486,142.987 487.474,142.502 487.642,142.414C488.528,141.945 489.437,141.805 490.402,141.685C492.533,141.42 493.207,141.378 495.922,141.217C497.607,141.117 499.367,140.991 501.103,141.022C502.017,141.038 509.839,140.82 510.45,140.841C510.785,140.852 511.735,141.181 511.674,141.312C511.515,141.66 510.907,141.727 510.622,141.747C508.603,141.886 506.583,141.997 504.562,142.099C500.179,142.32 495.791,142.354 491.422,142.811C491.028,142.853 487.846,143.395 487.552,143.061L487.552,143.061Z" style="fill-rule:nonzero;"/>
        </g>
        <g class="scritta" transform="matrix(3.09369,0,0,4.86246,-1271.75,-789.029)">
            <path d="M423.352,146.393C423.22,146.347 423.118,146.112 423.087,146.001C422.883,145.271 423.041,144.59 423.232,143.865C423.828,141.594 423.928,141.642 424.596,139.377C424.763,138.811 424.72,137.964 425.478,137.841C425.785,137.791 426.017,138.373 425.985,138.561C425.901,139.058 425.688,139.525 425.537,140.007C424.878,142.115 424.532,142.888 424.182,144.746C424.129,145.032 424.164,146.678 423.352,146.393L423.352,146.393ZM476.513,145.371C476.27,145.063 476.409,144.498 476.518,144.191C476.762,143.507 476.906,143.584 477.166,142.913C477.218,142.779 477.185,142.622 477.237,142.489C477.279,142.38 477.39,142.31 477.441,142.205C477.63,141.815 477.793,141.413 477.953,141.01C478.021,140.841 478.303,139.462 478.857,139.713C479.509,140.007 479.189,141.034 479.045,141.468C478.811,142.176 478.087,143.416 477.852,143.927C477.683,144.294 477.648,144.714 477.479,145.08C477.336,145.391 476.792,145.726 476.512,145.371L476.513,145.371ZM431.927,145.002C431.552,144.43 431.888,143.575 432.235,143.122C432.685,142.535 433.694,142.035 434.127,141.258C434.27,141.002 434.667,140.98 434.84,140.743C435.458,139.901 436.033,139.027 436.6,138.15C436.913,137.665 436.966,137.74 437.349,137.28C437.626,136.947 437.409,136.567 437.993,136.698C438.429,136.796 438.524,137.567 438.477,137.824C438.338,138.578 438.006,139.284 437.752,140.008C437.741,140.04 437.461,140.503 437.596,140.613C437.851,140.819 438.302,140.636 438.56,140.653C438.678,140.661 439.447,140.438 440.016,140.5C440.372,140.538 441.577,140.527 441.763,140.205C441.884,139.996 441.989,139.751 442.149,139.486C442.702,138.569 443.334,137.464 444.186,136.732C444.616,136.363 446.17,135.194 446.691,136.159C447.29,137.268 445.74,138.38 445.075,139.05C444.838,139.289 444.618,139.56 444.326,139.729C443.989,139.924 443.542,139.682 443.203,139.839C442.899,139.979 442.829,140.455 442.718,140.699C442.318,141.583 441.791,142.37 441.928,143.397C442.09,144.607 444.072,143.688 444.612,143.589C444.999,143.519 444.726,144.364 444.307,144.563C443.882,144.766 443.44,144.97 442.973,145.024C441.395,145.206 440.683,144.021 440.772,142.608C440.782,142.461 440.931,142.087 441.021,141.708C441.123,141.279 440.683,141.025 440.556,141.111C440.391,141.223 440.188,141.266 439.997,141.321C439.388,141.496 438.769,141.63 438.159,141.801C437.922,141.867 437.622,141.849 437.459,142.033C437.195,142.329 437.125,142.753 436.982,143.123C436.976,143.138 436.505,145.134 435.93,145.041C435.148,144.915 435.961,142.87 435.981,142.776C436.023,142.567 436.01,142.124 435.8,142.161C434.654,142.361 434.163,143.647 433.54,144.411C433.263,144.751 432.43,145.773 431.925,145.002L431.927,145.002ZM436.166,140.92C436.267,141.219 436.835,140.671 436.845,140.329C436.847,140.245 436.932,139.579 436.837,139.526C436.74,139.472 436.366,139.931 436.299,140.105C436.286,140.139 436.11,140.533 436.099,140.57C436.047,140.748 436.148,140.868 436.166,140.92ZM444.427,138.356C444.544,138.254 444.687,138.134 444.757,137.988C444.816,137.867 444.75,137.781 444.624,137.76C444.58,137.753 444.534,137.752 444.489,137.751C444.413,137.748 444.36,137.741 444.292,137.775C444.191,137.825 443.804,138.733 443.864,138.761C443.889,138.772 443.931,138.755 443.951,138.741C444.182,138.575 444.213,138.544 444.428,138.356L444.427,138.356ZM459.406,144.548C458.955,144.286 459.414,143.267 459.535,143.04C460.245,141.71 460.402,141.851 461.28,140.605C461.692,140.02 461.683,139.655 462.202,139.142C462.393,138.953 462.729,138.972 462.927,138.791C463.258,138.488 463.311,138.201 463.673,137.962C464.449,137.453 464.439,138.795 464.463,139.101C464.522,139.873 464.541,140.65 464.654,141.416C464.69,141.659 464.977,142.1 465.168,141.945C465.721,141.496 466.085,140.562 466.36,139.951C466.682,139.238 466.93,138.488 467.311,137.805C467.948,136.661 468.216,136.928 469.084,136.138C469.785,135.5 469.591,135.297 470.432,134.902C470.806,134.727 471.197,134.691 471.493,135.041C471.622,135.194 471.224,135.346 471.049,135.443C470.838,135.56 470.594,135.626 470.408,135.779C469.976,136.135 468.682,137.537 468.383,138.001C467.611,139.196 467.853,139.295 467.23,140.556C467.2,140.617 466.852,141.447 466.399,142.274C466.048,142.913 465.701,143.789 464.915,144.029C463.672,144.408 463.556,141.614 463.508,141.227C463.483,141.025 463.673,140.178 463.145,140.47C462.194,140.994 461.507,142.847 460.939,143.649C460.693,143.997 460.026,144.908 459.406,144.548L459.406,144.548ZM472.822,144.469C472.46,144.203 472.429,143.699 472.504,143.297C472.744,142.01 473.579,140.973 474.229,139.881C474.434,139.538 474.614,139.18 474.808,138.831C474.875,138.71 475.324,137.992 475.401,138.109C475.99,139.007 475.523,139.73 475.161,140.342C474.676,141.163 474.063,141.938 473.729,142.846C473.671,143.006 473.6,143.172 473.606,143.343C473.608,143.423 473.708,143.468 473.753,143.535C473.912,143.768 474.02,143.863 473.911,144.163C473.772,144.546 473.138,144.701 472.822,144.469L472.822,144.469ZM454.669,144.275C453.903,143.866 453.898,142.797 453.984,142.078C454.06,141.449 454.395,141.146 454.656,140.601C455.032,139.814 454.963,139.789 455.502,139.097C455.755,138.772 456.034,138.467 456.331,138.181C456.512,138.006 456.768,137.913 456.932,137.721C457.077,137.55 457.09,137.292 457.236,137.121C457.465,136.852 458.06,136.66 458.363,136.908C458.488,137.011 458.638,137.407 458.687,137.481C458.86,137.74 458.959,137.667 459.04,137.975C459.285,138.913 459.451,140.344 458.872,141.221C458.551,141.707 458.176,142.155 457.822,142.618C457.62,142.88 457.433,143.155 457.205,143.394C456.65,143.974 455.498,144.72 454.669,144.275L454.669,144.275ZM455.861,143.001C456.116,142.655 456.186,142.74 456.497,142.441C456.901,142.054 457.386,141.559 457.592,141.012C457.642,140.88 457.64,140.733 457.689,140.601C457.781,140.355 458.282,139.698 457.977,139.398C457.891,139.313 457.499,139.238 457.466,139.222C457.378,139.18 457.339,139.021 457.225,139.006C456.942,138.97 456.698,139.421 456.593,139.573C456.053,140.356 455.359,141.194 455.162,142.153C455.138,142.272 455.125,142.394 455.117,142.516C455.101,142.786 455.063,143.664 455.603,143.255C455.699,143.182 455.789,143.098 455.86,143.001L455.861,143.001ZM427.684,143.847C427.109,143.559 426.526,142.97 426.154,142.459C425.964,142.198 425.789,141.92 425.668,141.621C424.873,139.656 427.729,138.427 428.955,137.663C429.199,137.511 430.369,136.957 430.435,136.487C430.456,136.336 430.902,135.907 430.916,135.716C430.955,135.186 429.497,134.983 429.327,134.974C428.456,134.931 427.582,134.941 426.711,134.99C426.077,135.025 425.774,135.985 425.165,135.959C425.026,135.954 424.621,135.588 424.653,135.424C424.791,134.72 425.707,134.207 426.298,133.99C427.88,133.409 429.93,133.566 431.358,134.487C432.462,135.2 431.863,136.262 431.329,137.1C431.249,137.227 430.899,137.703 430.743,137.748C429.97,137.969 429.414,138.559 428.776,138.994C428.044,139.493 427.989,139.388 427.318,139.978C427.177,140.101 426.77,140.466 426.756,140.721C426.715,141.447 427.533,142.654 428.24,142.859C428.605,142.964 430.177,142.864 430.531,143.276C430.726,143.503 430.529,143.887 430.308,143.953C430.176,143.993 430.057,143.778 429.922,143.805C428.911,144.008 428.611,144.312 427.684,143.847L427.684,143.847ZM447.952,143.835C447.225,143.465 447.04,142.49 447.223,141.763C447.67,139.988 448.875,138.362 450.515,137.511C451.103,137.206 452.05,136.74 452.683,137.215C453.42,137.767 452.404,139.112 451.756,139.265C451.27,139.38 451.655,138.489 451.399,138.441C451.195,138.402 450.865,138.6 450.714,138.695C450.119,139.07 449.654,139.611 449.257,140.187C448.989,140.576 448.71,140.964 448.516,141.394C448.29,141.895 448.146,142.736 448.87,142.894C449.174,142.961 449.49,142.97 449.802,142.964C449.899,142.962 450.924,142.655 451.013,143.069C451.09,143.432 450.682,143.491 450.441,143.572C449.583,143.859 448.831,144.282 447.951,143.835L447.952,143.835ZM473.093,138.013C472.766,138.092 470.498,139.072 470.729,138.02C470.919,137.154 472.347,137.062 472.942,136.929C476.597,136.108 476.575,136.096 480.308,135.625C480.804,135.563 481.907,135.267 482.351,135.805C482.873,136.438 481.806,136.524 481.497,136.572C479.967,136.811 478.433,137.024 476.902,137.252C474.958,137.542 474.986,137.557 473.093,138.013Z" style="fill-rule:nonzero;"/>
        </g>
    </g>
</svg>
